G04 Layer_Color=16711935*
%FSTAX25Y25*%
%MOIN*%
G70*
G01*
G75*
%ADD47C,0.10642*%
%ADD48C,0.06800*%
%ADD49C,0.10288*%
%ADD50C,0.00800*%
%ADD51R,0.06706X0.06706*%
%ADD52C,0.06706*%
%ADD53C,0.05800*%
D47*
X0157622Y0314D02*
D03*
X0134D02*
D03*
X0145811Y0295496D02*
D03*
D48*
X0192Y0228D02*
D03*
X0222D02*
D03*
X0212D02*
D03*
X0202D02*
D03*
X0192Y0128D02*
D03*
X0202D02*
D03*
X0212D02*
D03*
X0222D02*
D03*
X0232D02*
D03*
D49*
X0122Y021174D02*
D03*
Y0183D02*
D03*
Y016774D02*
D03*
Y0139D02*
D03*
Y0279D02*
D03*
Y0226638D02*
D03*
D50*
X0308819Y0347083D02*
D03*
X0115905D02*
D03*
X0308819Y0118736D02*
D03*
X0115905D02*
D03*
D51*
X0303819Y0327909D02*
D03*
D52*
X0313819D02*
D03*
X0303819Y0317909D02*
D03*
X0313819D02*
D03*
X0303819Y0307909D02*
D03*
X0313819D02*
D03*
X0303819Y0297909D02*
D03*
X0313819D02*
D03*
X0303819Y0287909D02*
D03*
X0313819D02*
D03*
X0303819Y0277909D02*
D03*
X0313819D02*
D03*
X0303819Y0267909D02*
D03*
X0313819D02*
D03*
X0303819Y0257909D02*
D03*
X0313819D02*
D03*
X0303819Y0247909D02*
D03*
X0313819D02*
D03*
X0303819Y0237909D02*
D03*
X0313819D02*
D03*
X0303819Y0227909D02*
D03*
X0313819D02*
D03*
X0303819Y0217909D02*
D03*
X0313819D02*
D03*
X0303819Y0207909D02*
D03*
X0313819D02*
D03*
X0303819Y0197909D02*
D03*
X0313819D02*
D03*
X0303819Y0187909D02*
D03*
X0313819D02*
D03*
X0303819Y0177909D02*
D03*
X0313819D02*
D03*
Y0137909D02*
D03*
X0303819D02*
D03*
X0313819Y0147909D02*
D03*
X0303819D02*
D03*
X0313819Y0157909D02*
D03*
X0303819D02*
D03*
X0313819Y0167909D02*
D03*
X0303819D02*
D03*
D53*
X019Y0288D02*
D03*
X0198D02*
D03*
X0286Y0265D02*
D03*
X0288Y0309D02*
D03*
X0287Y0329D02*
D03*
X0285Y0319D02*
D03*
X0242878Y0250878D02*
D03*
X02655Y02445D02*
D03*
X0232Y0237D02*
D03*
X0241Y0239D02*
D03*
X016093Y025795D02*
D03*
X016123Y024444D02*
D03*
M02*
