G04 Layer_Physical_Order=1*
G04 Layer_Color=255*
%FSTAX25Y25*%
%MOIN*%
G70*
G01*
G75*
%ADD10R,0.11496X0.05000*%
%ADD11O,0.01378X0.04921*%
%ADD12R,0.03347X0.05512*%
%ADD13R,0.03150X0.04921*%
%ADD14R,0.04134X0.05512*%
%ADD15O,0.07480X0.02362*%
%ADD16R,0.06791X0.03898*%
%ADD17R,0.03898X0.01595*%
%ADD18R,0.02992X0.01595*%
%ADD19R,0.03347X0.02559*%
%ADD20C,0.05000*%
%ADD21C,0.01000*%
%ADD22C,0.02000*%
%ADD23C,0.03000*%
%ADD24C,0.09843*%
%ADD25C,0.06000*%
%ADD26C,0.09488*%
%ADD27R,0.05906X0.05906*%
%ADD28C,0.05906*%
%ADD29C,0.05000*%
G36*
X016154Y0264415D02*
X0159993Y0262867D01*
X0159705Y0262437D01*
X0159605Y026193D01*
Y0260973D01*
X0159266Y0260833D01*
X0158576Y0260304D01*
X0158047Y0259614D01*
X0157715Y0258811D01*
X0157601Y025795D01*
X0157715Y0257088D01*
X0158047Y0256286D01*
X0158576Y0255596D01*
X0159266Y0255067D01*
X0160069Y0254735D01*
X0160532Y0254674D01*
X0160499Y0254174D01*
X0154848D01*
X0154341Y0254073D01*
X0153911Y0253786D01*
X01527Y0252575D01*
X0152239Y0252766D01*
Y0260364D01*
X0156789Y0264915D01*
X0161333D01*
X016154Y0264415D01*
D02*
G37*
G36*
X0270625Y0265739D02*
X0271674D01*
Y0260549D01*
X0269451Y0258326D01*
X0266853D01*
X0266662Y0258787D01*
X0268937Y0261063D01*
X0269225Y0261493D01*
X0269325Y0262D01*
Y0271451D01*
X0269549Y0271674D01*
X0270625D01*
Y0265739D01*
D02*
G37*
G36*
X0300066Y0329788D02*
Y0324835D01*
X03D01*
X0299298Y0324696D01*
X0298702Y0324298D01*
X0293702Y0319298D01*
X0293304Y0318702D01*
X0293165Y0318D01*
Y030876D01*
X0290762Y0306358D01*
X0290386Y0306688D01*
X0290882Y0307336D01*
X0291215Y0308138D01*
X0291329Y0309D01*
X0291215Y0309861D01*
X0290882Y0310664D01*
X0290354Y0311354D01*
X0290325Y0311375D01*
Y0321D01*
X0290225Y0321507D01*
X0289937Y0321937D01*
X0286937Y0324937D01*
X0286869Y0324983D01*
X0286979Y0325391D01*
X0287034Y0325474D01*
X0287914Y032559D01*
X0288765Y0325943D01*
X0289496Y0326504D01*
X0290057Y0327235D01*
X029041Y0328086D01*
X0290464Y03285D01*
X0287D01*
Y03295D01*
X0290464D01*
X029041Y0329914D01*
X0290057Y0330765D01*
X0289743Y0331174D01*
X028999Y0331675D01*
X0298179D01*
X0300066Y0329788D01*
D02*
G37*
G36*
X0301914Y0251224D02*
X0301909Y0251174D01*
X0301142Y0250586D01*
X0300541Y0249802D01*
X0300163Y0248889D01*
X0300034Y0247909D01*
X0300163Y024693D01*
X0300541Y0246017D01*
X0301142Y0245233D01*
X0301673Y0244826D01*
X0301504Y0244325D01*
X0301D01*
X0300493Y0244225D01*
X0300063Y0243937D01*
X0297787Y0241662D01*
X0297325Y0241853D01*
Y0249451D01*
X0299549Y0251675D01*
X030179D01*
X0301914Y0251224D01*
D02*
G37*
G36*
X0137027Y0256185D02*
Y0255425D01*
X0149588D01*
Y0251552D01*
X0148249Y0250213D01*
X0137027D01*
Y0244786D01*
X0136527Y0244571D01*
X0136326Y0244763D01*
Y0256277D01*
X0136527Y0256432D01*
X0137027Y0256185D01*
D02*
G37*
G36*
X0270625Y0305739D02*
X0270417Y0305326D01*
X0265D01*
X0264493Y0305225D01*
X0264063Y0304937D01*
X0261787Y0302662D01*
X0261326Y0302853D01*
Y0310451D01*
X0262549Y0311674D01*
X0270625D01*
Y0305739D01*
D02*
G37*
G36*
Y029154D02*
Y0285739D01*
X0271158D01*
X0271365Y0285239D01*
X0270451Y0284326D01*
X0267D01*
X0266493Y0284225D01*
X0266063Y0283937D01*
X0265787Y0283662D01*
X0265325Y0283853D01*
Y0290451D01*
X0266549Y0291674D01*
X0270461D01*
X0270625Y029154D01*
D02*
G37*
G36*
Y0275739D02*
X0271674D01*
Y0274549D01*
X0271451Y0274325D01*
X0269D01*
X0268493Y0274225D01*
X0268063Y0273937D01*
X0267787Y0273662D01*
X0267325Y0273853D01*
Y0281451D01*
X0267549Y0281675D01*
X0270625D01*
Y0275739D01*
D02*
G37*
G36*
Y0302261D02*
Y0295739D01*
X0270672D01*
X0270864Y0295277D01*
X0269912Y0294325D01*
X0266D01*
X0265493Y0294225D01*
X0265063Y0293937D01*
X0263787Y0292662D01*
X0263326Y0292853D01*
Y0300451D01*
X0265549Y0302675D01*
X0270417D01*
X0270625Y0302261D01*
D02*
G37*
G36*
X0277906Y0322461D02*
Y03195D01*
X028048D01*
Y0319D01*
X028098D01*
Y0315539D01*
X0283055D01*
Y0315539D01*
X0283555Y031581D01*
X0284086Y031559D01*
X02845Y0315536D01*
Y0319D01*
X02855D01*
Y0315536D01*
X0285914Y031559D01*
X0286765Y0315943D01*
X0287175Y0316257D01*
X0287674Y031601D01*
Y0312286D01*
X0287139Y0312215D01*
X0286336Y0311882D01*
X0285646Y0311354D01*
X0285118Y0310664D01*
X0284785Y0309861D01*
X0284671Y0309D01*
X0284785Y0308138D01*
X0285118Y0307336D01*
X0285646Y0306646D01*
X0286336Y0306118D01*
X0287139Y0305785D01*
X0288Y0305672D01*
X0288861Y0305785D01*
X0289664Y0306118D01*
X0290312Y0306614D01*
X0290642Y0306238D01*
X0289702Y0305298D01*
X0289304Y0304702D01*
X0289165Y0304D01*
Y029776D01*
X0286702Y0295298D01*
X0286304Y0294702D01*
X0286165Y0294D01*
Y026876D01*
X0285693Y0268288D01*
X0285139Y0268215D01*
X0284336Y0267882D01*
X0283646Y0267354D01*
X0283555Y0267235D01*
X0283055Y0267404D01*
Y02685D01*
X028098D01*
Y0265539D01*
X0282363D01*
X0282693Y0265163D01*
X0282671Y0265D01*
X0282785Y0264139D01*
X0283118Y0263336D01*
X0283646Y0262646D01*
X0284336Y0262118D01*
X0285139Y0261785D01*
X0286Y0261671D01*
X0286861Y0261785D01*
X0287664Y0262118D01*
X0288354Y0262646D01*
X0288774Y0263195D01*
X0289275Y0263025D01*
Y025824D01*
X028736Y0256326D01*
X0271853D01*
X0271662Y0256787D01*
X0273937Y0259063D01*
X0274225Y0259493D01*
X0274325Y026D01*
Y0265739D01*
X0275375D01*
Y0272261D01*
X0273788D01*
X0273597Y0272723D01*
X0273937Y0273063D01*
X0274225Y0273493D01*
X0274325Y0274D01*
Y0275739D01*
X0275375D01*
Y0282261D01*
X0272788D01*
X0272597Y0282723D01*
X0273937Y0284063D01*
X0274225Y0284493D01*
X0274325Y0285D01*
Y0285739D01*
X0275375D01*
Y0292261D01*
X0272249D01*
X0272058Y0292723D01*
X0273937Y0294602D01*
X0274225Y0295032D01*
X0274325Y0295539D01*
Y0295739D01*
X0275375D01*
Y0302261D01*
X0272482D01*
X0272433Y0302761D01*
X0272507Y0302775D01*
X0272937Y0303063D01*
X0273937Y0304063D01*
X0274225Y0304493D01*
X0274325Y0305D01*
Y0305739D01*
X0275375D01*
Y0312261D01*
X0272788D01*
X0272597Y0312723D01*
X0273937Y0314063D01*
X0274225Y0314493D01*
X0274325Y0315D01*
Y0315739D01*
X0275375D01*
Y0322261D01*
X0275583Y0322674D01*
X0277494D01*
X0277906Y0322461D01*
D02*
G37*
G36*
X0318674Y0300451D02*
Y0254549D01*
X0317613Y0253488D01*
X0313266D01*
X0313038Y0253988D01*
X0313224Y0254203D01*
X0313819Y0254124D01*
X0314799Y0254253D01*
X0315711Y0254631D01*
X0316495Y0255233D01*
X0317097Y0256017D01*
X0317475Y025693D01*
X0317604Y0257909D01*
X0317475Y0258889D01*
X0317097Y0259802D01*
X0316495Y0260586D01*
X0315711Y0261188D01*
X0314799Y0261566D01*
X0313819Y0261695D01*
X0312839Y0261566D01*
X0311926Y0261188D01*
X0311142Y0260586D01*
X0310541Y0259802D01*
X0310163Y0258889D01*
X0310034Y0257909D01*
X0310163Y025693D01*
X0310541Y0256017D01*
X0310802Y0255677D01*
X0309451Y0254326D01*
X0306134D01*
X0305964Y0254825D01*
X0306495Y0255233D01*
X0307097Y0256017D01*
X0307475Y025693D01*
X0307604Y0257909D01*
X0307475Y0258889D01*
X0307097Y0259802D01*
X0306495Y0260586D01*
X0305712Y0261188D01*
X0304799Y0261566D01*
X0303819Y0261695D01*
X0302839Y0261566D01*
X0301926Y0261188D01*
X0301142Y0260586D01*
X0300541Y0259802D01*
X0300163Y0258889D01*
X0300034Y0257909D01*
X0300163Y025693D01*
X0300541Y0256017D01*
X0301142Y0255233D01*
X0301673Y0254825D01*
X0301504Y0254326D01*
X029988D01*
X0299562Y0254712D01*
X029958Y02548D01*
X0299479Y0255307D01*
X0299325Y0255537D01*
Y0279451D01*
X0300683Y0280808D01*
X030106Y0280478D01*
X0300541Y0279802D01*
X0300163Y0278889D01*
X0300034Y0277909D01*
X0300163Y027693D01*
X0300541Y0276017D01*
X0301142Y0275233D01*
X0301926Y0274631D01*
X0302839Y0274253D01*
X0303819Y0274124D01*
X0304799Y0274253D01*
X0305712Y0274631D01*
X0306495Y0275233D01*
X0307097Y0276017D01*
X0307475Y027693D01*
X0307604Y0277909D01*
X0307475Y0278889D01*
X0307097Y0279802D01*
X0306495Y0280586D01*
X0305728Y0281174D01*
X0305723Y0281224D01*
X0305848Y0281675D01*
X030891D01*
X0309417Y0281775D01*
X0309847Y0282063D01*
X0312272Y0284488D01*
X0312839Y0284253D01*
X0313819Y0284124D01*
X0314799Y0284253D01*
X0315711Y0284631D01*
X0316495Y0285233D01*
X0317097Y0286017D01*
X0317475Y028693D01*
X0317604Y0287909D01*
X0317475Y0288889D01*
X0317097Y0289802D01*
X0316495Y0290586D01*
X0315711Y0291188D01*
X0314799Y0291566D01*
X0313819Y0291695D01*
X0312839Y0291566D01*
X0311926Y0291188D01*
X0311142Y0290586D01*
X0310541Y0289802D01*
X0310163Y0288889D01*
X0310034Y0287909D01*
X0310163Y028693D01*
X0310398Y0286363D01*
X030836Y0284326D01*
X0306463D01*
X0306293Y0284825D01*
X0306638Y028509D01*
X0307272Y0285916D01*
X030767Y0286878D01*
X030774Y0287409D01*
X0303819D01*
X0299898D01*
X0299968Y0286878D01*
X0300366Y0285916D01*
X0301Y028509D01*
X0301345Y0284825D01*
X0301175Y0284326D01*
X0301D01*
X0300493Y0284225D01*
X0300063Y0283937D01*
X0297787Y0281662D01*
X0297325Y0281853D01*
Y0289451D01*
X0299549Y0291674D01*
X0301411D01*
X0301581Y0291175D01*
X0301Y0290729D01*
X0300366Y0289903D01*
X0299968Y0288941D01*
X0299898Y0288409D01*
X0303819D01*
X030774D01*
X030767Y0288941D01*
X0307272Y0289903D01*
X0306638Y0290729D01*
X0306057Y0291175D01*
X0306227Y0291674D01*
X0309D01*
X0309507Y0291775D01*
X0309937Y0292063D01*
X0312336Y0294462D01*
X0312839Y0294253D01*
X0313819Y0294124D01*
X0314799Y0294253D01*
X0315711Y0294631D01*
X0316495Y0295233D01*
X0317097Y0296017D01*
X0317475Y029693D01*
X0317604Y0297909D01*
X0317475Y0298889D01*
X0317097Y0299802D01*
X0316495Y0300586D01*
X0315728Y0301174D01*
X0315723Y0301224D01*
X0315848Y0301675D01*
X0317451D01*
X0318674Y0300451D01*
D02*
G37*
G36*
X0253675Y0132877D02*
Y0128729D01*
X0249971Y0125025D01*
X0235138D01*
X0234891Y0125525D01*
X0235319Y0126084D01*
X0235702Y0127008D01*
X0235833Y0128D01*
X0235702Y0128992D01*
X0235319Y0129916D01*
X0234891Y0130474D01*
X0235138Y0130974D01*
X025057D01*
X0251077Y0131075D01*
X0251507Y0131363D01*
X0253213Y0133068D01*
X0253675Y0132877D01*
D02*
G37*
G36*
X0318674Y0330451D02*
Y0305549D01*
X0317451Y0304326D01*
X0316463D01*
X0316293Y0304825D01*
X0316638Y030509D01*
X0317272Y0305916D01*
X031767Y0306878D01*
X031774Y0307409D01*
X0313819D01*
X0309898D01*
X0309968Y0306878D01*
X0310366Y0305916D01*
X0311Y030509D01*
X0311345Y0304825D01*
X0311175Y0304326D01*
X0306134D01*
X0305964Y0304825D01*
X0306495Y0305233D01*
X0307097Y0306017D01*
X0307475Y030693D01*
X0307604Y0307909D01*
X0307475Y0308889D01*
X0307097Y0309802D01*
X0306495Y0310586D01*
X0305712Y0311188D01*
X0304799Y0311566D01*
X0303819Y0311695D01*
X0302839Y0311566D01*
X0301926Y0311188D01*
X0301142Y0310586D01*
X0300541Y0309802D01*
X0300163Y0308889D01*
X0300034Y0307909D01*
X0300163Y030693D01*
X0300206Y0306825D01*
X0299872Y0306326D01*
X0299345D01*
X0299082Y0306825D01*
X0299225Y0307038D01*
X0299325Y0307546D01*
Y0315451D01*
X0300032Y0316158D01*
X0300447Y0316075D01*
X0300566Y0315984D01*
X0301142Y0315233D01*
X0301926Y0314631D01*
X0302839Y0314253D01*
X0303819Y0314124D01*
X0304799Y0314253D01*
X0305712Y0314631D01*
X0306495Y0315233D01*
X0307097Y0316017D01*
X0307475Y031693D01*
X0307604Y0317909D01*
X0307475Y0318889D01*
X0307097Y0319802D01*
X0306495Y0320586D01*
X0306358Y0320691D01*
X0306519Y0321165D01*
X030891D01*
X0309612Y0321304D01*
X0310207Y0321702D01*
X0312032Y0323527D01*
X0312493Y0323335D01*
Y0321422D01*
X0311926Y0321187D01*
X0311142Y0320586D01*
X0310541Y0319802D01*
X0310163Y0318889D01*
X0310034Y0317909D01*
X0310163Y031693D01*
X0310541Y0316017D01*
X0311142Y0315233D01*
X0311926Y0314631D01*
X0312839Y0314253D01*
X0313819Y0314124D01*
X0314799Y0314253D01*
X0315711Y0314631D01*
X0316495Y0315233D01*
X0317097Y0316017D01*
X0317475Y031693D01*
X0317604Y0317909D01*
X0317475Y0318889D01*
X0317097Y0319802D01*
X0316495Y0320586D01*
X0315711Y0321187D01*
X0315144Y0321422D01*
Y0324396D01*
X0315711Y0324631D01*
X0316495Y0325233D01*
X0317097Y0326017D01*
X0317475Y032693D01*
X0317604Y0327909D01*
X0317475Y0328889D01*
X0317097Y0329802D01*
X0316687Y0330337D01*
X0316933Y0330837D01*
X0318289D01*
X0318674Y0330451D01*
D02*
G37*
G36*
X0310522Y0357837D02*
X0312184Y0357438D01*
X0313762Y0356784D01*
X0315219Y0355891D01*
X0316518Y0354782D01*
X0317628Y0353483D01*
X031852Y0352026D01*
X0319174Y0350447D01*
X0319573Y0348786D01*
X0319707Y0347083D01*
X0319573Y0345379D01*
X0319174Y0343718D01*
X031852Y034214D01*
X0317628Y0340683D01*
X0316518Y0339384D01*
X0315219Y0338274D01*
X0313762Y0337381D01*
X0312184Y0336727D01*
X0310522Y0336328D01*
X0308819Y0336194D01*
X0307116Y0336328D01*
X0305454Y0336727D01*
X0303876Y0337381D01*
X0302419Y0338274D01*
X030112Y0339384D01*
X030001Y0340683D01*
X0299117Y034214D01*
X0298464Y0343718D01*
X0298065Y0345379D01*
X0297931Y0347083D01*
X0298065Y0348786D01*
X0298464Y0350447D01*
X0299117Y0352026D01*
X030001Y0353483D01*
X030112Y0354782D01*
X0302419Y0355891D01*
X0303876Y0356784D01*
X0305454Y0357438D01*
X0307116Y0357837D01*
X0308819Y0357971D01*
X0310522Y0357837D01*
D02*
G37*
G36*
X030248Y0359037D02*
X0300856Y0358042D01*
X029924Y0356662D01*
X029786Y0355045D01*
X0296749Y0353233D01*
X0295935Y0351269D01*
X0295439Y0349202D01*
X0295272Y0347083D01*
X0295439Y0344964D01*
X0295935Y0342897D01*
X0296749Y0340933D01*
X029786Y033912D01*
X029924Y0337504D01*
X0300856Y0336123D01*
X0302669Y0335013D01*
X0304633Y0334199D01*
X03067Y0333703D01*
X0307091Y0333672D01*
X0307225Y033316D01*
X0307134Y0333099D01*
X0305697Y0331662D01*
X0301941D01*
X0299666Y0333937D01*
X0299236Y0334225D01*
X0298728Y0334326D01*
X027D01*
X0269493Y0334225D01*
X0269063Y0333937D01*
X0268063Y0332937D01*
X0267775Y0332507D01*
X0267674Y0332D01*
Y0317549D01*
X0266251Y0316125D01*
X0261254D01*
X0260747Y0316025D01*
X0260317Y0315737D01*
X0257263Y0312683D01*
X0256975Y0312253D01*
X0256874Y0311746D01*
Y0308749D01*
X0256451Y0308326D01*
X0227375D01*
Y0310261D01*
X0222625D01*
Y0303739D01*
X0223675D01*
Y0297261D01*
X0222625D01*
Y0290739D01*
X0227375D01*
Y0297261D01*
X0226325D01*
Y0303739D01*
X0227375D01*
Y0305675D01*
X0257D01*
X0257507Y0305775D01*
X0257937Y0306063D01*
X0258213Y0306338D01*
X0258675Y0306147D01*
Y0268549D01*
X0257851Y0267725D01*
X0238149D01*
X0236959Y0268915D01*
Y0270654D01*
X0237036Y0270769D01*
X0237152Y027135D01*
Y0274894D01*
X0237036Y0275475D01*
X0236707Y0275967D01*
X0236215Y0276296D01*
X0235634Y0276412D01*
X0235053Y0276296D01*
X023456Y0275967D01*
X0234148D01*
X0233656Y0276296D01*
X0233075Y0276412D01*
X0232494Y0276296D01*
X0232001Y0275967D01*
X0231589D01*
X0231097Y0276296D01*
X0230516Y0276412D01*
X0229935Y0276296D01*
X0229442Y0275967D01*
X022903D01*
X0228538Y0276296D01*
X0227957Y0276412D01*
X0227376Y0276296D01*
X0226883Y0275967D01*
X0226471D01*
X0225979Y0276296D01*
X0225398Y0276412D01*
X0224817Y0276296D01*
X0224324Y0275967D01*
X0223912D01*
X0223419Y0276296D01*
X0222839Y0276412D01*
X0222258Y0276296D01*
X0221765Y0275967D01*
X0221353D01*
X0220861Y0276296D01*
X022028Y0276412D01*
X0219699Y0276296D01*
X0219206Y0275967D01*
X0218794D01*
X0218302Y0276296D01*
X0217721Y0276412D01*
X021714Y0276296D01*
X0216647Y0275967D01*
X0216235D01*
X0215742Y0276296D01*
X0215161Y0276412D01*
X021458Y0276296D01*
X0214088Y0275967D01*
X0213676D01*
X0213183Y0276296D01*
X0212602Y0276412D01*
X0212021Y0276296D01*
X0211529Y0275967D01*
X0211117D01*
X0210624Y0276296D01*
X0210043Y0276412D01*
X0209462Y0276296D01*
X020897Y0275967D01*
X0208558D01*
X0208065Y0276296D01*
X0207484Y0276412D01*
X0206903Y0276296D01*
X0206411Y0275967D01*
X0205999D01*
X0205506Y0276296D01*
X0204925Y0276412D01*
X0204344Y0276296D01*
X0203852Y0275967D01*
X020342Y0276221D01*
X0203025Y0276485D01*
X0202866Y0276516D01*
Y0273122D01*
Y0269728D01*
X0203025Y0269759D01*
X020342Y0270023D01*
X0203852Y0270277D01*
X0204344Y0269948D01*
X0204925Y0269832D01*
X0205506Y0269948D01*
X0205999Y0270277D01*
X0206411D01*
X0206903Y0269948D01*
X0207484Y0269832D01*
X0208065Y0269948D01*
X0208558Y0270277D01*
X020897D01*
X0209462Y0269948D01*
X0210043Y0269832D01*
X0210624Y0269948D01*
X0211117Y0270277D01*
X0211529D01*
X0212021Y0269948D01*
X0212602Y0269832D01*
X0213183Y0269948D01*
X0213676Y0270277D01*
X0214088D01*
X021458Y0269948D01*
X0215161Y0269832D01*
X0215742Y0269948D01*
X0215895Y027005D01*
X0216395Y0269782D01*
Y0268269D01*
X0213451Y0265325D01*
X0196549D01*
X0195326Y0266549D01*
Y0275D01*
X0195225Y0275507D01*
X0194937Y0275937D01*
X0191937Y0278937D01*
X0191507Y0279225D01*
X0191Y0279326D01*
X0185549D01*
X0185326Y0279549D01*
Y0282D01*
X0185225Y0282507D01*
X0184937Y0282937D01*
X0184221Y0283654D01*
X0184106Y0283821D01*
X018419Y0284316D01*
X0186469Y0286595D01*
X0187045Y0286511D01*
X0187118Y0286336D01*
X0187646Y0285646D01*
X0188336Y0285118D01*
X0189138Y0284785D01*
X019Y0284671D01*
X0190861Y0284785D01*
X0191664Y0285118D01*
X0192354Y0285646D01*
X0192883Y0286336D01*
X0193215Y0287139D01*
X0193328Y0288D01*
X0193215Y0288861D01*
X0192883Y0289664D01*
X0192354Y0290354D01*
X0191664Y0290882D01*
X0191412Y0290987D01*
X0191359Y0291485D01*
X0192549Y0292674D01*
X02D01*
X0200298Y0292734D01*
X0200544Y0292273D01*
X0199303Y0291032D01*
X0198862Y0291215D01*
X0198Y0291329D01*
X0197139Y0291215D01*
X0196336Y0290882D01*
X0195646Y0290354D01*
X0195117Y0289664D01*
X0194785Y0288861D01*
X0194671Y0288D01*
X0194785Y0287139D01*
X0195117Y0286336D01*
X0195646Y0285646D01*
X0196336Y0285118D01*
X0197139Y0284785D01*
X0198Y0284671D01*
X0198862Y0284785D01*
X0199664Y0285118D01*
X0200354Y0285646D01*
X0200883Y0286336D01*
X0201215Y0287139D01*
X0201328Y0288D01*
X0201215Y0288861D01*
X0201117Y0289097D01*
X0203386Y0291366D01*
X0203673Y0291247D01*
Y0291247D01*
X0208619D01*
Y0294594D01*
Y0298675D01*
X0209381D01*
Y0294594D01*
Y0291247D01*
X0210529D01*
Y0289146D01*
X021063Y0288638D01*
X0210917Y0288208D01*
X0212063Y0287063D01*
X0212493Y0286775D01*
X0213Y0286674D01*
X0214D01*
X0214507Y0286775D01*
X0214937Y0287063D01*
X0215937Y0288063D01*
X0216225Y0288493D01*
X0216325Y0289D01*
Y0290045D01*
X0217019Y0290739D01*
X0219895D01*
Y0297261D01*
X0215145D01*
Y0292614D01*
X021479Y0292259D01*
X0214328Y029245D01*
Y0294594D01*
Y0298753D01*
X0213473D01*
X021318Y0299146D01*
X0213079Y0299653D01*
X0212792Y0300083D01*
X0211937Y0300937D01*
X0211507Y0301225D01*
X0211Y0301325D01*
X0203D01*
X0202493Y0301225D01*
X0202063Y0300937D01*
X0198451Y0297325D01*
X018972D01*
X0189213Y0297225D01*
X0188783Y0296937D01*
X0184783Y0292937D01*
X0184496Y0292507D01*
X0184395Y0292D01*
Y0288269D01*
X0182454Y0286328D01*
X0164457D01*
X016395Y0286227D01*
X016352Y028594D01*
X0159463Y0281883D01*
X0159175Y0281453D01*
X0159074Y0280946D01*
Y0277949D01*
X0157451Y0276325D01*
X0137D01*
X0136493Y0276225D01*
X0136063Y0275937D01*
X0134063Y0273937D01*
X0133775Y0273507D01*
X0133675Y0273D01*
Y0268D01*
X0133775Y0267493D01*
X0134063Y0267063D01*
X0136063Y0265063D01*
X0136493Y0264775D01*
X0137Y0264674D01*
X0152147D01*
X0152338Y0264213D01*
X0150467Y0262341D01*
X0150123Y0262025D01*
Y0262025D01*
X0150123Y0262025D01*
X0137027D01*
Y0260051D01*
X0136725D01*
X0136218Y025995D01*
X0135788Y0259662D01*
X0134063Y0257937D01*
X0133775Y0257507D01*
X0133675Y0257D01*
Y0244D01*
X0133775Y0243493D01*
X0134063Y0243063D01*
X0135063Y0242063D01*
X0135493Y0241775D01*
X0136Y0241674D01*
X0152D01*
X0152507Y0241775D01*
X0152937Y0242063D01*
X015365Y0242776D01*
X0153938Y0243206D01*
X0154039Y0243713D01*
Y0250164D01*
X0155397Y0251523D01*
X0161731D01*
X0161939Y0251023D01*
X0160293Y0249377D01*
X0160005Y0248947D01*
X0159905Y024844D01*
Y0247463D01*
X0159566Y0247323D01*
X0158876Y0246794D01*
X0158347Y0246104D01*
X0158015Y0245302D01*
X0157902Y024444D01*
X0158015Y0243579D01*
X0158347Y0242776D01*
X0158876Y0242086D01*
X0159566Y0241558D01*
X0160369Y0241225D01*
X016123Y0241111D01*
X0162092Y0241225D01*
X0162894Y0241558D01*
X0163584Y0242086D01*
X0164113Y0242776D01*
X0164445Y0243579D01*
X0164558Y024444D01*
X0164445Y0245302D01*
X0164113Y0246104D01*
X0163584Y0246794D01*
X0162894Y0247323D01*
X0162642Y0247427D01*
X0162589Y0247925D01*
X0163707Y0249043D01*
X0165796D01*
Y0246104D01*
X0170389D01*
Y0246468D01*
X0176196D01*
Y0251251D01*
Y0256749D01*
X0170389D01*
Y0257111D01*
X0165796D01*
Y0254174D01*
X0161361D01*
X0161328Y0254674D01*
X0161792Y0254735D01*
X0162594Y0255067D01*
X0163284Y0255596D01*
X0163813Y0256286D01*
X0164145Y0257088D01*
X0164259Y025795D01*
X0164145Y0258811D01*
X0163813Y0259614D01*
X0163284Y0260304D01*
X0162594Y0260833D01*
X0162366Y0260927D01*
X0162309Y0261435D01*
X0163309Y0262434D01*
X0165401D01*
Y0259495D01*
X0169993D01*
Y0259859D01*
X01758D01*
Y0264643D01*
Y0270141D01*
X0169993D01*
Y0270503D01*
X0165805D01*
X0165395Y0270539D01*
X0165325Y0270972D01*
Y0273026D01*
X0165401Y0273495D01*
X0169993D01*
Y027386D01*
X01758D01*
Y0278643D01*
Y0283677D01*
X0176661D01*
Y0282037D01*
X0176461D01*
Y028074D01*
X0179409D01*
Y027974D01*
X0176461D01*
Y0278443D01*
X0176661D01*
Y0276959D01*
X0176461D01*
Y0275661D01*
X0179409D01*
X0182358D01*
Y0276434D01*
X018276D01*
X0183267Y0276535D01*
X0183697Y0276823D01*
X0184Y0277126D01*
X0184063Y0277063D01*
X0184493Y0276775D01*
X0185Y0276675D01*
X0190451D01*
X0192675Y0274451D01*
Y0266D01*
X0192775Y0265493D01*
X0193063Y0265063D01*
X0194338Y0263787D01*
X0194147Y0263326D01*
X0187951D01*
X0185326Y0265951D01*
Y0268D01*
X0185225Y0268507D01*
X0184937Y0268937D01*
X0184099Y0269776D01*
X0183669Y0270063D01*
X0183161Y0270164D01*
X0182158D01*
Y0270436D01*
X0176661D01*
Y0268037D01*
X0176461D01*
Y026674D01*
X0179409D01*
Y026574D01*
X0176461D01*
Y0264443D01*
X0176661D01*
Y0262959D01*
X0176461D01*
Y0261661D01*
X0179409D01*
X0182358D01*
Y0262434D01*
X0182866Y0262535D01*
X0183296Y0262823D01*
X0184Y0263527D01*
X0186464Y0261063D01*
X0186894Y0260775D01*
X0187402Y0260675D01*
X0193147D01*
X0193338Y0260213D01*
X0193063Y0259937D01*
X0192775Y0259507D01*
X0192675Y0259D01*
Y0257549D01*
X0192451Y0257326D01*
X0185799D01*
X0185292Y0257225D01*
X0184862Y0256937D01*
X0184Y0256075D01*
X0183691Y0256384D01*
X0183261Y0256671D01*
X0182754Y0256772D01*
X0182554D01*
Y0257044D01*
X0177056D01*
Y0254646D01*
X0176856D01*
Y0253348D01*
X0179805D01*
Y0252348D01*
X0176856D01*
Y0251051D01*
X0177056D01*
Y0249567D01*
X0176856D01*
Y024827D01*
X0179805D01*
X0182754D01*
Y0249043D01*
X0183261Y0249144D01*
X0183691Y0249431D01*
X0184937Y0250677D01*
X0185225Y0251107D01*
X0185326Y0251614D01*
Y0253652D01*
X0186348Y0254675D01*
X0193D01*
X0193507Y0254775D01*
X0193937Y0255063D01*
X0194937Y0256063D01*
X0195225Y0256493D01*
X0195326Y0257D01*
Y0258451D01*
X0195549Y0258675D01*
X0215091D01*
X0215598Y0258775D01*
X0216028Y0259063D01*
X0223572Y0266606D01*
X0224072Y0266399D01*
Y0262602D01*
X0224173Y0262095D01*
X022446Y0261665D01*
X0227338Y0258787D01*
X0227147Y0258326D01*
X0227D01*
X0226493Y0258225D01*
X0226063Y0257937D01*
X022446Y0256335D01*
X0224173Y0255905D01*
X0224072Y0255398D01*
Y0254218D01*
X0223572Y025395D01*
X0223419Y0254052D01*
X0222839Y0254168D01*
X0222258Y0254052D01*
X0221765Y0253723D01*
X0221353D01*
X0220861Y0254052D01*
X022028Y0254168D01*
X0219699Y0254052D01*
X0219206Y0253723D01*
X0218794D01*
X0218302Y0254052D01*
X0217721Y0254168D01*
X021714Y0254052D01*
X0216647Y0253723D01*
X0216235D01*
X0215742Y0254052D01*
X0215161Y0254168D01*
X021458Y0254052D01*
X0214088Y0253723D01*
X0213676D01*
X0213183Y0254052D01*
X0212602Y0254168D01*
X0212021Y0254052D01*
X0211529Y0253723D01*
X0211117D01*
X0210624Y0254052D01*
X0210043Y0254168D01*
X0209462Y0254052D01*
X020897Y0253723D01*
X0208558D01*
X0208065Y0254052D01*
X0207484Y0254168D01*
X0206903Y0254052D01*
X0206411Y0253723D01*
X0205999D01*
X0205506Y0254052D01*
X0204925Y0254168D01*
X0204344Y0254052D01*
X0203852Y0253723D01*
X020344D01*
X0202947Y0254052D01*
X0202366Y0254168D01*
X0201785Y0254052D01*
X0201293Y0253723D01*
X0200964Y0253231D01*
X0200848Y025265D01*
Y0249106D01*
X0200964Y0248525D01*
X0201293Y0248033D01*
X0201785Y0247704D01*
X0202366Y0247588D01*
X0202947Y0247704D01*
X020344Y0248033D01*
X0203852D01*
X0204344Y0247704D01*
X0204925Y0247588D01*
X0205506Y0247704D01*
X0205999Y0248033D01*
X0206411D01*
X0206903Y0247704D01*
X0207484Y0247588D01*
X0208065Y0247704D01*
X0208558Y0248033D01*
X020897D01*
X0209462Y0247704D01*
X0210043Y0247588D01*
X0210624Y0247704D01*
X0211117Y0248033D01*
X0211529D01*
X0212021Y0247704D01*
X0212602Y0247588D01*
X0213183Y0247704D01*
X0213676Y0248033D01*
X0214088D01*
X021458Y0247704D01*
X0215161Y0247588D01*
X0215742Y0247704D01*
X0216235Y0248033D01*
X0216647D01*
X021714Y0247704D01*
X0217721Y0247588D01*
X0218302Y0247704D01*
X0218794Y0248033D01*
X0219206D01*
X0219699Y0247704D01*
X022028Y0247588D01*
X0220861Y0247704D01*
X0221013Y0247806D01*
X0221513Y0247538D01*
Y0244161D01*
X0221614Y0243654D01*
X0221901Y0243224D01*
X0223063Y0242063D01*
X0223493Y0241775D01*
X0224Y0241674D01*
X0226451D01*
X0227675Y0240451D01*
Y0238D01*
X0227775Y0237493D01*
X0228063Y0237063D01*
X0228754Y0236371D01*
X0228785Y0236139D01*
X0229117Y0235336D01*
X0229646Y0234646D01*
X0230336Y0234118D01*
X0231138Y0233785D01*
X0232Y0233671D01*
X0232861Y0233785D01*
X0233664Y0234118D01*
X0234354Y0234646D01*
X0234882Y0235336D01*
X0235215Y0236139D01*
X0235329Y0237D01*
X0235215Y0237861D01*
X0234882Y0238664D01*
X0234354Y0239354D01*
X0233664Y0239882D01*
X0232861Y0240215D01*
X0232Y0240329D01*
X0231138Y0240215D01*
X0230825Y0240085D01*
X0230326Y024042D01*
Y0241D01*
X0230225Y0241507D01*
X0229937Y0241937D01*
X0227937Y0243937D01*
X0227507Y0244225D01*
X0227Y0244325D01*
X0224549D01*
X0224164Y024471D01*
Y0247538D01*
X0224664Y0247806D01*
X0224817Y0247704D01*
X0225398Y0247588D01*
X0225979Y0247704D01*
X0226471Y0248033D01*
X0226903Y0247779D01*
X0227298Y0247515D01*
X0227457Y0247484D01*
Y0250878D01*
Y0254272D01*
X0227298Y0254241D01*
X0227268Y0254221D01*
X0226834Y025444D01*
X022679Y0254916D01*
X0227549Y0255675D01*
X0249147D01*
X0249338Y0255213D01*
X0248063Y0253937D01*
X0247775Y0253507D01*
X0247674Y0253D01*
Y0248549D01*
X0246451Y0247325D01*
X0244231D01*
X0244132Y0247826D01*
X0244542Y0247995D01*
X0245232Y0248524D01*
X024576Y0249214D01*
X0246093Y0250016D01*
X0246206Y0250878D01*
X0246093Y0251739D01*
X024576Y0252542D01*
X0245232Y0253232D01*
X0244542Y0253761D01*
X0243739Y0254093D01*
X0242878Y0254206D01*
X0242017Y0254093D01*
X0241214Y0253761D01*
X0240524Y0253232D01*
X0239995Y0252542D01*
X0239855Y0252203D01*
X0237152D01*
Y025265D01*
X0237036Y0253231D01*
X0236707Y0253723D01*
X0236215Y0254052D01*
X0235634Y0254168D01*
X0235053Y0254052D01*
X023456Y0253723D01*
X0234148D01*
X0233656Y0254052D01*
X0233075Y0254168D01*
X0232494Y0254052D01*
X0232132Y0253811D01*
X0231795Y0253756D01*
X0231458Y0253811D01*
X0231097Y0254052D01*
X0230516Y0254168D01*
X0229935Y0254052D01*
X0229442Y0253723D01*
X022901Y0253977D01*
X0228616Y0254241D01*
X0228457Y0254272D01*
Y0250878D01*
Y0247484D01*
X0228616Y0247515D01*
X022869Y0247565D01*
X0228937Y0247492D01*
X0229211Y0247312D01*
X0229291Y024691D01*
X0229578Y024648D01*
X0232996Y0243063D01*
X0233426Y0242775D01*
X0233933Y0242674D01*
X0239419D01*
X0239518Y0242175D01*
X0239235Y0242057D01*
X0238504Y0241496D01*
X0237943Y0240765D01*
X023759Y0239914D01*
X0237536Y02395D01*
X0244464D01*
X024441Y0239914D01*
X0244057Y0240765D01*
X0243496Y0241496D01*
X0242765Y0242057D01*
X0242482Y0242175D01*
X0242581Y0242674D01*
X0245451D01*
X0245674Y0242451D01*
Y0236D01*
X0245775Y0235493D01*
X0246063Y0235063D01*
X0250075Y0231051D01*
X0250505Y0230764D01*
X0251012Y0230663D01*
X0260988D01*
X0261495Y0230764D01*
X0261925Y0231051D01*
X0263937Y0233063D01*
X0264225Y0233493D01*
X0264325Y0234D01*
Y0238D01*
X0264225Y0238507D01*
X0263937Y0238937D01*
X0262437Y0240437D01*
X0262007Y0240725D01*
X02615Y0240826D01*
X0260804D01*
X0260735Y0240928D01*
X026008Y0241366D01*
X0259307Y024152D01*
X0254189D01*
X0253416Y0241366D01*
X0252825Y0240972D01*
X0252556Y0241045D01*
X0252326Y0241177D01*
Y0242532D01*
X0252825Y0242788D01*
X0253338Y0242445D01*
X0254189Y0242276D01*
X0256248D01*
Y02445D01*
X0257248D01*
Y0242276D01*
X0259307D01*
X0260158Y0242445D01*
X026088Y0242928D01*
X0261045Y0243175D01*
X0262261D01*
X0262443Y0242735D01*
X0263004Y0242004D01*
X0263735Y0241443D01*
X0264586Y024109D01*
X0265Y0241036D01*
Y02445D01*
X0266D01*
Y0241036D01*
X0266414Y024109D01*
X0267265Y0241443D01*
X0267996Y0242004D01*
X0268175Y0242236D01*
X0268674Y0242066D01*
Y0232212D01*
X0268775Y0231705D01*
X0269063Y0231275D01*
X0269674Y0230663D01*
Y0215D01*
X0269775Y0214493D01*
X0270063Y0214063D01*
X0272063Y0212063D01*
X0272493Y0211775D01*
X0273Y0211674D01*
X0273133D01*
Y0209444D01*
X0278618D01*
X0279035Y0209244D01*
X0279284Y0209244D01*
X0281602D01*
Y0213D01*
Y0216756D01*
X0279035D01*
X0278618Y0216556D01*
X0273133D01*
Y0215395D01*
X0272671Y0215203D01*
X0272325Y0215549D01*
Y0231212D01*
X0272225Y0231719D01*
X0271959Y0232116D01*
X0271992Y0232231D01*
X0272219Y0232574D01*
X0272693Y023248D01*
X0275975D01*
X0276127Y023198D01*
X0276063Y0231937D01*
X0275063Y0230937D01*
X0274775Y0230507D01*
X0274675Y023D01*
Y0226556D01*
X0273133D01*
Y0219444D01*
X0278618D01*
X0279035Y0219244D01*
X0279284Y0219244D01*
X0281602D01*
Y0223D01*
Y0226756D01*
X0279035D01*
X0278618Y0226556D01*
X0277326D01*
Y0229451D01*
X0277549Y0229675D01*
X028D01*
X0280507Y0229775D01*
X0280937Y0230063D01*
X0281937Y0231063D01*
X0282225Y0231493D01*
X0282326Y0232D01*
Y0247939D01*
X0282549Y0248163D01*
X0286939D01*
X0289074Y0246027D01*
Y0201949D01*
X0286451Y0199326D01*
X0285067D01*
Y02025D01*
X0282D01*
Y0203D01*
X02815D01*
Y0206756D01*
X0278933D01*
Y0206756D01*
X0278765Y0206556D01*
X0273031D01*
Y0199444D01*
X0274572D01*
Y0199244D01*
X0274673Y0198737D01*
X027496Y0198307D01*
X027528Y0197987D01*
X0275089Y0197526D01*
X0262654D01*
X0262147Y0197425D01*
X0261717Y0197137D01*
X0252063Y0187483D01*
X0251825Y0187128D01*
X0251506Y0187147D01*
X0251325Y0187211D01*
Y0216D01*
X025133D01*
X0251209Y0217235D01*
X0250849Y0218423D01*
X0250264Y0219517D01*
X0249476Y0220476D01*
X0248517Y0221264D01*
X0247423Y0221849D01*
X0246235Y0222209D01*
X0245Y022233D01*
Y0222325D01*
X0179D01*
Y022233D01*
X0177765Y0222209D01*
X0176577Y0221849D01*
X0175483Y0221264D01*
X0174524Y0220476D01*
X0173736Y0219517D01*
X0173151Y0218423D01*
X0172791Y0217235D01*
X0172669Y0216D01*
X0172675D01*
X0172675Y0216D01*
Y014D01*
X0172669D01*
X0172791Y0138765D01*
X0173151Y0137577D01*
X0173736Y0136483D01*
X0174524Y0135524D01*
X0175483Y0134736D01*
X0176577Y0134151D01*
X0177765Y0133791D01*
X0179Y0133669D01*
X0179Y0133675D01*
X0205117D01*
X0205255Y013343D01*
X02053Y0133175D01*
X0203583Y0131457D01*
X0202992Y0131702D01*
X0202Y0131833D01*
X0201008Y0131702D01*
X0200084Y0131319D01*
X019929Y013071D01*
X0198681Y0129916D01*
X0198298Y0128992D01*
X0198167Y0128D01*
X0198298Y0127008D01*
X0198681Y0126084D01*
X019929Y012529D01*
X0200084Y0124681D01*
X0201008Y0124298D01*
X0202Y0124167D01*
X0202992Y0124298D01*
X0203916Y0124681D01*
X020471Y012529D01*
X0205319Y0126084D01*
X0205702Y0127008D01*
X0205833Y0128D01*
X0205702Y0128992D01*
X0205457Y0129583D01*
X0206849Y0130974D01*
X0208862D01*
X0209109Y0130474D01*
X0208681Y0129916D01*
X0208298Y0128992D01*
X0208167Y0128D01*
X0208298Y0127008D01*
X0208681Y0126084D01*
X020929Y012529D01*
X0210084Y0124681D01*
X0211008Y0124298D01*
X0212Y0124167D01*
X0212992Y0124298D01*
X0213583Y0124543D01*
X0214438Y0123687D01*
X0214247Y0123225D01*
X0174239D01*
X0170326Y0127139D01*
Y0199D01*
X0170225Y0199507D01*
X0169937Y0199937D01*
X0165661Y0204213D01*
X0165231Y0204501D01*
X0164724Y0204602D01*
X0150123D01*
Y0206576D01*
X0137027D01*
Y0199976D01*
X0150123D01*
Y0201951D01*
X0164175D01*
X0167675Y0198451D01*
Y0158853D01*
X0167213Y0158662D01*
X0165661Y0160213D01*
X0165231Y0160501D01*
X0164724Y0160601D01*
X0150123D01*
Y0162576D01*
X0137027D01*
Y0155976D01*
X0150123D01*
Y015795D01*
X0164175D01*
X0165674Y0156451D01*
Y012584D01*
X0165775Y0125333D01*
X0166063Y0124903D01*
X0171803Y0119163D01*
X0172233Y0118875D01*
X017274Y0118774D01*
X0285526D01*
X0286033Y0118875D01*
X0286463Y0119163D01*
X0290737Y0123437D01*
X0291025Y0123867D01*
X0291125Y0124374D01*
Y0131251D01*
X0298937Y0139063D01*
X0299225Y0139493D01*
X0299325Y014D01*
Y0239451D01*
X0300683Y0240808D01*
X030106Y0240478D01*
X0300541Y0239802D01*
X0300163Y0238889D01*
X0300034Y0237909D01*
X0300163Y023693D01*
X0300541Y0236017D01*
X0301142Y0235233D01*
X0301926Y0234631D01*
X0302839Y0234253D01*
X0303819Y0234124D01*
X0304799Y0234253D01*
X0305712Y0234631D01*
X0306495Y0235233D01*
X0307097Y0236017D01*
X0307475Y023693D01*
X0307604Y0237909D01*
X0307475Y0238889D01*
X0307097Y0239802D01*
X0306495Y0240586D01*
X0305728Y0241175D01*
X0305723Y0241224D01*
X0305848Y0241674D01*
X030891D01*
X0309417Y0241775D01*
X0309847Y0242063D01*
X0312272Y0244488D01*
X0312839Y0244253D01*
X0313819Y0244124D01*
X0314799Y0244253D01*
X0315711Y0244631D01*
X0316495Y0245233D01*
X0317097Y0246017D01*
X0317475Y024693D01*
X0317604Y0247909D01*
X0317475Y0248889D01*
X0317097Y0249802D01*
X0316687Y0250337D01*
X0316933Y0250837D01*
X0318162D01*
X0318669Y0250938D01*
X0319099Y0251225D01*
X0320773Y0252899D01*
X0321273Y0252691D01*
Y0125216D01*
X0320773Y0125075D01*
X0319778Y0126699D01*
X0318398Y0128315D01*
X0316781Y0129696D01*
X0314969Y0130806D01*
X0313005Y013162D01*
X0310938Y0132116D01*
X0308819Y0132283D01*
X03067Y0132116D01*
X0304633Y013162D01*
X0302669Y0130806D01*
X0300856Y0129696D01*
X029924Y0128315D01*
X029786Y0126699D01*
X0296749Y0124886D01*
X0295935Y0122922D01*
X0295439Y0120855D01*
X0295272Y0118736D01*
X0295439Y0116617D01*
X0295935Y011455D01*
X0296749Y0112586D01*
X029786Y0110774D01*
X029924Y0109157D01*
X0300856Y0107777D01*
X0302669Y0106666D01*
X0304633Y0105853D01*
X03067Y0105357D01*
X0308819Y010519D01*
X0310938Y0105357D01*
X0313005Y0105853D01*
X0314969Y0106666D01*
X0316781Y0107777D01*
X0318398Y0109157D01*
X0319778Y0110774D01*
X0320159Y0111396D01*
X0320606Y0111168D01*
X0320137Y0110035D01*
X0319277Y0108631D01*
X0318207Y0107379D01*
X0316955Y010631D01*
X0315551Y0105449D01*
X031403Y0104819D01*
X0312429Y0104435D01*
X0311279Y0104344D01*
X0310787Y0104314D01*
X0310787Y0104314D01*
X0310295Y0104314D01*
X0114435D01*
X0114429Y0104314D01*
X0113937Y0104314D01*
X011345Y0104344D01*
X0112295Y0104435D01*
X0110694Y0104819D01*
X0109173Y0105449D01*
X0107769Y010631D01*
X0106517Y0107379D01*
X0105448Y0108631D01*
X0104587Y0110035D01*
X0104118Y0111168D01*
X0104565Y0111396D01*
X0104946Y0110774D01*
X0106327Y0109157D01*
X0107943Y0107777D01*
X0109756Y0106666D01*
X0111719Y0105853D01*
X0113786Y0105357D01*
X0115905Y010519D01*
X0118025Y0105357D01*
X0120092Y0105853D01*
X0122055Y0106666D01*
X0123868Y0107777D01*
X0125484Y0109157D01*
X0126865Y0110774D01*
X0127975Y0112586D01*
X0128789Y011455D01*
X0129285Y0116617D01*
X0129452Y0118736D01*
X0129285Y0120855D01*
X0128789Y0122922D01*
X0127975Y0124886D01*
X0126865Y0126699D01*
X0125484Y0128315D01*
X0123868Y0129696D01*
X0122055Y0130806D01*
X0120092Y013162D01*
X0118025Y0132116D01*
X0115905Y0132283D01*
X0113786Y0132116D01*
X0111719Y013162D01*
X0109756Y0130806D01*
X0107943Y0129696D01*
X0106327Y0128315D01*
X0104946Y0126699D01*
X0103952Y0125075D01*
X0103452Y0125216D01*
Y0340602D01*
X0103952Y0340743D01*
X0104946Y033912D01*
X0106327Y0337504D01*
X0107943Y0336123D01*
X0109756Y0335013D01*
X0111719Y0334199D01*
X0113786Y0333703D01*
X0115905Y0333536D01*
X0118025Y0333703D01*
X0120092Y0334199D01*
X0122055Y0335013D01*
X0123868Y0336123D01*
X0125484Y0337504D01*
X0126865Y033912D01*
X0127975Y0340933D01*
X0128789Y0342897D01*
X0129285Y0344964D01*
X0129452Y0347083D01*
X0129285Y0349202D01*
X0128789Y0351269D01*
X0127975Y0353233D01*
X0126865Y0355045D01*
X0125484Y0356662D01*
X0123868Y0358042D01*
X0122245Y0359037D01*
X0122386Y0359537D01*
X0168714D01*
Y0329366D01*
X0168815Y0328859D01*
X0169102Y0328429D01*
X0169532Y0328142D01*
X0170039Y0328041D01*
X0253701D01*
X0254208Y0328142D01*
X0254638Y0328429D01*
X0254925Y0328859D01*
X0255026Y0329366D01*
Y0359537D01*
X0302339D01*
X030248Y0359037D01*
D02*
G37*
G36*
X0294674Y0197601D02*
Y0141549D01*
X0287063Y0133937D01*
X0286775Y0133507D01*
X0286674Y0133D01*
Y0125669D01*
X0284231Y0123225D01*
X0252573D01*
X0252382Y0123687D01*
X0255937Y0127243D01*
X0256225Y0127673D01*
X0256326Y012818D01*
Y0185451D01*
X0263949Y0193075D01*
X0288946D01*
X0289453Y0193175D01*
X0289883Y0193463D01*
X0294213Y0197792D01*
X0294674Y0197601D01*
D02*
G37*
G36*
X0310522Y012949D02*
X0312184Y0129092D01*
X0313762Y0128438D01*
X0315219Y0127545D01*
X0316518Y0126435D01*
X0317628Y0125136D01*
X031852Y0123679D01*
X0319174Y0122101D01*
X0319573Y012044D01*
X0319707Y0118736D01*
X0319573Y0117033D01*
X0319174Y0115372D01*
X031852Y0113793D01*
X0317628Y0112336D01*
X0316518Y0111037D01*
X0315219Y0109927D01*
X0313762Y0109035D01*
X0312184Y0108381D01*
X0310522Y0107982D01*
X0308819Y0107848D01*
X0307116Y0107982D01*
X0305454Y0108381D01*
X0303876Y0109035D01*
X0302419Y0109927D01*
X030112Y0111037D01*
X030001Y0112336D01*
X0299117Y0113793D01*
X0298464Y0115372D01*
X0298065Y0117033D01*
X0297931Y0118736D01*
X0298065Y012044D01*
X0298464Y0122101D01*
X0299117Y0123679D01*
X030001Y0125136D01*
X030112Y0126435D01*
X0302419Y0127545D01*
X0303876Y0128438D01*
X0305454Y0129092D01*
X0307116Y012949D01*
X0308819Y0129624D01*
X0310522Y012949D01*
D02*
G37*
G36*
X0117609D02*
X011927Y0129092D01*
X0120849Y0128438D01*
X0122306Y0127545D01*
X0123605Y0126435D01*
X0124714Y0125136D01*
X0125607Y0123679D01*
X0126261Y0122101D01*
X012666Y012044D01*
X0126794Y0118736D01*
X012666Y0117033D01*
X0126261Y0115372D01*
X0125607Y0113793D01*
X0124714Y0112336D01*
X0123605Y0111037D01*
X0122306Y0109927D01*
X0120849Y0109035D01*
X011927Y0108381D01*
X0117609Y0107982D01*
X0115905Y0107848D01*
X0114202Y0107982D01*
X0112541Y0108381D01*
X0110962Y0109035D01*
X0109505Y0109927D01*
X0108206Y0111037D01*
X0107097Y0112336D01*
X0106204Y0113793D01*
X010555Y0115372D01*
X0105151Y0117033D01*
X0105017Y0118736D01*
X0105151Y012044D01*
X010555Y0122101D01*
X0106204Y0123679D01*
X0107097Y0125136D01*
X0108206Y0126435D01*
X0109505Y0127545D01*
X0110962Y0128438D01*
X0112541Y0129092D01*
X0114202Y012949D01*
X0115905Y0129624D01*
X0117609Y012949D01*
D02*
G37*
G36*
X0321273Y0340602D02*
Y0332309D01*
X0320773Y0332101D01*
X0319775Y0333099D01*
X0319345Y0333387D01*
X0318838Y0333488D01*
X0312183D01*
X0312124Y0333988D01*
X0313005Y0334199D01*
X0314969Y0335013D01*
X0316781Y0336123D01*
X0318398Y0337504D01*
X0319778Y033912D01*
X0320773Y0340743D01*
X0321273Y0340602D01*
D02*
G37*
G36*
X0117609Y0357837D02*
X011927Y0357438D01*
X0120849Y0356784D01*
X0122306Y0355891D01*
X0123605Y0354782D01*
X0124714Y0353483D01*
X0125607Y0352026D01*
X0126261Y0350447D01*
X012666Y0348786D01*
X0126794Y0347083D01*
X012666Y0345379D01*
X0126261Y0343718D01*
X0125607Y034214D01*
X0124714Y0340683D01*
X0123605Y0339384D01*
X0122306Y0338274D01*
X0120849Y0337381D01*
X011927Y0336727D01*
X0117609Y0336328D01*
X0115905Y0336194D01*
X0114202Y0336328D01*
X0112541Y0336727D01*
X0110962Y0337381D01*
X0109505Y0338274D01*
X0108206Y0339384D01*
X0107097Y0340683D01*
X0106204Y034214D01*
X010555Y0343718D01*
X0105151Y0345379D01*
X0105017Y0347083D01*
X0105151Y0348786D01*
X010555Y0350447D01*
X0106204Y0352026D01*
X0107097Y0353483D01*
X0108206Y0354782D01*
X0109505Y0355891D01*
X0110962Y0356784D01*
X0112541Y0357438D01*
X0114202Y0357837D01*
X0115905Y0357971D01*
X0117609Y0357837D01*
D02*
G37*
%LPC*%
G36*
X0283055Y0302461D02*
X028098D01*
Y02995D01*
X0283055D01*
Y0302461D01*
D02*
G37*
G36*
X027998D02*
X0277906D01*
Y02995D01*
X027998D01*
Y0302461D01*
D02*
G37*
G36*
Y03085D02*
X0277906D01*
Y0305539D01*
X027998D01*
Y03085D01*
D02*
G37*
G36*
X0283055Y0292461D02*
X028098D01*
Y02895D01*
X0283055D01*
Y0292461D01*
D02*
G37*
G36*
X027998D02*
X0277906D01*
Y02895D01*
X027998D01*
Y0292461D01*
D02*
G37*
G36*
X0283055Y02885D02*
X028098D01*
Y0285539D01*
X0283055D01*
Y02885D01*
D02*
G37*
G36*
Y02985D02*
X028098D01*
Y0295539D01*
X0283055D01*
Y02985D01*
D02*
G37*
G36*
X027998D02*
X0277906D01*
Y0295539D01*
X027998D01*
Y02985D01*
D02*
G37*
G36*
X0283055Y0312461D02*
X028098D01*
Y03095D01*
X0283055D01*
Y0312461D01*
D02*
G37*
G36*
X027998D02*
X0277906D01*
Y03095D01*
X027998D01*
Y0312461D01*
D02*
G37*
G36*
Y03185D02*
X0277906D01*
Y0315539D01*
X027998D01*
Y03185D01*
D02*
G37*
G36*
X0283055Y03085D02*
X028098D01*
Y0305539D01*
X0283055D01*
Y03085D01*
D02*
G37*
G36*
X027998Y02885D02*
X0277906D01*
Y0285539D01*
X027998D01*
Y02885D01*
D02*
G37*
G36*
Y02785D02*
X0277906D01*
Y0275539D01*
X027998D01*
Y02785D01*
D02*
G37*
G36*
X0283055Y0282461D02*
X028098D01*
Y02795D01*
X0283055D01*
Y0282461D01*
D02*
G37*
G36*
X027998D02*
X0277906D01*
Y02795D01*
X027998D01*
Y0282461D01*
D02*
G37*
G36*
X0283055Y02785D02*
X028098D01*
Y0275539D01*
X0283055D01*
Y02785D01*
D02*
G37*
G36*
X027998Y02685D02*
X0277906D01*
Y0265539D01*
X027998D01*
Y02685D01*
D02*
G37*
G36*
Y0272461D02*
X0277906D01*
Y02695D01*
X027998D01*
Y0272461D01*
D02*
G37*
G36*
X0283055D02*
X028098D01*
Y02695D01*
X0283055D01*
Y0272461D01*
D02*
G37*
G36*
X0303819Y0271695D02*
X0302839Y0271566D01*
X0301926Y0271187D01*
X0301142Y0270586D01*
X0300541Y0269802D01*
X0300163Y0268889D01*
X0300034Y0267909D01*
X0300163Y026693D01*
X0300541Y0266017D01*
X0301142Y0265233D01*
X0301926Y0264631D01*
X0302839Y0264253D01*
X0303819Y0264124D01*
X0304799Y0264253D01*
X0305712Y0264631D01*
X0306495Y0265233D01*
X0307097Y0266017D01*
X0307475Y026693D01*
X0307604Y0267909D01*
X0307475Y0268889D01*
X0307097Y0269802D01*
X0306495Y0270586D01*
X0305712Y0271187D01*
X0304799Y0271566D01*
X0303819Y0271695D01*
D02*
G37*
G36*
X031774Y0267409D02*
X0314319D01*
Y0263988D01*
X0314851Y0264058D01*
X0315812Y0264457D01*
X0316638Y026509D01*
X0317272Y0265916D01*
X031767Y0266878D01*
X031774Y0267409D01*
D02*
G37*
G36*
X0313319D02*
X0309898D01*
X0309968Y0266878D01*
X0310366Y0265916D01*
X0311Y026509D01*
X0311825Y0264457D01*
X0312787Y0264058D01*
X0313319Y0263988D01*
Y0267409D01*
D02*
G37*
G36*
X0313819Y0281695D02*
X0312839Y0281566D01*
X0311926Y0281188D01*
X0311142Y0280586D01*
X0310541Y0279802D01*
X0310163Y0278889D01*
X0310034Y0277909D01*
X0310163Y027693D01*
X0310541Y0276017D01*
X0311142Y0275233D01*
X0311926Y0274631D01*
X0312839Y0274253D01*
X0313819Y0274124D01*
X0314799Y0274253D01*
X0315711Y0274631D01*
X0316495Y0275233D01*
X0317097Y0276017D01*
X0317475Y027693D01*
X0317604Y0277909D01*
X0317475Y0278889D01*
X0317097Y0279802D01*
X0316495Y0280586D01*
X0315711Y0281188D01*
X0314799Y0281566D01*
X0313819Y0281695D01*
D02*
G37*
G36*
X0314319Y0271831D02*
Y0268409D01*
X031774D01*
X031767Y0268941D01*
X0317272Y0269903D01*
X0316638Y0270729D01*
X0315812Y0271362D01*
X0314851Y027176D01*
X0314319Y0271831D01*
D02*
G37*
G36*
X0313319D02*
X0312787Y027176D01*
X0311825Y0271362D01*
X0311Y0270729D01*
X0310366Y0269903D01*
X0309968Y0268941D01*
X0309898Y0268409D01*
X0313319D01*
Y0271831D01*
D02*
G37*
G36*
X0314319Y031183D02*
Y0308409D01*
X031774D01*
X031767Y0308941D01*
X0317272Y0309903D01*
X0316638Y0310729D01*
X0315812Y0311362D01*
X0314851Y031176D01*
X0314319Y031183D01*
D02*
G37*
G36*
X0313319D02*
X0312787Y031176D01*
X0311825Y0311362D01*
X0311Y0310729D01*
X0310366Y0309903D01*
X0309968Y0308941D01*
X0309898Y0308409D01*
X0313319D01*
Y031183D01*
D02*
G37*
G36*
X0308819Y0353326D02*
X0307601Y0353206D01*
X030643Y0352851D01*
X030535Y0352274D01*
X0304404Y0351497D01*
X0303628Y0350551D01*
X0303051Y0349472D01*
X0302695Y0348301D01*
X0302575Y0347083D01*
X0302695Y0345865D01*
X0303051Y0344693D01*
X0303628Y0343614D01*
X0304404Y0342668D01*
X030535Y0341891D01*
X030643Y0341315D01*
X0307601Y0340959D01*
X0308819Y0340839D01*
X0310037Y0340959D01*
X0311208Y0341315D01*
X0312288Y0341891D01*
X0313234Y0342668D01*
X031401Y0343614D01*
X0314587Y0344693D01*
X0314942Y0345865D01*
X0315062Y0347083D01*
X0314942Y0348301D01*
X0314587Y0349472D01*
X031401Y0350551D01*
X0313234Y0351497D01*
X0312288Y0352274D01*
X0311208Y0352851D01*
X0310037Y0353206D01*
X0308819Y0353326D01*
D02*
G37*
G36*
X030774Y0207409D02*
X0304319D01*
Y0203988D01*
X0304851Y0204058D01*
X0305812Y0204457D01*
X0306638Y020509D01*
X0307272Y0205916D01*
X030767Y0206878D01*
X030774Y0207409D01*
D02*
G37*
G36*
X0313819Y0211695D02*
X0312839Y0211566D01*
X0311926Y0211188D01*
X0311142Y0210586D01*
X0310541Y0209802D01*
X0310163Y0208889D01*
X0310034Y0207909D01*
X0310163Y020693D01*
X0310541Y0206017D01*
X0311142Y0205233D01*
X0311926Y0204631D01*
X0312839Y0204253D01*
X0313819Y0204124D01*
X0314799Y0204253D01*
X0315711Y0204631D01*
X0316495Y0205233D01*
X0317097Y0206017D01*
X0317475Y020693D01*
X0317604Y0207909D01*
X0317475Y0208889D01*
X0317097Y0209802D01*
X0316495Y0210586D01*
X0315711Y0211188D01*
X0314799Y0211566D01*
X0313819Y0211695D01*
D02*
G37*
G36*
X0122Y0217332D02*
X0120553Y0217141D01*
X0119204Y0216583D01*
X0118046Y0215694D01*
X0117157Y0214536D01*
X0116599Y0213187D01*
X0116408Y021174D01*
X0116599Y0210293D01*
X0117157Y0208944D01*
X0118046Y0207786D01*
X0119204Y0206897D01*
X0120553Y0206339D01*
X0122Y0206148D01*
X0123447Y0206339D01*
X0124796Y0206897D01*
X0125954Y0207786D01*
X0126843Y0208944D01*
X0127401Y0210293D01*
X0127592Y021174D01*
X0127401Y0213187D01*
X0126843Y0214536D01*
X0125954Y0215694D01*
X0124796Y0216583D01*
X0123447Y0217141D01*
X0122Y0217332D01*
D02*
G37*
G36*
X0150323Y0194964D02*
X0144075D01*
Y0191964D01*
X0150323D01*
Y0194964D01*
D02*
G37*
G36*
X0143075D02*
X0136827D01*
Y0191964D01*
X0143075D01*
Y0194964D01*
D02*
G37*
G36*
X0314319Y0191831D02*
Y0188409D01*
X031774D01*
X031767Y0188941D01*
X0317272Y0189903D01*
X0316638Y0190729D01*
X0315812Y0191362D01*
X0314851Y019176D01*
X0314319Y0191831D01*
D02*
G37*
G36*
X0303819Y0201695D02*
X0302839Y0201566D01*
X0301926Y0201187D01*
X0301142Y0200586D01*
X0300541Y0199802D01*
X0300163Y0198889D01*
X0300034Y0197909D01*
X0300163Y019693D01*
X0300541Y0196017D01*
X0301142Y0195233D01*
X0301926Y0194631D01*
X0302839Y0194253D01*
X0303819Y0194124D01*
X0304799Y0194253D01*
X0305712Y0194631D01*
X0306495Y0195233D01*
X0307097Y0196017D01*
X0307475Y019693D01*
X0307604Y0197909D01*
X0307475Y0198889D01*
X0307097Y0199802D01*
X0306495Y0200586D01*
X0305712Y0201187D01*
X0304799Y0201566D01*
X0303819Y0201695D01*
D02*
G37*
G36*
X0303319Y0207409D02*
X0299898D01*
X0299968Y0206878D01*
X0300366Y0205916D01*
X0301Y020509D01*
X0301825Y0204457D01*
X0302787Y0204058D01*
X0303319Y0203988D01*
Y0207409D01*
D02*
G37*
G36*
X0285067Y0206756D02*
X02825D01*
Y02035D01*
X0285067D01*
Y0206756D01*
D02*
G37*
G36*
X0313819Y0201695D02*
X0312839Y0201566D01*
X0311926Y0201187D01*
X0311142Y0200586D01*
X0310541Y0199802D01*
X0310163Y0198889D01*
X0310034Y0197909D01*
X0310163Y019693D01*
X0310541Y0196017D01*
X0311142Y0195233D01*
X0311926Y0194631D01*
X0312839Y0194253D01*
X0313819Y0194124D01*
X0314799Y0194253D01*
X0315711Y0194631D01*
X0316495Y0195233D01*
X0317097Y0196017D01*
X0317475Y019693D01*
X0317604Y0197909D01*
X0317475Y0198889D01*
X0317097Y0199802D01*
X0316495Y0200586D01*
X0315711Y0201187D01*
X0314799Y0201566D01*
X0313819Y0201695D01*
D02*
G37*
G36*
X0122Y023223D02*
X0120553Y0232039D01*
X0119204Y0231481D01*
X0118046Y0230592D01*
X0117157Y0229434D01*
X0116599Y0228085D01*
X0116408Y0226638D01*
X0116599Y0225191D01*
X0117157Y0223842D01*
X0118046Y0222684D01*
X0119204Y0221795D01*
X0120553Y0221237D01*
X0122Y0221046D01*
X0123447Y0221237D01*
X0124796Y0221795D01*
X0125954Y0222684D01*
X0126843Y0223842D01*
X0127401Y0225191D01*
X0127592Y0226638D01*
X0127401Y0228085D01*
X0126843Y0229434D01*
X0125954Y0230592D01*
X0124796Y0231481D01*
X0123447Y0232039D01*
X0122Y023223D01*
D02*
G37*
G36*
X0313819Y0231695D02*
X0312839Y0231566D01*
X0311926Y0231188D01*
X0311142Y0230586D01*
X0310541Y0229802D01*
X0310163Y0228889D01*
X0310034Y0227909D01*
X0310163Y022693D01*
X0310541Y0226017D01*
X0311142Y0225233D01*
X0311926Y0224631D01*
X0312839Y0224253D01*
X0313819Y0224124D01*
X0314799Y0224253D01*
X0315711Y0224631D01*
X0316495Y0225233D01*
X0317097Y0226017D01*
X0317475Y022693D01*
X0317604Y0227909D01*
X0317475Y0228889D01*
X0317097Y0229802D01*
X0316495Y0230586D01*
X0315711Y0231188D01*
X0314799Y0231566D01*
X0313819Y0231695D01*
D02*
G37*
G36*
X0285169Y02225D02*
X0282602D01*
Y0219244D01*
X0285169D01*
Y02225D01*
D02*
G37*
G36*
X0282602Y0226756D02*
Y02235D01*
X0285169D01*
Y0226756D01*
X0282602D01*
D02*
G37*
G36*
X0303819Y0231695D02*
X0302839Y0231566D01*
X0301926Y0231188D01*
X0301142Y0230586D01*
X0300541Y0229802D01*
X0300163Y0228889D01*
X0300034Y0227909D01*
X0300163Y022693D01*
X0300541Y0226017D01*
X0301142Y0225233D01*
X0301926Y0224631D01*
X0302839Y0224253D01*
X0303819Y0224124D01*
X0304799Y0224253D01*
X0305712Y0224631D01*
X0306495Y0225233D01*
X0307097Y0226017D01*
X0307475Y022693D01*
X0307604Y0227909D01*
X0307475Y0228889D01*
X0307097Y0229802D01*
X0306495Y0230586D01*
X0305712Y0231188D01*
X0304799Y0231566D01*
X0303819Y0231695D01*
D02*
G37*
G36*
X0205969Y02275D02*
X02025D01*
Y0224031D01*
X0203044Y0224103D01*
X0204017Y0224506D01*
X0204853Y0225147D01*
X0205494Y0225983D01*
X0205897Y0226956D01*
X0205969Y02275D01*
D02*
G37*
G36*
X02015D02*
X0198031D01*
X0198103Y0226956D01*
X0198506Y0225983D01*
X0199147Y0225147D01*
X0199983Y0224506D01*
X0200956Y0224103D01*
X02015Y0224031D01*
Y02275D01*
D02*
G37*
G36*
X0313819Y0221695D02*
X0312839Y0221566D01*
X0311926Y0221187D01*
X0311142Y0220586D01*
X0310541Y0219802D01*
X0310163Y0218889D01*
X0310034Y0217909D01*
X0310163Y021693D01*
X0310541Y0216017D01*
X0311142Y0215233D01*
X0311926Y0214631D01*
X0312839Y0214253D01*
X0313819Y0214124D01*
X0314799Y0214253D01*
X0315711Y0214631D01*
X0316495Y0215233D01*
X0317097Y0216017D01*
X0317475Y021693D01*
X0317604Y0217909D01*
X0317475Y0218889D01*
X0317097Y0219802D01*
X0316495Y0220586D01*
X0315711Y0221187D01*
X0314799Y0221566D01*
X0313819Y0221695D01*
D02*
G37*
G36*
X0285169Y02125D02*
X0282602D01*
Y0209244D01*
X0285169D01*
Y02125D01*
D02*
G37*
G36*
X0304319Y021183D02*
Y0208409D01*
X030774D01*
X030767Y0208941D01*
X0307272Y0209903D01*
X0306638Y0210729D01*
X0305812Y0211362D01*
X0304851Y021176D01*
X0304319Y021183D01*
D02*
G37*
G36*
X0303319D02*
X0302787Y021176D01*
X0301825Y0211362D01*
X0301Y0210729D01*
X0300366Y0209903D01*
X0299968Y0208941D01*
X0299898Y0208409D01*
X0303319D01*
Y021183D01*
D02*
G37*
G36*
X0282602Y0216756D02*
Y02135D01*
X0285169D01*
Y0216756D01*
X0282602D01*
D02*
G37*
G36*
X0192Y0231833D02*
X0191008Y0231702D01*
X0190084Y0231319D01*
X018929Y023071D01*
X0188681Y0229916D01*
X0188298Y0228992D01*
X0188167Y0228D01*
X0188298Y0227008D01*
X0188681Y0226084D01*
X018929Y022529D01*
X0190084Y0224681D01*
X0191008Y0224298D01*
X0192Y0224167D01*
X0192992Y0224298D01*
X0193916Y0224681D01*
X019471Y022529D01*
X0195319Y0226084D01*
X0195702Y0227008D01*
X0195833Y0228D01*
X0195702Y0228992D01*
X0195319Y0229916D01*
X019471Y023071D01*
X0193916Y0231319D01*
X0192992Y0231702D01*
X0192Y0231833D01*
D02*
G37*
G36*
X0212D02*
X0211008Y0231702D01*
X0210084Y0231319D01*
X020929Y023071D01*
X0208681Y0229916D01*
X0208298Y0228992D01*
X0208167Y0228D01*
X0208298Y0227008D01*
X0208681Y0226084D01*
X020929Y022529D01*
X0210084Y0224681D01*
X0211008Y0224298D01*
X0212Y0224167D01*
X0212992Y0224298D01*
X0213916Y0224681D01*
X021471Y022529D01*
X0215319Y0226084D01*
X0215702Y0227008D01*
X0215833Y0228D01*
X0215702Y0228992D01*
X0215319Y0229916D01*
X021471Y023071D01*
X0213916Y0231319D01*
X0212992Y0231702D01*
X0212Y0231833D01*
D02*
G37*
G36*
X0303819Y0221695D02*
X0302839Y0221566D01*
X0301926Y0221187D01*
X0301142Y0220586D01*
X0300541Y0219802D01*
X0300163Y0218889D01*
X0300034Y0217909D01*
X0300163Y021693D01*
X0300541Y0216017D01*
X0301142Y0215233D01*
X0301926Y0214631D01*
X0302839Y0214253D01*
X0303819Y0214124D01*
X0304799Y0214253D01*
X0305712Y0214631D01*
X0306495Y0215233D01*
X0307097Y0216017D01*
X0307475Y021693D01*
X0307604Y0217909D01*
X0307475Y0218889D01*
X0307097Y0219802D01*
X0306495Y0220586D01*
X0305712Y0221187D01*
X0304799Y0221566D01*
X0303819Y0221695D01*
D02*
G37*
G36*
X0313319Y0191831D02*
X0312787Y019176D01*
X0311825Y0191362D01*
X0311Y0190729D01*
X0310366Y0189903D01*
X0309968Y0188941D01*
X0309898Y0188409D01*
X0313319D01*
Y0191831D01*
D02*
G37*
G36*
X0150323Y0146964D02*
X0144075D01*
Y0143964D01*
X0150323D01*
Y0146964D01*
D02*
G37*
G36*
X0143075D02*
X0136827D01*
Y0143964D01*
X0143075D01*
Y0146964D01*
D02*
G37*
G36*
X0304319Y0141831D02*
Y0138409D01*
X030774D01*
X030767Y0138941D01*
X0307272Y0139903D01*
X0306638Y0140729D01*
X0305812Y0141362D01*
X0304851Y014176D01*
X0304319Y0141831D01*
D02*
G37*
G36*
X0303819Y0151695D02*
X0302839Y0151566D01*
X0301926Y0151188D01*
X0301142Y0150586D01*
X0300541Y0149802D01*
X0300163Y0148889D01*
X0300034Y0147909D01*
X0300163Y014693D01*
X0300541Y0146017D01*
X0301142Y0145233D01*
X0301926Y0144631D01*
X0302839Y0144253D01*
X0303819Y0144124D01*
X0304799Y0144253D01*
X0305712Y0144631D01*
X0306495Y0145233D01*
X0307097Y0146017D01*
X0307475Y014693D01*
X0307604Y0147909D01*
X0307475Y0148889D01*
X0307097Y0149802D01*
X0306495Y0150586D01*
X0305712Y0151188D01*
X0304799Y0151566D01*
X0303819Y0151695D01*
D02*
G37*
G36*
X0150323Y0150964D02*
X0144075D01*
Y0147964D01*
X0150323D01*
Y0150964D01*
D02*
G37*
G36*
X0143075D02*
X0136827D01*
Y0147964D01*
X0143075D01*
Y0150964D01*
D02*
G37*
G36*
X0313819Y0151695D02*
X0312839Y0151566D01*
X0311926Y0151188D01*
X0311142Y0150586D01*
X0310541Y0149802D01*
X0310163Y0148889D01*
X0310034Y0147909D01*
X0310163Y014693D01*
X0310541Y0146017D01*
X0311142Y0145233D01*
X0311926Y0144631D01*
X0312839Y0144253D01*
X0313819Y0144124D01*
X0314799Y0144253D01*
X0315711Y0144631D01*
X0316495Y0145233D01*
X0317097Y0146017D01*
X0317475Y014693D01*
X0317604Y0147909D01*
X0317475Y0148889D01*
X0317097Y0149802D01*
X0316495Y0150586D01*
X0315711Y0151188D01*
X0314799Y0151566D01*
X0313819Y0151695D01*
D02*
G37*
G36*
X0303319Y0141831D02*
X0302787Y014176D01*
X0301825Y0141362D01*
X0301Y0140729D01*
X0300366Y0139903D01*
X0299968Y0138941D01*
X0299898Y0138409D01*
X0303319D01*
Y0141831D01*
D02*
G37*
G36*
X0192Y0131833D02*
X0191008Y0131702D01*
X0190084Y0131319D01*
X018929Y013071D01*
X0188681Y0129916D01*
X0188298Y0128992D01*
X0188167Y0128D01*
X0188298Y0127008D01*
X0188681Y0126084D01*
X018929Y012529D01*
X0190084Y0124681D01*
X0191008Y0124298D01*
X0192Y0124167D01*
X0192992Y0124298D01*
X0193916Y0124681D01*
X019471Y012529D01*
X0195319Y0126084D01*
X0195702Y0127008D01*
X0195833Y0128D01*
X0195702Y0128992D01*
X0195319Y0129916D01*
X019471Y013071D01*
X0193916Y0131319D01*
X0192992Y0131702D01*
X0192Y0131833D01*
D02*
G37*
G36*
X0122Y0144592D02*
X0120553Y0144401D01*
X0119204Y0143843D01*
X0118046Y0142954D01*
X0117157Y0141796D01*
X0116599Y0140447D01*
X0116408Y0139D01*
X0116599Y0137553D01*
X0117157Y0136204D01*
X0118046Y0135046D01*
X0119204Y0134157D01*
X0120553Y0133599D01*
X0122Y0133408D01*
X0123447Y0133599D01*
X0124796Y0134157D01*
X0125954Y0135046D01*
X0126843Y0136204D01*
X0127401Y0137553D01*
X0127592Y0139D01*
X0127401Y0140447D01*
X0126843Y0141796D01*
X0125954Y0142954D01*
X0124796Y0143843D01*
X0123447Y0144401D01*
X0122Y0144592D01*
D02*
G37*
G36*
X0313819Y0141695D02*
X0312839Y0141566D01*
X0311926Y0141188D01*
X0311142Y0140586D01*
X0310541Y0139802D01*
X0310163Y0138889D01*
X0310034Y0137909D01*
X0310163Y013693D01*
X0310541Y0136017D01*
X0311142Y0135233D01*
X0311926Y0134631D01*
X0312839Y0134253D01*
X0313819Y0134124D01*
X0314799Y0134253D01*
X0315711Y0134631D01*
X0316495Y0135233D01*
X0317097Y0136017D01*
X0317475Y013693D01*
X0317604Y0137909D01*
X0317475Y0138889D01*
X0317097Y0139802D01*
X0316495Y0140586D01*
X0315711Y0141188D01*
X0314799Y0141566D01*
X0313819Y0141695D01*
D02*
G37*
G36*
X030774Y0137409D02*
X0304319D01*
Y0133988D01*
X0304851Y0134058D01*
X0305812Y0134457D01*
X0306638Y013509D01*
X0307272Y0135916D01*
X030767Y0136878D01*
X030774Y0137409D01*
D02*
G37*
G36*
X0303319D02*
X0299898D01*
X0299968Y0136878D01*
X0300366Y0135916D01*
X0301Y013509D01*
X0301825Y0134457D01*
X0302787Y0134058D01*
X0303319Y0133988D01*
Y0137409D01*
D02*
G37*
G36*
X0303819Y0161695D02*
X0302839Y0161566D01*
X0301926Y0161188D01*
X0301142Y0160586D01*
X0300541Y0159802D01*
X0300163Y0158889D01*
X0300034Y0157909D01*
X0300163Y015693D01*
X0300541Y0156017D01*
X0301142Y0155233D01*
X0301926Y0154631D01*
X0302839Y0154253D01*
X0303819Y0154124D01*
X0304799Y0154253D01*
X0305712Y0154631D01*
X0306495Y0155233D01*
X0307097Y0156017D01*
X0307475Y015693D01*
X0307604Y0157909D01*
X0307475Y0158889D01*
X0307097Y0159802D01*
X0306495Y0160586D01*
X0305712Y0161188D01*
X0304799Y0161566D01*
X0303819Y0161695D01*
D02*
G37*
G36*
X0313319Y0187409D02*
X0309898D01*
X0309968Y0186878D01*
X0310366Y0185916D01*
X0311Y018509D01*
X0311825Y0184457D01*
X0312787Y0184058D01*
X0313319Y0183988D01*
Y0187409D01*
D02*
G37*
G36*
X0122Y0188592D02*
X0120553Y0188401D01*
X0119204Y0187843D01*
X0118046Y0186954D01*
X0117157Y0185796D01*
X0116599Y0184447D01*
X0116408Y0183D01*
X0116599Y0181553D01*
X0117157Y0180204D01*
X0118046Y0179046D01*
X0119204Y0178157D01*
X0120553Y0177599D01*
X0122Y0177408D01*
X0123447Y0177599D01*
X0124796Y0178157D01*
X0125954Y0179046D01*
X0126843Y0180204D01*
X0127401Y0181553D01*
X0127592Y0183D01*
X0127401Y0184447D01*
X0126843Y0185796D01*
X0125954Y0186954D01*
X0124796Y0187843D01*
X0123447Y0188401D01*
X0122Y0188592D01*
D02*
G37*
G36*
X0313819Y0181695D02*
X0312839Y0181566D01*
X0311926Y0181187D01*
X0311142Y0180586D01*
X0310541Y0179802D01*
X0310163Y0178889D01*
X0310034Y0177909D01*
X0310163Y017693D01*
X0310541Y0176017D01*
X0311142Y0175233D01*
X0311926Y0174631D01*
X0312839Y0174253D01*
X0313819Y0174124D01*
X0314799Y0174253D01*
X0315711Y0174631D01*
X0316495Y0175233D01*
X0317097Y0176017D01*
X0317475Y017693D01*
X0317604Y0177909D01*
X0317475Y0178889D01*
X0317097Y0179802D01*
X0316495Y0180586D01*
X0315711Y0181187D01*
X0314799Y0181566D01*
X0313819Y0181695D01*
D02*
G37*
G36*
X031774Y0187409D02*
X0314319D01*
Y0183988D01*
X0314851Y0184058D01*
X0315812Y0184457D01*
X0316638Y018509D01*
X0317272Y0185916D01*
X031767Y0186878D01*
X031774Y0187409D01*
D02*
G37*
G36*
X0150323Y0190964D02*
X0144075D01*
Y0187964D01*
X0150323D01*
Y0190964D01*
D02*
G37*
G36*
X0143075D02*
X0136827D01*
Y0187964D01*
X0143075D01*
Y0190964D01*
D02*
G37*
G36*
X0303819Y0191695D02*
X0302839Y0191566D01*
X0301926Y0191188D01*
X0301142Y0190586D01*
X0300541Y0189802D01*
X0300163Y0188889D01*
X0300034Y0187909D01*
X0300163Y018693D01*
X0300541Y0186017D01*
X0301142Y0185233D01*
X0301926Y0184631D01*
X0302839Y0184253D01*
X0303819Y0184124D01*
X0304799Y0184253D01*
X0305712Y0184631D01*
X0306495Y0185233D01*
X0307097Y0186017D01*
X0307475Y018693D01*
X0307604Y0187909D01*
X0307475Y0188889D01*
X0307097Y0189802D01*
X0306495Y0190586D01*
X0305712Y0191188D01*
X0304799Y0191566D01*
X0303819Y0191695D01*
D02*
G37*
G36*
Y0181695D02*
X0302839Y0181566D01*
X0301926Y0181187D01*
X0301142Y0180586D01*
X0300541Y0179802D01*
X0300163Y0178889D01*
X0300034Y0177909D01*
X0300163Y017693D01*
X0300541Y0176017D01*
X0301142Y0175233D01*
X0301926Y0174631D01*
X0302839Y0174253D01*
X0303819Y0174124D01*
X0304799Y0174253D01*
X0305712Y0174631D01*
X0306495Y0175233D01*
X0307097Y0176017D01*
X0307475Y017693D01*
X0307604Y0177909D01*
X0307475Y0178889D01*
X0307097Y0179802D01*
X0306495Y0180586D01*
X0305712Y0181187D01*
X0304799Y0181566D01*
X0303819Y0181695D01*
D02*
G37*
G36*
X0313319Y0167409D02*
X0309898D01*
X0309968Y0166878D01*
X0310366Y0165916D01*
X0311Y016509D01*
X0311825Y0164457D01*
X0312787Y0164058D01*
X0313319Y0163988D01*
Y0167409D01*
D02*
G37*
G36*
X0122Y0173332D02*
X0120553Y0173141D01*
X0119204Y0172583D01*
X0118046Y0171694D01*
X0117157Y0170536D01*
X0116599Y0169187D01*
X0116408Y016774D01*
X0116599Y0166293D01*
X0117157Y0164944D01*
X0118046Y0163786D01*
X0119204Y0162897D01*
X0120553Y0162339D01*
X0122Y0162148D01*
X0123447Y0162339D01*
X0124796Y0162897D01*
X0125954Y0163786D01*
X0126843Y0164944D01*
X0127401Y0166293D01*
X0127592Y016774D01*
X0127401Y0169187D01*
X0126843Y0170536D01*
X0125954Y0171694D01*
X0124796Y0172583D01*
X0123447Y0173141D01*
X0122Y0173332D01*
D02*
G37*
G36*
X0313819Y0161695D02*
X0312839Y0161566D01*
X0311926Y0161188D01*
X0311142Y0160586D01*
X0310541Y0159802D01*
X0310163Y0158889D01*
X0310034Y0157909D01*
X0310163Y015693D01*
X0310541Y0156017D01*
X0311142Y0155233D01*
X0311926Y0154631D01*
X0312839Y0154253D01*
X0313819Y0154124D01*
X0314799Y0154253D01*
X0315711Y0154631D01*
X0316495Y0155233D01*
X0317097Y0156017D01*
X0317475Y015693D01*
X0317604Y0157909D01*
X0317475Y0158889D01*
X0317097Y0159802D01*
X0316495Y0160586D01*
X0315711Y0161188D01*
X0314799Y0161566D01*
X0313819Y0161695D01*
D02*
G37*
G36*
X031774Y0167409D02*
X0314319D01*
Y0163988D01*
X0314851Y0164058D01*
X0315812Y0164457D01*
X0316638Y016509D01*
X0317272Y0165916D01*
X031767Y0166878D01*
X031774Y0167409D01*
D02*
G37*
G36*
X0314319Y017183D02*
Y0168409D01*
X031774D01*
X031767Y0168941D01*
X0317272Y0169903D01*
X0316638Y0170729D01*
X0315812Y0171362D01*
X0314851Y017176D01*
X0314319Y017183D01*
D02*
G37*
G36*
X0313319D02*
X0312787Y017176D01*
X0311825Y0171362D01*
X0311Y0170729D01*
X0310366Y0169903D01*
X0309968Y0168941D01*
X0309898Y0168409D01*
X0313319D01*
Y017183D01*
D02*
G37*
G36*
X0303819Y0171695D02*
X0302839Y0171566D01*
X0301926Y0171187D01*
X0301142Y0170586D01*
X0300541Y0169802D01*
X0300163Y0168889D01*
X0300034Y0167909D01*
X0300163Y016693D01*
X0300541Y0166017D01*
X0301142Y0165233D01*
X0301926Y0164631D01*
X0302839Y0164253D01*
X0303819Y0164124D01*
X0304799Y0164253D01*
X0305712Y0164631D01*
X0306495Y0165233D01*
X0307097Y0166017D01*
X0307475Y016693D01*
X0307604Y0167909D01*
X0307475Y0168889D01*
X0307097Y0169802D01*
X0306495Y0170586D01*
X0305712Y0171187D01*
X0304799Y0171566D01*
X0303819Y0171695D01*
D02*
G37*
G36*
X0222Y0231833D02*
X0221008Y0231702D01*
X0220084Y0231319D01*
X021929Y023071D01*
X0218681Y0229916D01*
X0218298Y0228992D01*
X0218167Y0228D01*
X0218298Y0227008D01*
X0218681Y0226084D01*
X021929Y022529D01*
X0220084Y0224681D01*
X0221008Y0224298D01*
X0222Y0224167D01*
X0222992Y0224298D01*
X0223916Y0224681D01*
X022471Y022529D01*
X0225319Y0226084D01*
X0225702Y0227008D01*
X0225833Y0228D01*
X0225702Y0228992D01*
X0225319Y0229916D01*
X022471Y023071D01*
X0223916Y0231319D01*
X0222992Y0231702D01*
X0222Y0231833D01*
D02*
G37*
G36*
X0146311Y0301397D02*
Y0295996D01*
X0151712D01*
X0151647Y0296657D01*
X0151308Y0297773D01*
X0150758Y0298802D01*
X0150018Y0299703D01*
X0149117Y0300443D01*
X0148088Y0300993D01*
X0146972Y0301332D01*
X0146311Y0301397D01*
D02*
G37*
G36*
X0205055Y03065D02*
X0202882D01*
Y0303244D01*
X0205055D01*
Y03065D01*
D02*
G37*
G36*
X0214918Y0310556D02*
Y0310556D01*
X0209972D01*
Y0303444D01*
X0214918D01*
Y0303444D01*
X0215145Y0303739D01*
X0219895D01*
Y0310261D01*
X0215145D01*
X0214918Y0310556D01*
D02*
G37*
G36*
X0208228Y03065D02*
X0206055D01*
Y0303244D01*
X0208228D01*
Y03065D01*
D02*
G37*
G36*
X0145311Y0301397D02*
X014465Y0301332D01*
X0143534Y0300993D01*
X0142505Y0300443D01*
X0141604Y0299703D01*
X0140864Y0298802D01*
X0140314Y0297773D01*
X0139975Y0296657D01*
X013991Y0295996D01*
X0145311D01*
Y0301397D01*
D02*
G37*
G36*
Y0294996D02*
X013991D01*
X0139975Y0294335D01*
X0140314Y0293219D01*
X0140864Y0292191D01*
X0141604Y0291289D01*
X0142505Y0290549D01*
X0143534Y0289999D01*
X014465Y0289661D01*
X0145311Y0289595D01*
Y0294996D01*
D02*
G37*
G36*
X0151712D02*
X0146311D01*
Y0289595D01*
X0146972Y0289661D01*
X0148088Y0289999D01*
X0149117Y0290549D01*
X0150018Y0291289D01*
X0150758Y0292191D01*
X0151308Y0293219D01*
X0151647Y0294335D01*
X0151712Y0294996D01*
D02*
G37*
G36*
X01335Y0319901D02*
X0132839Y0319836D01*
X0131723Y0319497D01*
X0130694Y0318947D01*
X0129793Y0318207D01*
X0129053Y0317306D01*
X0128503Y0316277D01*
X0128164Y0315161D01*
X0128099Y03145D01*
X01335D01*
Y0319901D01*
D02*
G37*
G36*
X01345D02*
Y03145D01*
X0139901D01*
X0139836Y0315161D01*
X0139497Y0316277D01*
X0138947Y0317306D01*
X0138207Y0318207D01*
X0137306Y0318947D01*
X0136277Y0319497D01*
X0135161Y0319836D01*
X01345Y0319901D01*
D02*
G37*
G36*
X0208228Y0310756D02*
X0206055D01*
Y03075D01*
X0208228D01*
Y0310756D01*
D02*
G37*
G36*
X0205055D02*
X0202882D01*
Y03075D01*
X0205055D01*
Y0310756D01*
D02*
G37*
G36*
X01335Y03135D02*
X0128099D01*
X0128164Y0312839D01*
X0128503Y0311723D01*
X0129053Y0310694D01*
X0129793Y0309793D01*
X0130694Y0309053D01*
X0131723Y0308503D01*
X0132839Y0308164D01*
X01335Y0308099D01*
Y03135D01*
D02*
G37*
G36*
X0145622Y0329328D02*
X0128D01*
X0127138Y0329215D01*
X0126668Y032902D01*
X0126336Y0328883D01*
X0125646Y0328354D01*
X0108646Y0311354D01*
X0108117Y0310664D01*
X010798Y0310332D01*
X0107785Y0309861D01*
X0107671Y0309D01*
Y0255D01*
X0107785Y0254138D01*
X010798Y0253668D01*
X0108117Y0253336D01*
X0108646Y0252646D01*
X0128544Y0232748D01*
X0129234Y023222D01*
X0129566Y0232082D01*
X0130036Y0231887D01*
X0130898Y0231773D01*
X0143575D01*
X0143791Y0231802D01*
X0150123D01*
Y0238402D01*
X0143791D01*
X0143575Y0238431D01*
X0132277D01*
X0114329Y0256379D01*
Y0307621D01*
X0129379Y0322672D01*
X0144243D01*
X0151975Y031494D01*
X0151851Y0314D01*
X0152048Y0312506D01*
X0152624Y0311115D01*
X0153542Y030992D01*
X0154737Y0309002D01*
X0156129Y0308426D01*
X0157622Y0308229D01*
X0159116Y0308426D01*
X0160507Y0309002D01*
X0161703Y030992D01*
X016262Y0311115D01*
X0163196Y0312506D01*
X0163393Y0314D01*
X0163196Y0315494D01*
X016262Y0316885D01*
X0161703Y031808D01*
X0160507Y0318998D01*
X0159116Y0319574D01*
X0157622Y0319771D01*
X0156682Y0319647D01*
X0147976Y0328354D01*
X0147286Y0328883D01*
X0146954Y032902D01*
X0146484Y0329215D01*
X0145622Y0329328D01*
D02*
G37*
G36*
X0139901Y03135D02*
X01345D01*
Y0308099D01*
X0135161Y0308164D01*
X0136277Y0308503D01*
X0137306Y0309053D01*
X0138207Y0309793D01*
X0138947Y0310694D01*
X0139497Y0311723D01*
X0139836Y0312839D01*
X0139901Y03135D01*
D02*
G37*
G36*
X0178909Y0260661D02*
X0176461D01*
Y0259364D01*
X0178909D01*
Y0260661D01*
D02*
G37*
G36*
X0182754Y024727D02*
X0180305D01*
Y0245972D01*
X0182754D01*
Y024727D01*
D02*
G37*
G36*
X0179305D02*
X0176856D01*
Y0245972D01*
X0179305D01*
Y024727D01*
D02*
G37*
G36*
X0182358Y0260661D02*
X0179909D01*
Y0259364D01*
X0182358D01*
Y0260661D01*
D02*
G37*
G36*
X0314319Y024183D02*
Y0238409D01*
X031774D01*
X031767Y0238941D01*
X0317272Y0239903D01*
X0316638Y0240729D01*
X0315812Y0241362D01*
X0314851Y024176D01*
X0314319Y024183D01*
D02*
G37*
G36*
X0313319Y0237409D02*
X0309898D01*
X0309968Y0236878D01*
X0310366Y0235916D01*
X0311Y023509D01*
X0311825Y0234457D01*
X0312787Y0234058D01*
X0313319Y0233988D01*
Y0237409D01*
D02*
G37*
G36*
X02025Y0231969D02*
Y02285D01*
X0205969D01*
X0205897Y0229044D01*
X0205494Y0230017D01*
X0204853Y0230853D01*
X0204017Y0231494D01*
X0203044Y0231897D01*
X02025Y0231969D01*
D02*
G37*
G36*
X02015D02*
X0200956Y0231897D01*
X0199983Y0231494D01*
X0199147Y0230853D01*
X0198506Y0230017D01*
X0198103Y0229044D01*
X0198031Y02285D01*
X02015D01*
Y0231969D01*
D02*
G37*
G36*
X031774Y0237409D02*
X0314319D01*
Y0233988D01*
X0314851Y0234058D01*
X0315812Y0234457D01*
X0316638Y023509D01*
X0317272Y0235916D01*
X031767Y0236878D01*
X031774Y0237409D01*
D02*
G37*
G36*
X0313319Y024183D02*
X0312787Y024176D01*
X0311825Y0241362D01*
X0311Y0240729D01*
X0310366Y0239903D01*
X0309968Y0238941D01*
X0309898Y0238409D01*
X0313319D01*
Y024183D01*
D02*
G37*
G36*
X0244464Y02385D02*
X02415D01*
Y0235536D01*
X0241914Y023559D01*
X0242765Y0235943D01*
X0243496Y0236504D01*
X0244057Y0237235D01*
X024441Y0238086D01*
X0244464Y02385D01*
D02*
G37*
G36*
X02405D02*
X0237536D01*
X023759Y0238086D01*
X0237943Y0237235D01*
X0238504Y0236504D01*
X0239235Y0235943D01*
X0240086Y023559D01*
X02405Y0235536D01*
Y02385D01*
D02*
G37*
G36*
X0201866Y0276516D02*
X0201707Y0276485D01*
X0201149Y0276111D01*
X0200775Y0275553D01*
X0200644Y0274894D01*
Y0273622D01*
X0201866D01*
Y0276516D01*
D02*
G37*
G36*
X0122Y0284592D02*
X0120553Y0284401D01*
X0119204Y0283843D01*
X0118046Y0282954D01*
X0117157Y0281796D01*
X0116599Y0280447D01*
X0116408Y0279D01*
X0116599Y0277553D01*
X0117157Y0276204D01*
X0118046Y0275046D01*
X0119204Y0274157D01*
X0120553Y0273599D01*
X0122Y0273408D01*
X0123447Y0273599D01*
X0124796Y0274157D01*
X0125954Y0275046D01*
X0126843Y0276204D01*
X0127401Y0277553D01*
X0127592Y0279D01*
X0127401Y0280447D01*
X0126843Y0281796D01*
X0125954Y0282954D01*
X0124796Y0283843D01*
X0123447Y0284401D01*
X0122Y0284592D01*
D02*
G37*
G36*
X0182358Y0274661D02*
X0179909D01*
Y0273364D01*
X0182358D01*
Y0274661D01*
D02*
G37*
G36*
X0178909D02*
X0176461D01*
Y0273364D01*
X0178909D01*
Y0274661D01*
D02*
G37*
G36*
X0201866Y0272622D02*
X0200644D01*
Y027135D01*
X0200775Y0270691D01*
X0201149Y0270133D01*
X0201707Y0269759D01*
X0201866Y0269728D01*
Y0272622D01*
D02*
G37*
G36*
X0308819Y012498D02*
X0307601Y012486D01*
X030643Y0124504D01*
X030535Y0123927D01*
X0304404Y0123151D01*
X0303628Y0122205D01*
X0303051Y0121125D01*
X0302695Y0119954D01*
X0302575Y0118736D01*
X0302695Y0117518D01*
X0303051Y0116347D01*
X0303628Y0115268D01*
X0304404Y0114321D01*
X030535Y0113545D01*
X030643Y0112968D01*
X0307601Y0112613D01*
X0308819Y0112493D01*
X0310037Y0112613D01*
X0311208Y0112968D01*
X0312288Y0113545D01*
X0313234Y0114321D01*
X031401Y0115268D01*
X0314587Y0116347D01*
X0314942Y0117518D01*
X0315062Y0118736D01*
X0314942Y0119954D01*
X0314587Y0121125D01*
X031401Y0122205D01*
X0313234Y0123151D01*
X0312288Y0123927D01*
X0311208Y0124504D01*
X0310037Y012486D01*
X0308819Y012498D01*
D02*
G37*
G36*
X0115905D02*
X0114688Y012486D01*
X0113516Y0124504D01*
X0112437Y0123927D01*
X0111491Y0123151D01*
X0110714Y0122205D01*
X0110137Y0121125D01*
X0109782Y0119954D01*
X0109662Y0118736D01*
X0109782Y0117518D01*
X0110137Y0116347D01*
X0110714Y0115268D01*
X0111491Y0114321D01*
X0112437Y0113545D01*
X0113516Y0112968D01*
X0114688Y0112613D01*
X0115905Y0112493D01*
X0117124Y0112613D01*
X0118295Y0112968D01*
X0119374Y0113545D01*
X012032Y0114321D01*
X0121097Y0115268D01*
X0121674Y0116347D01*
X0122029Y0117518D01*
X0122149Y0118736D01*
X0122029Y0119954D01*
X0121674Y0121125D01*
X0121097Y0122205D01*
X012032Y0123151D01*
X0119374Y0123927D01*
X0118295Y0124504D01*
X0117124Y012486D01*
X0115905Y012498D01*
D02*
G37*
G36*
Y0353326D02*
X0114688Y0353206D01*
X0113516Y0352851D01*
X0112437Y0352274D01*
X0111491Y0351497D01*
X0110714Y0350551D01*
X0110137Y0349472D01*
X0109782Y0348301D01*
X0109662Y0347083D01*
X0109782Y0345865D01*
X0110137Y0344693D01*
X0110714Y0343614D01*
X0111491Y0342668D01*
X0112437Y0341891D01*
X0113516Y0341315D01*
X0114688Y0340959D01*
X0115905Y0340839D01*
X0117124Y0340959D01*
X0118295Y0341315D01*
X0119374Y0341891D01*
X012032Y0342668D01*
X0121097Y0343614D01*
X0121674Y0344693D01*
X0122029Y0345865D01*
X0122149Y0347083D01*
X0122029Y0348301D01*
X0121674Y0349472D01*
X0121097Y0350551D01*
X012032Y0351497D01*
X0119374Y0352274D01*
X0118295Y0352851D01*
X0117124Y0353206D01*
X0115905Y0353326D01*
D02*
G37*
%LPD*%
D10*
X0143575Y0191464D02*
D03*
Y0203276D02*
D03*
Y0147464D02*
D03*
Y0159276D02*
D03*
Y0270536D02*
D03*
Y0258725D02*
D03*
Y0235102D02*
D03*
Y0246913D02*
D03*
D11*
X0202366Y0250878D02*
D03*
X0204925D02*
D03*
X0207484D02*
D03*
X0210043D02*
D03*
X0212602D02*
D03*
X0215161D02*
D03*
X0217721D02*
D03*
X022028D02*
D03*
X0222839D02*
D03*
X0225398D02*
D03*
X0227957D02*
D03*
X0230516D02*
D03*
X0233075D02*
D03*
X0235634D02*
D03*
X0202366Y0273122D02*
D03*
X0204925D02*
D03*
X0207484D02*
D03*
X0210043D02*
D03*
X0212602D02*
D03*
X0215161D02*
D03*
X0217721D02*
D03*
X022028D02*
D03*
X0222839D02*
D03*
X0225398D02*
D03*
X0227957D02*
D03*
X0230516D02*
D03*
X0233075D02*
D03*
X0235634D02*
D03*
D12*
X0205555Y0307D02*
D03*
X0212445D02*
D03*
D13*
X021752D02*
D03*
X0225D02*
D03*
X021752Y0294D02*
D03*
X0225D02*
D03*
X028048Y0329D02*
D03*
X0273D02*
D03*
X028048Y0279D02*
D03*
X0273D02*
D03*
X028048Y0289D02*
D03*
X0273D02*
D03*
X028048Y0299D02*
D03*
X0273D02*
D03*
X028048Y0309D02*
D03*
X0273D02*
D03*
X028048Y0319D02*
D03*
X0273D02*
D03*
X028048Y0269D02*
D03*
X0273D02*
D03*
D14*
X0282102Y0223D02*
D03*
X0276D02*
D03*
X0282102Y0213D02*
D03*
X0276D02*
D03*
X0275898Y0203D02*
D03*
X0282D02*
D03*
D15*
X0275252Y02345D02*
D03*
Y02395D02*
D03*
Y02445D02*
D03*
Y02495D02*
D03*
X0256748Y02345D02*
D03*
Y02395D02*
D03*
Y02445D02*
D03*
Y02495D02*
D03*
D16*
X0171604Y0276608D02*
D03*
Y0281392D02*
D03*
Y0262608D02*
D03*
Y0267392D02*
D03*
X0172Y0249217D02*
D03*
Y0254D02*
D03*
D17*
X0179409Y0275161D02*
D03*
Y027776D02*
D03*
Y028024D02*
D03*
Y0282839D02*
D03*
Y0261161D02*
D03*
Y026376D02*
D03*
Y026624D02*
D03*
Y0268839D02*
D03*
X0179805Y024777D02*
D03*
Y0250368D02*
D03*
Y0252848D02*
D03*
Y0255447D02*
D03*
D18*
X0167697Y0275093D02*
D03*
Y027776D02*
D03*
Y0282906D02*
D03*
Y028024D02*
D03*
Y0261092D02*
D03*
Y026376D02*
D03*
Y0268905D02*
D03*
Y026624D02*
D03*
X0168093Y0247701D02*
D03*
Y0250368D02*
D03*
Y0255514D02*
D03*
Y0252848D02*
D03*
D19*
X0206146Y0296673D02*
D03*
X0211854D02*
D03*
Y0293327D02*
D03*
X0206146D02*
D03*
D20*
X0130898Y0235102D02*
X0143575D01*
X0111Y0255D02*
X0130898Y0235102D01*
X0111Y0255D02*
Y0309D01*
X0128Y0326D01*
X0145622D02*
X0157622Y0314D01*
X0128Y0326D02*
X0145622D01*
D21*
X0257Y0307D02*
X02582Y03082D01*
X0225Y0307D02*
X0257D01*
X02582Y03082D02*
Y0311746D01*
X0261254Y03148D01*
X02668D01*
X0299Y0253D02*
X031D01*
X0296Y025D02*
X0299Y0253D01*
X031D02*
X0313819Y0256819D01*
Y0257909D01*
X0294Y0296546D02*
Y0303546D01*
X015624Y026624D02*
X016348D01*
X0150913Y0260913D02*
X015624Y026624D01*
X0313819Y0297819D02*
Y0297909D01*
X0298Y0255054D02*
X0298254Y02548D01*
X0301Y0243D02*
X030891D01*
X0298Y024D02*
X0301Y0243D01*
X0288Y0133D02*
X0296Y0141D01*
Y025D01*
X0298Y014D02*
Y024D01*
X0255Y0186D02*
X02634Y01944D01*
X0253Y0186546D02*
X0262654Y01962D01*
X0294Y0250546D02*
X0298254Y02548D01*
X02922Y0251291D02*
X0296Y0255091D01*
X02922Y02002D02*
Y0251291D01*
X0262654Y01962D02*
X02882D01*
X02922Y02002D01*
X0143575Y0203276D02*
X0164724D01*
X0169Y0199D01*
X0143575Y0159276D02*
X0164724D01*
X0167Y0157D01*
X02634Y01944D02*
X0288946D01*
X0294Y0199454D01*
Y0250546D01*
X02898Y01318D02*
X0298Y014D01*
X0212445Y0307D02*
X021752D01*
X0225Y0295D02*
Y0307D01*
X0179409Y0282839D02*
X0183161D01*
X0184Y0282D01*
X0179409Y027776D02*
X018276D01*
X0184Y0279D02*
Y0282D01*
X0182358Y026376D02*
X0184Y0265402D01*
X0183161Y0268839D02*
X0184Y0268D01*
X0179409Y0268839D02*
X0183161D01*
X0179805Y0250368D02*
X0182754D01*
X0184Y0251614D01*
X0179805Y0255447D02*
X0182754D01*
X0184Y0251614D02*
Y0254201D01*
X0179409Y026376D02*
X0182358D01*
X018276Y027776D02*
X0184Y0279D01*
X0185Y0278D01*
X0191D01*
X0184Y0265402D02*
Y0268D01*
Y0265402D02*
X0187402Y0262D01*
X0214Y0264D02*
X0217721Y0267721D01*
Y0273122D01*
X0187402Y0262D02*
X0214546D01*
X022028Y0267734D01*
Y0273122D01*
X0222839Y0267747D02*
Y0273122D01*
X0182754Y0255447D02*
X0184Y0254201D01*
X0185799Y0256D01*
X0215091Y026D02*
X0222839Y0267747D01*
X0196Y0264D02*
X0214D01*
X0191Y0278D02*
X0194Y0275D01*
X0185799Y0256D02*
X0193D01*
X0194Y0257D01*
Y0259D01*
X0195Y026D01*
X0215091D01*
X0194Y0266D02*
Y0275D01*
Y0266D02*
X0196Y0264D01*
X0276Y0223D02*
Y023D01*
X0277Y0231D01*
X028D01*
X0281Y0232D01*
X0275252Y02495D02*
X0279992D01*
Y0249496D02*
Y02495D01*
Y0249496D02*
X0281Y0248488D01*
X0282Y0249488D02*
X0287488D01*
X0318Y0303D02*
X032Y0305D01*
X030891Y0243D02*
X0313819Y0247909D01*
X032Y0305D02*
Y0331D01*
X0318838Y0332162D02*
X032Y0331D01*
X0318162Y0252162D02*
X032Y0254D01*
X0308072Y0332162D02*
X0318838D01*
X0275898Y0199244D02*
Y0203D01*
Y0199244D02*
X0277142Y0198D01*
X0287D01*
X02904Y02014D01*
X0287488Y0249488D02*
X02942Y02562D01*
X0276Y0213D02*
Y0213689D01*
X0313819Y0317909D02*
Y0327909D01*
X0303819D02*
X0308072Y0332162D01*
X0303728Y0308D02*
X0303819Y0307909D01*
X0298Y0316D02*
X0299909Y0317909D01*
X0303819D01*
X0249Y0253D02*
X0251Y0255D01*
X0287909D01*
X0251Y0252D02*
X02522Y02532D01*
X0288654D01*
X0249Y0237D02*
X02515Y02345D01*
X0256748Y02395D02*
X02615D01*
X0263Y0238D01*
X0260988Y0231988D02*
X0263Y0234D01*
X0233075Y0247417D02*
Y0250878D01*
X0230516Y0247417D02*
Y0250878D01*
X0246Y0244D02*
X0247Y0243D01*
Y0236D02*
Y0243D01*
Y0236D02*
X0251012Y0231988D01*
X0260988D01*
X0136725Y0258725D02*
X0143575D01*
X0152713Y0243713D02*
Y0250713D01*
X0152Y0243D02*
X0152713Y0243713D01*
X0136Y0243D02*
X0152D01*
X0135Y0244D02*
X0136Y0243D01*
X0135Y0244D02*
Y0257D01*
X0136725Y0258725D01*
X0153454Y0266D02*
X0155495Y026804D01*
X0161495D01*
X0137Y0266D02*
X0153454D01*
X0135Y0268D02*
X0137Y0266D01*
X0135Y0268D02*
Y0273D01*
X0137Y0275D01*
X0203472Y0293327D02*
X0206146D01*
X0198Y0288D02*
X0198146D01*
X0203472Y0293327D01*
X019Y0292D02*
X0192Y0294D01*
X019Y0288D02*
Y0292D01*
X0185721D02*
X018972Y0296D01*
X0183003Y0285003D02*
X0185721Y028772D01*
Y0292D01*
X0143575Y0270536D02*
X0160536D01*
X0164457Y0285003D02*
X0183003D01*
X0137Y0275D02*
X0158D01*
X0225398Y0250878D02*
Y0255398D01*
X0227Y0257D01*
X0233075Y0267925D02*
Y0273122D01*
X0273Y0319D02*
Y0319886D01*
X0233075Y0267925D02*
X02364Y02646D01*
X0227Y0257D02*
X027D01*
X0273Y026D01*
Y0269D01*
Y0274D02*
Y0279D01*
Y0285D02*
Y0289D01*
X0265Y0259D02*
X0268Y0262D01*
X0230516Y0247417D02*
X0233933Y0244D01*
X0246D01*
X0268Y0262D02*
Y0272D01*
X0269Y0273D01*
X0272D01*
X0273Y0274D01*
X0271Y0283D02*
X0273Y0285D01*
X0264Y0261D02*
X0266Y0263D01*
X02618Y02628D02*
X0264Y0265D01*
X02606Y02646D02*
X0262Y0266D01*
X02584Y02664D02*
X026Y0268D01*
X02364Y02646D02*
X02606D01*
X0235634Y0268366D02*
Y0273122D01*
Y0268366D02*
X02376Y02664D01*
X02584D01*
X0230516Y0264484D02*
Y0273122D01*
Y0264484D02*
X02322Y02628D01*
X02618D01*
X0227957Y0263043D02*
Y0273122D01*
Y0263043D02*
X023Y0261D01*
X0264D01*
X0225398Y0262602D02*
Y0273122D01*
Y0262602D02*
X0229Y0259D01*
X0265D01*
X0288654Y02532D02*
X02924Y0256946D01*
X0287909Y0255D02*
X02906Y0257691D01*
X0286Y0265D02*
Y0266D01*
X0298Y0255054D02*
Y028D01*
X0301Y0283D01*
X030891D01*
X0313819Y0287909D01*
X0299Y0293D02*
X0309D01*
X0313819Y0297819D01*
X0299Y0303D02*
X0318D01*
X0298Y0307546D02*
Y0316D01*
X0296Y0255091D02*
Y029D01*
X0299Y0293D01*
X02942Y02562D02*
Y0290746D01*
X02924Y0256946D02*
Y02924D01*
X02906Y0257691D02*
Y0293146D01*
X0266Y0263D02*
Y0282D01*
X0264Y0265D02*
Y0291D01*
X0266Y0293D01*
Y0282D02*
X0267Y0283D01*
X0271D01*
X0266Y0293D02*
X0270461D01*
X0273Y0295539D01*
Y0299D01*
X0262Y0266D02*
Y0301D01*
X026Y0268D02*
Y0311D01*
X0262Y0313D01*
X02942Y0290746D02*
X0298Y0294546D01*
X02924Y02924D02*
X0296Y0296D01*
X02906Y0293146D02*
X0294Y0296546D01*
X0298Y0294546D02*
Y0302D01*
X0299Y0303D01*
X0296Y0296D02*
Y0303D01*
X0294Y0303546D02*
X0298Y0307546D01*
X02515Y02345D02*
X0256748D01*
X0281Y0248488D02*
X0282Y0249488D01*
X0281Y0232D02*
Y0248488D01*
X0263Y0234D02*
Y0238D01*
X0262Y0313D02*
X0271D01*
X0273Y0315D01*
Y0319D01*
X0298728Y0333D02*
X0303819Y0327909D01*
X0273Y0325D02*
Y0329D01*
X027Y0333D02*
X0298728D01*
X0269Y0332D02*
X027Y0333D01*
X02668Y03148D02*
X0269Y0317D01*
Y0332D01*
X0273Y0325D02*
X0274Y0324D01*
X0286D01*
X0288Y0309D02*
X0289Y031D01*
Y0321D01*
X0286Y0324D02*
X0289Y0321D01*
X0211854Y0296673D02*
Y0299146D01*
X0203Y03D02*
X0211D01*
X0211854Y0299146D01*
X0235634Y0250878D02*
X0242878D01*
X0227Y0243D02*
X0229Y0241D01*
Y0238D02*
Y0241D01*
X0222839Y0244161D02*
Y0250878D01*
Y0244161D02*
X0224Y0243D01*
X0227D01*
X0273Y0213D02*
X0275311D01*
X0271Y0215D02*
X0273Y0213D01*
X0271Y0215D02*
Y0231212D01*
X027Y0232212D02*
X0271Y0231212D01*
X0256748Y02495D02*
X02685D01*
X027Y0248D01*
Y0232212D02*
Y0248D01*
X0275311Y0213D02*
X0276Y0213689D01*
X0256748Y02445D02*
X02655D01*
X0229Y0238D02*
X023Y0237D01*
X0232D01*
X0233075Y0247417D02*
X0234492Y0246D01*
X0247D01*
X0249Y0244D01*
Y0237D02*
Y0244D01*
X0247Y0246D02*
X0249Y0248D01*
Y0253D01*
X0296Y0303D02*
X0298Y0305D01*
X0300909D01*
X0303819Y0307909D01*
X02904Y02014D02*
Y0246576D01*
X0287488Y0249488D02*
X02904Y0246576D01*
X0318Y0303D02*
X032Y0301D01*
Y0254D02*
Y0301D01*
X0165201Y0282906D02*
X0167697D01*
X01622Y0279905D02*
X0165201Y0282906D01*
X0160536Y0270536D02*
X01622Y02722D01*
X01604Y0280946D02*
X0164457Y0285003D01*
X0165201Y027776D02*
X0167697D01*
X0158Y0275D02*
X01604Y02774D01*
Y0280946D01*
X01622Y02722D02*
Y0279905D01*
X0164Y0270546D02*
Y0276559D01*
X0165201Y027776D01*
X0161495Y026804D02*
X0164Y0270546D01*
X016348Y026624D02*
Y026748D01*
X0164906Y0268905D01*
X0167697D01*
X0152713Y0250713D02*
X0154848Y0252848D01*
X0150913Y0251003D02*
Y0260913D01*
X0251Y024D02*
Y0252D01*
Y024D02*
X02515Y02395D01*
X0256748D01*
X021752Y0294D02*
Y0295D01*
X0192Y0294D02*
X02D01*
X018972Y0296D02*
X0199D01*
X02Y0294D02*
X0202673Y0296673D01*
X0206146D01*
X0199Y0296D02*
X0203Y03D01*
X0211854Y0289146D02*
Y0293327D01*
X0215Y0290595D02*
X021752Y0293114D01*
Y0294D01*
X0215Y0289D02*
Y0290595D01*
X0211854Y0289146D02*
X0213Y0288D01*
X0214D01*
X0215Y0289D01*
X0273Y0305D02*
Y0309D01*
X0262Y0301D02*
X0265Y0304D01*
X0272D01*
X0273Y0305D01*
X0311708Y0252162D02*
X0318162D01*
X0303819Y0247909D02*
X0306909Y0251D01*
X0310546D01*
X0311708Y0252162D01*
X0143575Y0246913D02*
X0146823D01*
X0150913Y0251003D01*
X016276Y026376D02*
X0167697D01*
X0163158Y0250368D02*
X0168093D01*
X0154848Y0252848D02*
X0168093D01*
X016093Y025795D02*
Y026193D01*
X016276Y026376D01*
X016123Y024844D02*
X0163158Y0250368D01*
X016123Y024444D02*
Y024844D01*
X0255Y012818D02*
Y0186D01*
X0212Y0128D02*
X02163Y01237D01*
X025052D01*
X0255Y012818D01*
X0253Y013473D02*
Y0186546D01*
X0202Y0128D02*
X02063Y01323D01*
X025057D01*
X0253Y013473D01*
X0167Y012584D02*
Y0157D01*
Y012584D02*
X017274Y01201D01*
X0169Y012659D02*
Y0199D01*
Y012659D02*
X017369Y01219D01*
X028478D01*
X0288Y012512D01*
Y0133D01*
X0285526Y01201D02*
X02898Y0124374D01*
Y01318D01*
X017274Y01201D02*
X0285526D01*
D22*
X0291Y0304D02*
X0295Y0308D01*
X0291Y0297D02*
Y0304D01*
X0295Y0308D02*
Y0318D01*
X0288Y0294D02*
X0291Y0297D01*
X0295Y0318D02*
X03Y0323D01*
X030891D01*
X0313819Y0327909D01*
X0288Y0268D02*
Y0294D01*
X0286Y0266D02*
X0288Y0268D01*
D23*
X028048Y0329D02*
X0287D01*
X028048Y0319D02*
X0285D01*
D24*
X0157622Y0314D02*
D03*
X0134D02*
D03*
X0145811Y0295496D02*
D03*
D25*
X0192Y0228D02*
D03*
X0222D02*
D03*
X0212D02*
D03*
X0202D02*
D03*
X0192Y0128D02*
D03*
X0202D02*
D03*
X0212D02*
D03*
X0222D02*
D03*
X0232D02*
D03*
D26*
X0122Y021174D02*
D03*
Y0183D02*
D03*
Y016774D02*
D03*
Y0139D02*
D03*
Y0279D02*
D03*
Y0226638D02*
D03*
D27*
X0303819Y0327909D02*
D03*
D28*
X0313819D02*
D03*
X0303819Y0317909D02*
D03*
X0313819D02*
D03*
X0303819Y0307909D02*
D03*
X0313819D02*
D03*
X0303819Y0297909D02*
D03*
X0313819D02*
D03*
X0303819Y0287909D02*
D03*
X0313819D02*
D03*
X0303819Y0277909D02*
D03*
X0313819D02*
D03*
X0303819Y0267909D02*
D03*
X0313819D02*
D03*
X0303819Y0257909D02*
D03*
X0313819D02*
D03*
X0303819Y0247909D02*
D03*
X0313819D02*
D03*
X0303819Y0237909D02*
D03*
X0313819D02*
D03*
X0303819Y0227909D02*
D03*
X0313819D02*
D03*
X0303819Y0217909D02*
D03*
X0313819D02*
D03*
X0303819Y0207909D02*
D03*
X0313819D02*
D03*
X0303819Y0197909D02*
D03*
X0313819D02*
D03*
X0303819Y0187909D02*
D03*
X0313819D02*
D03*
X0303819Y0177909D02*
D03*
X0313819D02*
D03*
Y0137909D02*
D03*
X0303819D02*
D03*
X0313819Y0147909D02*
D03*
X0303819D02*
D03*
X0313819Y0157909D02*
D03*
X0303819D02*
D03*
X0313819Y0167909D02*
D03*
X0303819D02*
D03*
D29*
X019Y0288D02*
D03*
X0198D02*
D03*
X0286Y0265D02*
D03*
X0288Y0309D02*
D03*
X0287Y0329D02*
D03*
X0285Y0319D02*
D03*
X0242878Y0250878D02*
D03*
X02655Y02445D02*
D03*
X0232Y0237D02*
D03*
X0241Y0239D02*
D03*
X016093Y025795D02*
D03*
X016123Y024444D02*
D03*
M02*
