M48
;Layer_Color=9474304
;FILE_FORMAT=2:4
INCH,LZ
;TYPE=PLATED
T1F00S00C0.0280
T2F00S00C0.0354
T3F00S00C0.0400
T4F00S00C0.0787
T5F00S00C0.0949
;TYPE=NON_PLATED
T6F00S00C0.1083
%
T01
X016123Y024444
X016093Y025795
X019Y0288
X0198
X024288Y025088
X0241Y0239
X0232Y0237
X02655Y02445
X0286Y0265
X0288Y0309
X0285Y0319
X0287Y0329
T02
X030382Y013791
Y014791
X031382
Y013791
Y015791
Y016791
Y017791
Y018791
Y019791
Y020791
Y021791
Y022791
Y023791
Y024791
Y025791
Y026791
Y027791
Y028791
Y029791
Y030791
X030382
Y029791
Y028791
Y027791
Y026791
Y025791
Y024791
Y023791
Y022791
Y021791
Y020791
Y019791
Y018791
Y017791
Y016791
Y015791
Y031791
Y032791
X031382
Y031791
T03
X0192Y0128
X0202
X0212
X0222
X0232
X0222Y0228
X0212
X0202
X0192
T04
X014581Y02955
X0134Y0314
X015762
T05
X0122Y0139
Y016774
Y0183
Y021174
Y022664
Y0279
T06
X011591Y011874
X030882
X011591Y034708
X030882
M30
