G04 Layer_Color=65535*
%FSTAX25Y25*%
%MOIN*%
G70*
G01*
G75*
%ADD21C,0.01000*%
%ADD30C,0.02362*%
%ADD31C,0.00984*%
%ADD32C,0.00500*%
%ADD33C,0.00787*%
%ADD34C,0.00394*%
%ADD35C,0.00800*%
G36*
X0287119Y01936D02*
X028713Y0193589D01*
X0287152Y0193572D01*
X028718Y0193544D01*
X0287219Y0193506D01*
X0287263Y0193461D01*
X0287313Y0193411D01*
X028738Y019335D01*
X0287446Y0193284D01*
X0287524Y0193211D01*
X0287613Y0193123D01*
X0287707Y0193034D01*
X0287813Y0192934D01*
X0287924Y0192829D01*
X028804Y0192712D01*
X0288173Y019259D01*
X0288307Y0192457D01*
X0288451Y0192318D01*
X0288606Y0192174D01*
X0288767Y0192018D01*
X0288934Y0191857D01*
X0289111Y0191685D01*
X02893Y0191508D01*
X0289494Y0191319D01*
X0289694Y0191125D01*
X0289905Y0190919D01*
X0290127Y0190708D01*
X0290349Y0190492D01*
X0290588Y0190264D01*
X0290832Y0190031D01*
X0291082Y0189787D01*
X0291342Y0189537D01*
X0291348Y0189532D01*
X0291359Y0189521D01*
X0291381Y0189504D01*
X0291409Y0189476D01*
X0291448Y0189437D01*
X0291492Y0189393D01*
X0291548Y0189343D01*
X0291609Y0189282D01*
X0291675Y0189216D01*
X0291759Y0189143D01*
X0291842Y018906D01*
X0291942Y0188966D01*
X0292042Y0188866D01*
X0292153Y018876D01*
X0292275Y0188644D01*
X0292402Y0188522D01*
X0292541Y0188389D01*
X0292686Y018825D01*
X0292835Y0188105D01*
X0292996Y018795D01*
X0293168Y0187789D01*
X0293346Y0187617D01*
X0293529Y018744D01*
X0293729Y0187251D01*
X0293929Y0187057D01*
X029414Y0186857D01*
X0294356Y0186646D01*
X0294584Y0186429D01*
X0294822Y0186202D01*
X0295066Y0185969D01*
X0295316Y0185724D01*
X0295577Y0185475D01*
Y0185469D01*
Y0185452D01*
Y0185419D01*
Y018538D01*
Y0185325D01*
Y0185258D01*
Y0185175D01*
Y0185086D01*
Y0184981D01*
Y018487D01*
Y0184742D01*
Y0184603D01*
Y0184448D01*
Y0184287D01*
Y0184109D01*
Y0183921D01*
Y0183721D01*
Y018351D01*
Y0183282D01*
Y0183049D01*
Y01828D01*
Y0182539D01*
Y0182267D01*
Y0181978D01*
Y0181684D01*
Y0181373D01*
Y0181051D01*
Y0180718D01*
Y0180369D01*
Y0180014D01*
Y0179642D01*
Y0179259D01*
Y0179253D01*
Y0179237D01*
Y0179203D01*
Y0179164D01*
Y0179109D01*
Y0179042D01*
Y0178965D01*
Y017887D01*
Y017877D01*
Y0178654D01*
Y0178526D01*
Y0178387D01*
Y0178238D01*
Y0178071D01*
Y0177899D01*
Y017771D01*
Y017751D01*
Y0177294D01*
Y0177072D01*
Y0176833D01*
Y0176589D01*
Y0176328D01*
Y0176051D01*
Y0175768D01*
X0295583Y0175468D01*
Y0175163D01*
Y0174841D01*
Y0174508D01*
Y0174158D01*
Y0173803D01*
Y0173431D01*
Y0173048D01*
X0284394D01*
Y0173043D01*
Y0173032D01*
Y0173015D01*
Y0172987D01*
Y0172948D01*
Y0172909D01*
Y017286D01*
Y0172799D01*
Y0172793D01*
Y0172771D01*
X0284388Y0172743D01*
Y0172704D01*
X0284377Y0172654D01*
X0284372Y0172599D01*
X0284355Y0172538D01*
X0284338Y0172471D01*
X0284311Y0172405D01*
X0284283Y0172332D01*
X0284244Y017226D01*
X02842Y0172188D01*
X0284144Y0172116D01*
X0284083Y0172049D01*
X0284011Y0171988D01*
X0283928Y0171933D01*
X0283922Y0171927D01*
X0283905Y0171922D01*
X0283883Y0171911D01*
X0283844Y0171894D01*
X02838Y0171872D01*
X028375Y0171855D01*
X0283689Y0171838D01*
X0283622Y0171822D01*
X0283545Y0171805D01*
X0283467Y0171794D01*
X0283378Y0171788D01*
X0283284D01*
X0283189Y0171794D01*
X028309Y0171811D01*
X0282984Y0171838D01*
X0282873Y0171872D01*
X0282868D01*
X0282851Y0171877D01*
X0282823Y0171888D01*
X0282779Y0171899D01*
X0282718Y0171911D01*
X028264Y0171927D01*
X0282546Y0171944D01*
X0282429Y017196D01*
X0282412D01*
X0282396Y0171966D01*
X0282368Y0171972D01*
X028234D01*
X0282301Y0171977D01*
X0282213Y0171988D01*
X0282107Y0172005D01*
X0281985Y0172016D01*
X0281857Y0172033D01*
X0281719Y0172044D01*
X0281702D01*
X028168Y0172049D01*
X0281619D01*
X028158Y0172055D01*
X0281536Y017206D01*
X028148Y0172066D01*
X0281364Y0172077D01*
X0281236Y0172088D01*
X0281092Y0172105D01*
X0280942Y0172122D01*
X0280925D01*
X0280903Y0172127D01*
X0280875Y0172133D01*
X0280842D01*
X0280803Y0172138D01*
X0280714Y0172149D01*
X028062Y0172166D01*
X028052Y0172183D01*
X0280426Y0172194D01*
X0280342Y017221D01*
X0280331D01*
X0280309Y0172216D01*
X0280276Y0172221D01*
X0280226Y0172232D01*
X0280176Y0172238D01*
X028012Y0172249D01*
X0280004Y0172266D01*
X0279982D01*
X0279959Y0172271D01*
X0279932D01*
X0279904Y0172277D01*
X0279848D01*
Y0172271D01*
Y0172255D01*
X0279859Y0172232D01*
X0279882Y0172205D01*
X0279915Y017216D01*
X0279965Y0172105D01*
X0279998Y0172072D01*
X0280037Y0172033D01*
X0280048Y0172022D01*
X0280076Y0171994D01*
X0280126Y0171955D01*
X0280187Y0171899D01*
X0280265Y0171833D01*
X0280359Y0171755D01*
X0280459Y0171672D01*
X028057Y0171583D01*
X0280575Y0171578D01*
X0280598Y0171561D01*
X0280631Y0171533D01*
X0280675Y01715D01*
X0280725Y0171461D01*
X0280781Y0171422D01*
X0280908Y0171328D01*
X0280914Y0171322D01*
X0280936Y0171306D01*
X028097Y0171283D01*
X0281014Y0171256D01*
X0281064Y0171222D01*
X0281119Y0171184D01*
X028123Y0171111D01*
X0281241Y0171106D01*
X0281269Y0171089D01*
X0281325Y0171056D01*
X0281391Y0171011D01*
X0281486Y0170956D01*
X0281597Y0170884D01*
X028173Y01708D01*
X0281885Y0170706D01*
X0288179D01*
X0288184Y0170701D01*
X0288196Y017069D01*
X0288212Y0170673D01*
X0288234Y0170651D01*
X0288268Y0170617D01*
X0288312Y0170579D01*
X0288356Y0170529D01*
X0288412Y0170473D01*
X0288473Y0170412D01*
X028854Y0170345D01*
X0288617Y0170268D01*
X0288701Y0170185D01*
X0288789Y0170096D01*
X0288889Y0169996D01*
X0288995Y0169896D01*
X0289106Y0169779D01*
X0289228Y0169663D01*
X028935Y0169535D01*
X0289483Y0169402D01*
X0289627Y0169263D01*
X0289777Y0169113D01*
X0289933Y0168958D01*
X0290094Y0168797D01*
X0290266Y0168625D01*
X0290438Y0168447D01*
X0290627Y0168264D01*
X0290815Y016807D01*
X0291015Y016787D01*
X029122Y0167665D01*
X0291431Y0167454D01*
X0291653Y0167232D01*
X0291881Y0167004D01*
X0291886Y0166999D01*
X0291897Y0166988D01*
X0291914Y0166971D01*
X0291936Y0166949D01*
X0291969Y0166916D01*
X0292008Y0166877D01*
X0292058Y0166827D01*
X0292114Y0166771D01*
X0292175Y016671D01*
X0292242Y0166644D01*
X0292319Y0166566D01*
X0292402Y0166483D01*
X0292491Y0166394D01*
X0292591Y0166294D01*
X0292691Y0166194D01*
X0292808Y0166077D01*
X0292924Y0165961D01*
X0293052Y0165833D01*
X0293185Y01657D01*
X0293324Y0165561D01*
X0293474Y0165411D01*
X0293629Y0165256D01*
X029379Y0165095D01*
X0293962Y0164923D01*
X029414Y0164745D01*
X0294323Y0164562D01*
X0294517Y0164368D01*
X0294717Y0164168D01*
X0294922Y0163963D01*
X0295133Y0163752D01*
X0295355Y016353D01*
X0295583Y0163303D01*
Y0163291D01*
Y0163264D01*
Y0163208D01*
Y0163136D01*
Y0163042D01*
Y0162931D01*
Y0162792D01*
Y0162636D01*
Y0162459D01*
Y0162265D01*
Y0162043D01*
Y0161804D01*
Y0161549D01*
Y0161266D01*
Y0160966D01*
Y0160644D01*
Y01603D01*
Y0159934D01*
Y0159551D01*
Y0159146D01*
Y0158718D01*
Y0158269D01*
Y0157802D01*
Y0157314D01*
Y0156803D01*
X0295577Y0156271D01*
Y0155721D01*
Y0155149D01*
Y0154556D01*
Y0153945D01*
Y0153307D01*
Y0152652D01*
Y0152641D01*
Y0152613D01*
Y0152558D01*
Y0152486D01*
Y0152391D01*
Y015228D01*
Y0152141D01*
Y0151986D01*
Y0151808D01*
Y0151614D01*
Y0151392D01*
Y0151154D01*
Y0150898D01*
Y0150615D01*
Y0150315D01*
Y0149994D01*
Y014965D01*
Y0149283D01*
Y01489D01*
Y0148495D01*
Y0148068D01*
Y0147624D01*
Y0147152D01*
Y0146664D01*
Y0146159D01*
Y0145626D01*
Y0145076D01*
Y0144505D01*
Y0143911D01*
Y0143295D01*
Y0142662D01*
Y0142007D01*
X0295571Y0142002D01*
X029556Y014199D01*
X0295538Y0141974D01*
X029551Y0141946D01*
X0295472Y0141907D01*
X0295427Y0141863D01*
X0295377Y0141813D01*
X0295311Y0141752D01*
X0295244Y0141685D01*
X0295166Y0141607D01*
X0295078Y0141524D01*
X0294983Y0141436D01*
X0294878Y0141336D01*
X0294767Y0141225D01*
X0294645Y0141114D01*
X0294517Y0140986D01*
X0294384Y0140858D01*
X0294239Y014072D01*
X0294084Y014057D01*
X0293923Y0140414D01*
X0293757Y0140253D01*
X0293579Y0140081D01*
X029339Y0139904D01*
X0293196Y0139715D01*
X0292991Y0139521D01*
X029278Y0139315D01*
X0292563Y0139104D01*
X0292336Y0138888D01*
X0292097Y0138661D01*
X0291853Y0138427D01*
X0291603Y0138183D01*
X0291342Y0137933D01*
X0291337Y0137928D01*
X0291326Y0137917D01*
X0291303Y01379D01*
X0291276Y0137872D01*
X0291237Y0137833D01*
X0291193Y0137789D01*
X0291143Y0137739D01*
X0291076Y0137678D01*
X0291009Y0137612D01*
X0290932Y0137539D01*
X0290843Y0137451D01*
X0290749Y0137362D01*
X0290643Y0137262D01*
X0290532Y0137156D01*
X029041Y013704D01*
X0290282Y0136918D01*
X0290149Y0136785D01*
X0290005Y0136646D01*
X0289849Y0136502D01*
X0289688Y0136346D01*
X0289522Y0136185D01*
X0289344Y0136013D01*
X0289156Y0135836D01*
X0288962Y0135647D01*
X0288756Y0135453D01*
X0288545Y0135247D01*
X0288329Y0135036D01*
X0288101Y013482D01*
X0287863Y0134592D01*
X0287618Y0134359D01*
X0287369Y0134115D01*
X0287108Y0133865D01*
X0280742D01*
X0280204Y0133871D01*
X0264469D01*
X0264464Y0133876D01*
X0264453Y0133888D01*
X026443Y013391D01*
X0264403Y0133937D01*
X0264364Y0133971D01*
X0264319Y0134015D01*
X0264269Y0134065D01*
X0264203Y0134126D01*
X0264136Y0134193D01*
X0264059Y0134271D01*
X026397Y0134354D01*
X0263876Y0134448D01*
X026377Y0134548D01*
X0263659Y0134653D01*
X0263537Y013477D01*
X0263409Y0134892D01*
X0263276Y0135025D01*
X0263132Y0135164D01*
X0262976Y0135314D01*
X0262815Y0135469D01*
X0262649Y0135636D01*
X0262471Y0135808D01*
X0262283Y0135985D01*
X0262088Y0136174D01*
X0261883Y0136368D01*
X0261672Y0136574D01*
X0261456Y0136785D01*
X0261228Y0137001D01*
X0260989Y0137229D01*
X0260745Y0137467D01*
X0260495Y0137711D01*
X0260235Y0137961D01*
X0260229Y0137967D01*
X0260218Y0137978D01*
X0260196Y0137995D01*
X0260168Y0138028D01*
X0260129Y0138061D01*
X0260085Y0138105D01*
X0260029Y0138155D01*
X0259968Y0138216D01*
X0259902Y0138283D01*
X0259818Y0138361D01*
X0259735Y0138444D01*
X0259641Y0138533D01*
X0259535Y0138633D01*
X0259424Y0138744D01*
X0259302Y013886D01*
X0259175Y0138982D01*
X0259036Y0139116D01*
X0258892Y0139254D01*
X0258742Y0139399D01*
X0258581Y0139554D01*
X0258409Y0139721D01*
X0258231Y0139893D01*
X0258048Y014007D01*
X0257854Y0140259D01*
X0257648Y0140453D01*
X0257437Y0140658D01*
X0257221Y0140869D01*
X0256993Y0141086D01*
X0256755Y0141313D01*
X0256511Y0141552D01*
X0256261Y0141796D01*
X0256Y0142046D01*
Y0142051D01*
Y0142057D01*
Y0142074D01*
Y014209D01*
Y0142118D01*
Y0142146D01*
Y0142185D01*
Y0142224D01*
Y0142274D01*
Y0142324D01*
Y0142385D01*
Y0142446D01*
Y0142518D01*
Y0142596D01*
Y0142673D01*
Y0142762D01*
Y0142851D01*
Y0142951D01*
Y0143056D01*
Y0143162D01*
Y0143278D01*
Y0143395D01*
Y0143522D01*
Y014365D01*
Y0143933D01*
Y0144233D01*
Y0144555D01*
Y0144899D01*
Y014491D01*
Y0144943D01*
Y0144999D01*
Y0145076D01*
Y0145176D01*
Y0145298D01*
Y0145443D01*
Y0145609D01*
Y0145698D01*
Y0145798D01*
Y0145898D01*
Y0146003D01*
Y014612D01*
Y0146236D01*
Y0146364D01*
Y0146492D01*
Y014663D01*
Y0146769D01*
Y0146919D01*
Y0147069D01*
Y014723D01*
Y0147391D01*
Y0147563D01*
Y0147735D01*
Y014774D01*
Y0147757D01*
Y0147785D01*
Y0147824D01*
Y0147873D01*
Y0147934D01*
Y0148007D01*
Y014809D01*
Y0148184D01*
Y014829D01*
Y0148406D01*
Y0148534D01*
Y0148673D01*
Y0148823D01*
Y0148984D01*
Y0149155D01*
Y0149339D01*
Y0149533D01*
Y0149744D01*
Y014996D01*
Y0150188D01*
Y0150426D01*
Y0150676D01*
Y0150937D01*
Y0151209D01*
Y0151492D01*
Y0151786D01*
Y0152092D01*
Y0152408D01*
Y0152735D01*
Y0153074D01*
Y0153424D01*
X0267289D01*
Y0153429D01*
X0267294Y015344D01*
X02673Y0153457D01*
X0267311Y0153484D01*
X0267322Y0153518D01*
X0267339Y0153557D01*
X0267355Y0153607D01*
X0267377Y0153662D01*
X0267383Y0153673D01*
X0267394Y0153695D01*
X0267416Y015374D01*
X0267444Y015379D01*
X0267489Y0153856D01*
X0267549Y0153923D01*
X0267622Y0154001D01*
X026771Y0154078D01*
X0267716D01*
X0267722Y0154089D01*
X0267755Y0154112D01*
X026781Y015415D01*
X0267882Y0154195D01*
X0267966Y0154239D01*
X0268055Y0154289D01*
X026816Y0154334D01*
X0268266Y0154373D01*
X0268271D01*
X0268282Y0154378D01*
X0268304Y0154384D01*
X0268332Y0154395D01*
X0268393Y0154417D01*
X0268465Y015445D01*
X0268471D01*
X0268482Y0154461D01*
X0268515Y0154478D01*
X0268554Y0154506D01*
X0268576Y0154522D01*
X0268587Y0154534D01*
X0268593Y0154539D01*
Y015455D01*
Y0154556D01*
X0268582Y0154567D01*
X0268571Y0154578D01*
X0268543Y0154583D01*
X0268504Y0154589D01*
X0268443D01*
X0268393Y0154595D01*
X0268326Y0154589D01*
X0268238D01*
X0268132Y0154583D01*
X0268071D01*
X0268005Y0154578D01*
X0267933D01*
X0267894Y0154572D01*
X0267477D01*
X0267444Y0154578D01*
X0267411D01*
X0267394Y0154583D01*
X0267366Y0154589D01*
X0267328Y0154606D01*
X0267283Y0154622D01*
X0267233Y0154645D01*
X0267178Y0154672D01*
X0267117Y0154711D01*
X0267106Y0154717D01*
X0267078Y0154739D01*
X0267039Y0154772D01*
X0266989Y0154817D01*
X0266933Y0154867D01*
X0266884Y0154922D01*
X0266834Y0154983D01*
X0266795Y015505D01*
X0266789Y0155061D01*
X0266784Y0155083D01*
X0266767Y0155122D01*
X0266756Y0155177D01*
X0266745Y0155244D01*
X0266734Y0155322D01*
X0266728Y015541D01*
X0266734Y0155516D01*
Y0155521D01*
Y0155538D01*
X0266739Y015556D01*
Y0155594D01*
X0266745Y0155643D01*
X026675Y0155699D01*
X0266756Y015576D01*
X0266761Y0155838D01*
X0263398D01*
X0263393Y0155843D01*
X0263382Y0155854D01*
X0263365Y0155871D01*
X0263343Y0155893D01*
X0263309Y0155927D01*
X026327Y0155965D01*
X0263221Y0156015D01*
X0263165Y0156071D01*
X0263104Y0156132D01*
X0263037Y0156199D01*
X026296Y0156276D01*
X0262877Y0156359D01*
X0262788Y0156448D01*
X0262688Y0156548D01*
X0262588Y0156648D01*
X0262471Y0156765D01*
X0262355Y0156881D01*
X0262227Y0157009D01*
X0262094Y0157142D01*
X0261955Y0157281D01*
X0261805Y0157431D01*
X026165Y0157586D01*
X0261489Y0157747D01*
X0261317Y0157919D01*
X0261139Y0158097D01*
X0260956Y015828D01*
X0260762Y0158474D01*
X0260562Y0158674D01*
X0260357Y0158879D01*
X0260146Y015909D01*
X0259924Y0159312D01*
X0259696Y015954D01*
X0259691Y0159545D01*
X025968Y0159556D01*
X0259663Y0159573D01*
X0259641Y0159595D01*
X0259608Y0159628D01*
X0259569Y0159667D01*
X0259519Y0159717D01*
X0259463Y0159773D01*
X0259402Y0159834D01*
X0259336Y01599D01*
X0259258Y0159978D01*
X0259175Y0160061D01*
X0259086Y016015D01*
X0258991Y016025D01*
X0258886Y016035D01*
X0258775Y0160467D01*
X0258653Y0160583D01*
X0258525Y0160711D01*
X0258392Y0160844D01*
X0258253Y0160983D01*
X0258103Y0161132D01*
X0257948Y0161288D01*
X0257787Y0161449D01*
X0257615Y0161621D01*
X0257443Y0161799D01*
X0257254Y0161982D01*
X0257066Y016217D01*
X0256866Y016237D01*
X025666Y0162575D01*
X025645Y0162786D01*
X0256228Y0163008D01*
X0256Y0163236D01*
Y0163247D01*
Y016328D01*
Y0163336D01*
Y0163408D01*
Y0163508D01*
Y0163624D01*
Y0163769D01*
Y016393D01*
Y0164118D01*
Y0164324D01*
Y0164551D01*
Y0164801D01*
Y0165073D01*
Y0165367D01*
Y0165678D01*
Y0166016D01*
Y0166377D01*
Y0166755D01*
Y016716D01*
Y0167581D01*
Y0168026D01*
Y0168492D01*
Y016898D01*
Y0169491D01*
Y0170024D01*
Y0170579D01*
Y0171156D01*
Y017175D01*
Y0172371D01*
Y0173009D01*
Y0173676D01*
Y0174358D01*
Y0174369D01*
Y0174402D01*
Y0174458D01*
Y017453D01*
Y017463D01*
Y0174747D01*
Y0174891D01*
Y0175052D01*
Y0175235D01*
Y0175446D01*
Y0175673D01*
Y0175923D01*
Y017619D01*
Y0176484D01*
Y01768D01*
Y0177139D01*
Y0177494D01*
Y0177877D01*
Y0178276D01*
Y0178698D01*
Y0179142D01*
Y0179608D01*
Y0180097D01*
Y0180607D01*
Y018114D01*
Y0181695D01*
Y0182272D01*
Y0182866D01*
Y0183488D01*
Y0184126D01*
Y0184792D01*
Y0185475D01*
X0256006Y018548D01*
X0256017Y0185491D01*
X0256039Y0185508D01*
X0256067Y0185536D01*
X0256105Y0185575D01*
X025615Y0185619D01*
X0256205Y0185669D01*
X0256266Y018573D01*
X0256333Y0185797D01*
X0256416Y0185874D01*
X02565Y0185958D01*
X0256599Y0186046D01*
X0256699Y0186146D01*
X025681Y0186252D01*
X0256932Y0186368D01*
X025706Y018649D01*
X0257199Y0186624D01*
X0257343Y0186762D01*
X0257493Y0186907D01*
X0257654Y0187062D01*
X0257826Y0187223D01*
X0258003Y0187395D01*
X0258187Y0187573D01*
X0258386Y0187761D01*
X0258586Y0187956D01*
X0258797Y0188155D01*
X0259014Y0188366D01*
X0259241Y0188583D01*
X025948Y018881D01*
X0259724Y0189043D01*
X0259974Y0189288D01*
X0260235Y0189537D01*
X026024Y0189543D01*
X0260251Y0189554D01*
X0260274Y0189571D01*
X0260301Y0189598D01*
X026034Y0189637D01*
X0260384Y0189682D01*
X026044Y0189732D01*
X0260501Y0189793D01*
X0260568Y0189859D01*
X0260651Y0189937D01*
X0260734Y019002D01*
X0260834Y0190109D01*
X0260934Y0190209D01*
X0261045Y0190314D01*
X0261167Y0190431D01*
X0261295Y0190553D01*
X0261433Y0190686D01*
X0261578Y0190825D01*
X0261728Y0190969D01*
X0261889Y0191125D01*
X0262061Y0191286D01*
X0262238Y0191458D01*
X0262421Y0191635D01*
X0262621Y0191824D01*
X0262821Y0192018D01*
X0263032Y0192218D01*
X0263248Y0192429D01*
X0263476Y0192645D01*
X0263715Y0192873D01*
X0263959Y0193106D01*
X0264208Y019335D01*
X0264469Y01936D01*
X0270841D01*
X0271379Y0193605D01*
X0287113D01*
X0287119Y01936D01*
D02*
G37*
%LPC*%
G36*
X028658Y0192601D02*
X0265008D01*
X0265002Y0192595D01*
X0264991Y0192584D01*
X0264974Y0192568D01*
X0264947Y019254D01*
X0264908Y0192507D01*
X0264869Y0192468D01*
X0264819Y0192418D01*
X0264758Y0192362D01*
X0264691Y0192296D01*
X0264619Y0192224D01*
X0264536Y0192146D01*
X0264447Y0192063D01*
X0264347Y0191968D01*
X0264242Y0191868D01*
X0264131Y0191757D01*
X0264009Y0191641D01*
X0263881Y0191519D01*
X0263742Y0191385D01*
X0263598Y0191247D01*
X0263448Y0191102D01*
X0263287Y0190947D01*
X0263115Y0190786D01*
X0262943Y019062D01*
X026276Y0190442D01*
X0262566Y0190259D01*
X0262366Y019007D01*
X026216Y018987D01*
X0261944Y0189665D01*
X0261722Y0189449D01*
X0261489Y0189232D01*
X026125Y0188999D01*
X0261006Y0188766D01*
X0261001Y018876D01*
X0260989Y0188749D01*
X0260973Y0188733D01*
X0260945Y0188705D01*
X0260912Y0188672D01*
X0260867Y0188633D01*
X0260817Y0188583D01*
X0260756Y0188527D01*
X026069Y0188466D01*
X0260618Y0188394D01*
X0260534Y0188316D01*
X0260446Y0188227D01*
X0260346Y0188133D01*
X0260246Y0188033D01*
X0260129Y0187928D01*
X0260007Y0187811D01*
X0259879Y0187689D01*
X0259746Y0187556D01*
X0259602Y0187417D01*
X0259447Y0187273D01*
X0259286Y0187118D01*
X0259119Y0186957D01*
X0258947Y018679D01*
X0258758Y0186612D01*
X025857Y0186429D01*
X025837Y0186241D01*
X0258165Y0186041D01*
X0257948Y0185836D01*
X0257726Y0185625D01*
X0257493Y0185403D01*
X0257254Y0185175D01*
X025701Y0184936D01*
Y0184925D01*
Y0184898D01*
Y0184842D01*
Y018477D01*
Y0184681D01*
Y0184565D01*
Y0184431D01*
Y0184276D01*
Y0184098D01*
Y0183904D01*
Y0183688D01*
Y0183449D01*
Y0183194D01*
Y0182911D01*
Y0182611D01*
Y0182295D01*
Y018195D01*
Y018159D01*
Y0181207D01*
Y0180807D01*
Y018038D01*
Y0179936D01*
Y0179475D01*
Y0178987D01*
Y0178482D01*
X0257005Y0177954D01*
Y0177405D01*
Y0176839D01*
Y0176251D01*
Y017564D01*
Y0175007D01*
Y0174358D01*
Y0174347D01*
Y0174319D01*
Y0174264D01*
Y0174192D01*
Y0174097D01*
Y0173986D01*
Y0173853D01*
Y0173698D01*
Y017352D01*
Y0173326D01*
Y0173109D01*
Y0172871D01*
Y017261D01*
Y0172332D01*
Y0172033D01*
Y0171711D01*
Y0171372D01*
Y0171011D01*
Y0170628D01*
Y0170223D01*
Y0169801D01*
Y0169358D01*
Y0168891D01*
Y0168403D01*
Y0167898D01*
X0256999Y0167371D01*
Y0166821D01*
Y0166255D01*
Y0165667D01*
Y0165056D01*
Y0164424D01*
Y0163774D01*
X0257005Y0163769D01*
X025701Y0163763D01*
X0257027Y0163747D01*
X0257054Y0163719D01*
X0257082Y0163691D01*
X0257121Y0163652D01*
X0257166Y0163608D01*
X0257215Y0163558D01*
X0257271Y0163502D01*
X0257338Y0163441D01*
X0257404Y0163369D01*
X0257482Y0163291D01*
X0257565Y0163208D01*
X025766Y0163119D01*
X0257754Y016302D01*
X0257859Y0162914D01*
X025797Y0162803D01*
X0258087Y0162686D01*
X0258214Y0162564D01*
X0258342Y0162431D01*
X0258481Y0162298D01*
X0258625Y0162154D01*
X0258775Y0161998D01*
X0258936Y0161843D01*
X0259097Y0161676D01*
X0259269Y016151D01*
X0259447Y0161327D01*
X025963Y0161144D01*
X0259824Y0160955D01*
X0260018Y0160755D01*
X0260224Y016055D01*
X0260435Y0160339D01*
X026044Y0160333D01*
X0260446Y0160328D01*
X0260462Y0160311D01*
X026049Y0160283D01*
X0260518Y0160256D01*
X0260557Y0160217D01*
X0260601Y0160172D01*
X0260651Y0160122D01*
X0260706Y0160067D01*
X0260768Y0160006D01*
X026084Y0159934D01*
X0260917Y0159856D01*
X0261001Y0159773D01*
X0261089Y0159684D01*
X0261189Y0159584D01*
X0261295Y0159484D01*
X0261406Y0159373D01*
X0261522Y0159251D01*
X0261644Y0159129D01*
X0261778Y0159001D01*
X0261911Y0158862D01*
X0262055Y0158718D01*
X026221Y0158568D01*
X0262366Y0158407D01*
X0262532Y0158247D01*
X0262704Y0158074D01*
X0262882Y0157897D01*
X0263065Y0157714D01*
X0263254Y0157519D01*
X0263454Y0157325D01*
X0263659Y015712D01*
X026387Y0156909D01*
X0268254D01*
X0268249Y0156903D01*
X0268238Y0156887D01*
X0268215Y0156859D01*
X0268188Y015682D01*
X0268149Y015677D01*
X0268105Y0156715D01*
X0268049Y0156642D01*
X0267988Y0156559D01*
X0267983Y0156554D01*
X0267977Y0156543D01*
X026796Y015652D01*
X0267944Y0156493D01*
X0267921Y0156459D01*
X0267894Y0156426D01*
X0267838Y0156337D01*
X0267833Y0156332D01*
X0267827Y0156315D01*
X026781Y0156293D01*
X0267794Y015626D01*
X0267772Y0156221D01*
X0267749Y0156182D01*
X0267705Y0156088D01*
X0267699Y0156076D01*
X0267683Y0156049D01*
X0267661Y0155999D01*
X0267638Y0155943D01*
X0267605Y0155871D01*
X0267572Y0155799D01*
X0267516Y0155638D01*
X0267511Y0155627D01*
X0267505Y0155605D01*
X0267494Y0155566D01*
X0267483Y0155527D01*
X0267477Y0155482D01*
X0267472Y0155438D01*
Y0155399D01*
X0267483Y0155372D01*
Y0155366D01*
X0267494Y015536D01*
X0267516Y0155349D01*
X0267544Y0155333D01*
X0267594Y0155322D01*
X0267661Y015531D01*
X0267699Y0155305D01*
X0267744Y0155299D01*
X026791D01*
X0267944Y0155305D01*
X0267977D01*
X0268066Y015531D01*
X0268177Y0155322D01*
X0268299Y0155333D01*
X0268438Y0155349D01*
X0268587Y0155372D01*
X0268599D01*
X0268626Y0155377D01*
X0268671Y0155388D01*
X0268726Y0155399D01*
X0268793Y015541D01*
X026887Y0155427D01*
X0268954Y0155444D01*
X0269037Y015546D01*
X0269048D01*
X0269076Y0155472D01*
X026912Y0155482D01*
X0269176Y0155494D01*
X0269237Y0155516D01*
X0269309Y0155533D01*
X0269459Y0155577D01*
X026947Y0155582D01*
X0269492Y0155588D01*
X0269531Y0155605D01*
X0269581Y0155621D01*
X0269647Y0155643D01*
X0269725Y0155677D01*
X0269808Y015571D01*
X0269903Y0155749D01*
X0269908D01*
X0269914Y0155754D01*
X0269947Y0155766D01*
X0269997Y0155788D01*
X0270058Y0155816D01*
X027013Y0155849D01*
X0270208Y0155882D01*
X0270286Y0155921D01*
X0270358Y0155954D01*
X0270363D01*
X0270374Y0155965D01*
X0270402Y0155976D01*
X027043Y0155988D01*
X0270469Y0156004D01*
X0270508Y0156021D01*
X0270608Y015606D01*
X0270719Y0156099D01*
X0270841Y0156132D01*
X0270957Y0156154D01*
X0271063Y015616D01*
X0271074D01*
X0271107Y0156154D01*
X0271163Y0156143D01*
X0271229Y0156126D01*
X0271301Y0156093D01*
X0271385Y0156049D01*
X0271468Y0155988D01*
X0271551Y0155904D01*
X0271557Y0155893D01*
X0271579Y0155871D01*
X0271607Y0155838D01*
X027164Y0155793D01*
X0271673Y0155738D01*
X0271701Y0155682D01*
X0271723Y0155627D01*
X0271729Y0155577D01*
Y0155571D01*
X0271723Y0155549D01*
X0271718Y0155516D01*
X0271707Y0155472D01*
X0271684Y0155416D01*
X0271651Y0155344D01*
X0271607Y0155261D01*
X0271551Y0155161D01*
X0271546Y0155155D01*
X0271534Y0155138D01*
X0271518Y0155111D01*
X027149Y0155077D01*
X0271457Y0155033D01*
X0271418Y0154983D01*
X0271374Y0154928D01*
X0271318Y0154867D01*
X0271257Y01548D01*
X0271196Y0154733D01*
X0271124Y0154667D01*
X0271041Y0154595D01*
X0270957Y0154522D01*
X0270868Y0154456D01*
X0270674Y0154323D01*
X0270669Y0154317D01*
X0270647Y0154306D01*
X0270619Y0154289D01*
X0270574Y0154267D01*
X0270524Y0154239D01*
X0270458Y0154212D01*
X0270386Y0154173D01*
X0270308Y0154139D01*
X0270214Y0154101D01*
X0270119Y0154062D01*
X0270014Y0154023D01*
X0269897Y0153984D01*
X0269781Y0153951D01*
X0269659Y0153918D01*
X0269392Y0153862D01*
X0269387D01*
X0269359Y0153856D01*
X026932Y0153851D01*
X026927Y015384D01*
X0269209Y0153829D01*
X0269137Y0153812D01*
X0269059Y0153795D01*
X0268976Y0153773D01*
X0268798Y0153729D01*
X0268621Y0153679D01*
X0268537Y0153651D01*
X0268454Y0153623D01*
X0268382Y0153596D01*
X0268316Y0153562D01*
X026831D01*
X0268299Y0153557D01*
X0268288Y0153546D01*
X0268266Y0153534D01*
X026821Y0153501D01*
X0268155Y0153457D01*
X0268093Y0153396D01*
X0268038Y0153329D01*
X0268016Y015329D01*
X0268005Y0153251D01*
X0267994Y0153207D01*
X0267988Y0153163D01*
Y0153157D01*
X0267994Y0153146D01*
X0268005Y0153129D01*
X0268016Y0153102D01*
X0268032Y0153074D01*
X026806Y0153035D01*
X0268099Y0152991D01*
X0268105Y0152985D01*
X0268121Y0152968D01*
X0268143Y0152941D01*
X0268177Y0152907D01*
X0268215Y0152863D01*
X026826Y0152819D01*
X0268316Y0152769D01*
X0268371Y0152713D01*
X0268376Y0152708D01*
X0268393Y0152691D01*
X0268426Y0152663D01*
X0268465Y0152624D01*
X0268521Y0152574D01*
X0268587Y0152513D01*
X0268671Y0152436D01*
X0268759Y0152352D01*
X0257071D01*
Y0152347D01*
Y0152336D01*
Y0152313D01*
Y015228D01*
Y0152241D01*
Y0152191D01*
Y0152136D01*
Y0152069D01*
Y0151992D01*
Y0151908D01*
Y0151814D01*
Y0151714D01*
Y0151603D01*
X0257066Y0151481D01*
Y0151353D01*
Y0151215D01*
Y015107D01*
Y0150915D01*
Y0150748D01*
Y0150576D01*
Y0150393D01*
Y0150199D01*
X025706Y0149999D01*
Y0149794D01*
Y0149572D01*
Y0149344D01*
Y0149111D01*
Y0148867D01*
Y0148612D01*
X0257054Y0148351D01*
Y0148079D01*
Y0147796D01*
Y014779D01*
Y0147785D01*
Y0147763D01*
Y014774D01*
Y0147713D01*
Y0147674D01*
Y0147635D01*
Y014759D01*
Y0147479D01*
Y0147352D01*
Y0147207D01*
Y0147052D01*
X0257049Y014688D01*
Y0146702D01*
Y0146514D01*
Y0146314D01*
Y0145914D01*
Y0145509D01*
Y0145504D01*
Y0145498D01*
Y0145481D01*
Y0145465D01*
Y0145409D01*
Y0145332D01*
Y0145243D01*
Y0145137D01*
Y0145021D01*
Y0144893D01*
X0257043Y0144754D01*
Y0144616D01*
Y0144327D01*
Y0144038D01*
Y01439D01*
Y0143766D01*
Y0143761D01*
Y014375D01*
Y0143733D01*
Y0143705D01*
Y0143678D01*
Y0143639D01*
Y0143556D01*
X0257038Y0143461D01*
Y0143361D01*
Y0143267D01*
Y0143178D01*
Y0143167D01*
Y0143139D01*
Y0143106D01*
Y0143056D01*
Y0143012D01*
Y0142967D01*
Y0142928D01*
Y0142901D01*
Y0142895D01*
Y0142878D01*
Y0142856D01*
Y0142817D01*
Y0142768D01*
Y0142712D01*
X0257032Y014264D01*
Y0142562D01*
X0257038Y0142557D01*
X0257049Y0142545D01*
X0257066Y0142529D01*
X0257093Y0142501D01*
X0257127Y0142468D01*
X0257171Y0142429D01*
X0257221Y0142379D01*
X0257282Y0142324D01*
X0257343Y0142262D01*
X0257421Y014219D01*
X0257499Y0142113D01*
X0257587Y0142024D01*
X0257687Y0141935D01*
X0257793Y0141835D01*
X0257904Y0141724D01*
X025802Y0141607D01*
X0258148Y0141485D01*
X0258287Y0141358D01*
X0258425Y0141219D01*
X0258575Y0141075D01*
X0258736Y0140919D01*
X0258903Y0140758D01*
X0259075Y0140592D01*
X0259258Y014042D01*
X0259447Y0140237D01*
X0259641Y0140048D01*
X0259846Y0139848D01*
X0260057Y0139643D01*
X0260279Y0139432D01*
X0260507Y013921D01*
X026074Y0138982D01*
X0260984Y0138749D01*
X0260989Y0138744D01*
X0261001Y0138733D01*
X0261017Y0138716D01*
X0261045Y0138688D01*
X0261078Y0138655D01*
X0261123Y0138616D01*
X0261173Y0138566D01*
X0261234Y0138511D01*
X0261295Y013845D01*
X0261372Y0138377D01*
X026145Y01383D01*
X0261539Y0138211D01*
X0261639Y0138122D01*
X0261744Y0138022D01*
X0261855Y0137911D01*
X0261972Y0137795D01*
X0262099Y0137673D01*
X0262238Y0137545D01*
X0262383Y0137406D01*
X0262532Y0137262D01*
X0262688Y0137107D01*
X0262854Y0136951D01*
X0263032Y0136779D01*
X026321Y0136607D01*
X0263398Y0136424D01*
X0263598Y0136235D01*
X0263803Y0136041D01*
X0264014Y0135836D01*
X0264236Y0135625D01*
X0264464Y0135403D01*
X0264697Y0135175D01*
X0264941Y0134942D01*
X0286647D01*
X0286653Y0134948D01*
X0286664Y0134959D01*
X028668Y0134975D01*
X0286708Y0135003D01*
X0286741Y0135036D01*
X0286786Y0135075D01*
X0286836Y0135125D01*
X0286897Y0135181D01*
X0286964Y0135242D01*
X0287036Y0135314D01*
X0287113Y0135392D01*
X0287202Y0135475D01*
X0287302Y0135569D01*
X0287407Y0135669D01*
X0287518Y0135775D01*
X0287641Y0135891D01*
X0287768Y0136013D01*
X0287901Y0136141D01*
X0288046Y0136279D01*
X0288196Y0136424D01*
X0288356Y0136574D01*
X0288523Y0136735D01*
X0288695Y0136901D01*
X0288878Y0137073D01*
X0289067Y0137256D01*
X0289261Y0137445D01*
X0289467Y0137645D01*
X0289683Y0137845D01*
X0289899Y0138061D01*
X0290132Y0138277D01*
X0290366Y0138505D01*
X029061Y0138738D01*
X0290615Y0138744D01*
X0290627Y0138755D01*
X0290643Y0138771D01*
X0290671Y0138799D01*
X0290704Y0138832D01*
X0290749Y0138871D01*
X0290798Y0138921D01*
X029086Y0138977D01*
X0290921Y0139038D01*
X0290998Y013911D01*
X0291076Y0139188D01*
X0291165Y0139277D01*
X0291265Y0139365D01*
X029137Y0139465D01*
X0291481Y0139576D01*
X0291598Y0139693D01*
X0291725Y0139815D01*
X0291864Y0139943D01*
X0292008Y0140081D01*
X0292158Y0140226D01*
X0292314Y0140375D01*
X029248Y0140536D01*
X0292658Y0140703D01*
X0292835Y0140881D01*
X0293024Y0141058D01*
X0293224Y0141247D01*
X0293429Y0141447D01*
X029364Y0141652D01*
X0293862Y0141863D01*
X029409Y0142079D01*
X0294323Y0142307D01*
X0294567Y014254D01*
Y0142551D01*
Y0142579D01*
Y0142629D01*
Y0142701D01*
Y014279D01*
Y0142895D01*
Y0143023D01*
Y0143173D01*
Y0143339D01*
Y0143528D01*
Y0143733D01*
Y0143961D01*
Y0144211D01*
Y0144477D01*
Y0144765D01*
X0294572Y0145071D01*
Y0145398D01*
Y0145742D01*
Y0146109D01*
Y0146492D01*
Y0146897D01*
Y0147324D01*
Y0147768D01*
Y0148229D01*
Y0148712D01*
Y0149217D01*
Y0149738D01*
Y0150282D01*
Y0150848D01*
Y0151431D01*
Y015203D01*
Y0152652D01*
Y0152663D01*
Y0152691D01*
Y0152741D01*
Y0152813D01*
Y0152902D01*
Y0153007D01*
Y0153135D01*
Y0153285D01*
Y0153451D01*
Y015364D01*
Y0153851D01*
Y0154073D01*
Y0154323D01*
Y0154589D01*
Y0154878D01*
X0294578Y0155183D01*
Y015551D01*
Y0155854D01*
Y0156221D01*
Y0156604D01*
Y0157009D01*
Y0157436D01*
Y015788D01*
Y0158346D01*
Y0158829D01*
Y0159334D01*
Y0159856D01*
Y01604D01*
Y016096D01*
Y0161543D01*
Y0162148D01*
Y016277D01*
X0294572Y0162775D01*
X0294567Y0162781D01*
X029455Y0162797D01*
X0294523Y0162825D01*
X0294495Y0162853D01*
X0294456Y0162892D01*
X0294411Y0162936D01*
X0294362Y0162986D01*
X0294306Y0163042D01*
X0294245Y0163103D01*
X0294173Y0163175D01*
X0294095Y0163252D01*
X0294012Y0163336D01*
X0293923Y0163425D01*
X0293823Y0163524D01*
X0293718Y016363D01*
X0293607Y0163735D01*
X029349Y0163857D01*
X0293368Y016398D01*
X0293235Y0164107D01*
X0293102Y0164246D01*
X0292957Y016439D01*
X0292802Y016454D01*
X0292647Y0164701D01*
X029248Y0164862D01*
X0292314Y0165034D01*
X029213Y0165212D01*
X0291947Y0165395D01*
X0291759Y0165589D01*
X0291559Y0165783D01*
X0291354Y0165989D01*
X0291143Y01662D01*
X0291137Y0166205D01*
X0291131Y0166211D01*
X0291115Y0166227D01*
X0291087Y0166255D01*
X0291059Y0166283D01*
X029102Y0166322D01*
X0290976Y0166366D01*
X0290926Y0166416D01*
X0290871Y0166472D01*
X029081Y0166533D01*
X0290737Y0166605D01*
X029066Y0166682D01*
X0290577Y0166766D01*
X0290488Y0166855D01*
X0290388Y0166954D01*
X0290288Y016706D01*
X0290177Y0167171D01*
X0290055Y0167287D01*
X0289933Y016741D01*
X0289805Y0167543D01*
X0289666Y0167676D01*
X0289522Y016782D01*
X0289372Y0167976D01*
X0289211Y0168131D01*
X028905Y0168298D01*
X0288878Y016847D01*
X0288701Y0168647D01*
X0288517Y016883D01*
X0288323Y0169019D01*
X0288129Y0169219D01*
X0287924Y0169424D01*
X0287713Y0169635D01*
X0282207D01*
X0282202Y0169646D01*
X0282179Y0169657D01*
X0282157Y0169668D01*
X0282124Y0169691D01*
X0282085Y0169713D01*
X0282041Y016974D01*
X0281991Y0169774D01*
X028193Y0169807D01*
X0281863Y0169846D01*
X0281785Y016989D01*
X0281708Y016994D01*
X0281619Y0169996D01*
X0281524Y0170051D01*
X0281424Y0170112D01*
X0281313Y0170179D01*
X0281302Y0170185D01*
X028128Y0170201D01*
X0281236Y0170229D01*
X028118Y0170262D01*
X0281114Y0170301D01*
X0281036Y0170351D01*
X0280947Y0170406D01*
X0280858Y0170468D01*
X0280659Y0170595D01*
X0280453Y0170728D01*
X0280353Y0170795D01*
X0280254Y0170862D01*
X0280165Y0170928D01*
X0280081Y0170989D01*
X0280076Y0170995D01*
X0280065Y0171006D01*
X0280043Y0171023D01*
X0280009Y0171045D01*
X0279976Y0171072D01*
X0279932Y0171111D01*
X0279832Y0171195D01*
X0279721Y0171294D01*
X0279593Y0171411D01*
X0279465Y0171539D01*
X0279343Y0171677D01*
X0279338Y0171683D01*
X0279327Y01717D01*
X027931Y0171722D01*
X0279282Y017175D01*
X0279249Y0171788D01*
X0279216Y0171833D01*
X0279177Y0171888D01*
X0279132Y0171944D01*
X0279038Y0172066D01*
X0278944Y0172199D01*
X0278849Y0172338D01*
X0278766Y0172477D01*
Y0172482D01*
X0278755Y0172493D01*
X0278749Y017251D01*
X0278733Y0172538D01*
X0278722Y0172571D01*
X0278705Y0172604D01*
X0278666Y0172693D01*
X0278627Y0172787D01*
X02786Y0172887D01*
X0278577Y0172993D01*
X0278566Y0173087D01*
Y0173093D01*
Y0173104D01*
Y0173115D01*
Y0173137D01*
X0278572Y0173193D01*
X0278583Y0173254D01*
X0278594Y017332D01*
X0278616Y0173381D01*
X0278649Y0173431D01*
X0278666Y0173453D01*
X0278688Y0173465D01*
X0278694D01*
X0278711Y017347D01*
X0278744Y0173476D01*
X0278788D01*
X0278849Y0173465D01*
X0278927Y0173448D01*
X0279021Y0173415D01*
X0279132Y0173365D01*
X0279138D01*
X0279155Y0173354D01*
X0279182Y0173343D01*
X0279221Y0173326D01*
X0279271Y0173304D01*
X0279327Y0173281D01*
X0279393Y0173254D01*
X0279471Y0173226D01*
X027956Y0173193D01*
X0279648Y0173159D01*
X0279754Y0173126D01*
X0279859Y0173093D01*
X0279976Y0173059D01*
X0280098Y0173026D01*
X0280231Y0172993D01*
X0280364Y0172965D01*
X0280376D01*
X0280398Y0172959D01*
X0280437Y0172948D01*
X0280492Y0172937D01*
X0280564Y0172926D01*
X0280648Y0172915D01*
X0280747Y0172898D01*
X0280853Y0172882D01*
X0280975Y017286D01*
X0281108Y0172843D01*
X0281247Y0172826D01*
X0281402Y017281D01*
X0281558Y0172793D01*
X028173Y0172776D01*
X0281902Y017276D01*
X0282085Y0172749D01*
X0282096D01*
X0282129Y0172743D01*
X0282179Y0172738D01*
X0282246Y0172732D01*
X0282324Y0172726D01*
X0282418Y0172715D01*
X0282512Y0172704D01*
X0282618Y0172688D01*
X0282629D01*
X0282662Y0172682D01*
X0282718Y0172671D01*
X0282779Y017266D01*
X0282845Y0172649D01*
X0282917Y0172632D01*
X0282984Y0172615D01*
X0283045Y0172599D01*
X0283051D01*
X0283062Y0172593D01*
X0283073D01*
X0283095Y0172588D01*
X0283151Y0172571D01*
X0283217Y017256D01*
X0283295Y0172543D01*
X0283367Y0172538D01*
X0283434D01*
X0283489Y0172549D01*
X0283495D01*
X0283511Y017256D01*
X0283534Y0172576D01*
X0283561Y0172599D01*
X0283589Y0172638D01*
X0283611Y0172682D01*
X0283633Y0172743D01*
X028365Y0172815D01*
Y0172821D01*
Y0172843D01*
X0283645Y0172876D01*
X0283633Y0172932D01*
X0283611Y0172993D01*
X0283578Y0173076D01*
X0283534Y0173176D01*
X0283467Y0173293D01*
Y0173298D01*
X0283456Y0173309D01*
X0283445Y0173326D01*
X0283434Y0173348D01*
X0283389Y0173409D01*
X0283339Y0173487D01*
X0283273Y0173575D01*
X0283195Y017367D01*
X0283112Y0173764D01*
X0283023Y0173853D01*
X0283017Y0173859D01*
X0283012Y0173864D01*
X0282984Y0173892D01*
X0282945Y0173936D01*
X0282906Y0173981D01*
Y0173986D01*
X0282901Y0173992D01*
X0282884Y0174014D01*
X0282862Y0174042D01*
X0282856Y0174064D01*
X0282862D01*
X0282868Y0174069D01*
X0282884D01*
X0282912Y0174075D01*
X0282951D01*
X0283006Y0174081D01*
X0283178D01*
X0283256Y0174086D01*
X0283345D01*
X0283461Y0174092D01*
X0283589D01*
X0283739Y0174097D01*
X0283883D01*
X0283961Y0174103D01*
X0284433D01*
X0284594Y0174108D01*
X0285149D01*
X0285365Y0174114D01*
X0286497D01*
X0286686Y0174119D01*
X0294578D01*
Y0174125D01*
Y0174142D01*
Y0174169D01*
Y0174203D01*
Y0174253D01*
Y0174308D01*
Y017438D01*
Y0174458D01*
Y0174547D01*
Y0174647D01*
Y0174758D01*
Y017488D01*
Y0175013D01*
Y0175157D01*
Y0175307D01*
Y0175474D01*
Y0175646D01*
Y0175834D01*
Y0176029D01*
Y0176234D01*
Y0176451D01*
Y0176678D01*
Y0176917D01*
Y0177161D01*
Y0177422D01*
X0294572Y0177694D01*
Y0177971D01*
Y0178265D01*
Y0178565D01*
Y0178876D01*
Y0179198D01*
Y0179531D01*
Y0179536D01*
Y0179553D01*
Y0179581D01*
Y0179614D01*
Y0179664D01*
Y0179719D01*
Y0179792D01*
Y0179869D01*
Y0179958D01*
Y0180058D01*
Y0180169D01*
Y0180291D01*
Y0180424D01*
Y0180569D01*
Y0180718D01*
Y0180885D01*
Y0181057D01*
Y018124D01*
Y018144D01*
Y0181645D01*
Y0181862D01*
Y0182089D01*
Y0182322D01*
Y0182572D01*
Y0182833D01*
X0294567Y0183099D01*
Y0183382D01*
Y0183671D01*
Y0183971D01*
Y0184282D01*
Y0184603D01*
Y0184936D01*
X0294561Y0184942D01*
X029455Y0184953D01*
X0294534Y018497D01*
X0294506Y0184997D01*
X0294473Y0185031D01*
X0294428Y018507D01*
X0294378Y018512D01*
X0294317Y0185175D01*
X0294251Y0185242D01*
X0294179Y0185314D01*
X0294095Y0185391D01*
X0294006Y0185475D01*
X0293912Y0185569D01*
X0293807Y0185669D01*
X029369Y018578D01*
X0293573Y0185897D01*
X029344Y0186019D01*
X0293307Y0186152D01*
X0293163Y0186291D01*
X0293007Y0186435D01*
X0292852Y018659D01*
X029268Y0186751D01*
X0292508Y0186918D01*
X0292325Y0187095D01*
X029213Y0187278D01*
X0291936Y0187467D01*
X0291725Y0187667D01*
X0291514Y0187872D01*
X0291293Y0188083D01*
X0291059Y0188305D01*
X0290821Y0188533D01*
X0290577Y0188766D01*
X0290571Y0188771D01*
X029056Y0188783D01*
X0290543Y0188799D01*
X0290515Y0188827D01*
X0290477Y018886D01*
X0290438Y0188899D01*
X0290388Y0188949D01*
X0290327Y0189005D01*
X029026Y0189071D01*
X0290188Y0189143D01*
X0290105Y0189221D01*
X0290016Y0189304D01*
X0289916Y0189399D01*
X0289811Y0189504D01*
X02897Y018961D01*
X0289578Y0189726D01*
X028945Y0189848D01*
X0289311Y0189981D01*
X0289167Y019012D01*
X0289017Y0190264D01*
X0288856Y019042D01*
X0288689Y0190581D01*
X0288512Y0190747D01*
X0288329Y0190925D01*
X028814Y0191108D01*
X028794Y0191297D01*
X0287729Y0191497D01*
X0287518Y0191702D01*
X0287297Y0191918D01*
X0287063Y0192135D01*
X0286825Y0192368D01*
X028658Y0192601D01*
D02*
G37*
%LPD*%
G36*
X0265951Y0151342D02*
X0267133D01*
X0267439Y0151337D01*
X0267744D01*
X0267888Y0151331D01*
X0268243D01*
X0268376Y0151326D01*
X0268659D01*
X0268698Y015132D01*
X0268726D01*
Y0151314D01*
X0268715Y0151309D01*
X0268704Y0151303D01*
X0268682Y0151287D01*
X0268654Y0151265D01*
X026861Y0151237D01*
X0268548Y0151204D01*
X0268543Y0151198D01*
X0268515Y0151187D01*
X0268482Y0151165D01*
X0268432Y0151137D01*
X0268365Y0151104D01*
X0268293Y0151065D01*
X0268215Y015102D01*
X0268127Y0150976D01*
X0268121Y015097D01*
X0268105Y0150965D01*
X0268077Y0150948D01*
X0268038Y0150926D01*
X0267988Y0150898D01*
X0267938Y0150871D01*
X0267877Y0150832D01*
X026781Y0150793D01*
X0267661Y0150704D01*
X02675Y0150599D01*
X0267333Y0150488D01*
X0267172Y0150365D01*
X0267167Y015036D01*
X0267156Y0150349D01*
X0267133Y0150332D01*
X0267106Y015031D01*
X0267067Y0150282D01*
X0267028Y0150249D01*
X0266939Y0150166D01*
X0266839Y0150071D01*
X0266739Y0149971D01*
X0266645Y0149866D01*
X0266606Y014981D01*
X0266567Y014976D01*
Y0149755D01*
X0266556Y0149744D01*
X0266545Y0149727D01*
X0266534Y0149699D01*
X0266512Y0149666D01*
X0266495Y0149627D01*
X0266467Y0149583D01*
X0266445Y0149533D01*
X026644Y0149527D01*
X0266434Y0149505D01*
X0266417Y0149477D01*
X0266401Y0149439D01*
X0266378Y0149389D01*
X0266351Y0149333D01*
X0266323Y0149267D01*
X0266295Y01492D01*
Y0149194D01*
X026629Y0149183D01*
X0266279Y0149167D01*
X0266273Y0149139D01*
X0266256Y0149106D01*
X026624Y0149067D01*
X0266223Y0149022D01*
X0266206Y0148978D01*
X0266162Y0148861D01*
X0266112Y0148734D01*
X0266057Y014859D01*
X0266001Y0148434D01*
Y0148428D01*
X0265996Y0148417D01*
X026599Y0148395D01*
X0265979Y0148362D01*
X0265968Y0148329D01*
X0265951Y0148284D01*
X0265918Y0148179D01*
X0265879Y0148062D01*
X026584Y0147934D01*
X0265801Y0147801D01*
X0265768Y0147668D01*
Y0147663D01*
X0265762Y0147652D01*
X0265757Y0147629D01*
X0265751Y0147601D01*
X0265746Y0147568D01*
X0265735Y0147529D01*
X0265718Y0147435D01*
X0265701Y014733D01*
X0265685Y0147219D01*
X0265674Y0147113D01*
Y0147008D01*
Y0147002D01*
Y0146997D01*
X0265679Y0146963D01*
X0265685Y0146913D01*
X0265696Y0146852D01*
X0265712Y0146775D01*
X026574Y0146697D01*
X0265774Y0146619D01*
X0265818Y0146542D01*
X0265824Y0146536D01*
X026584Y0146514D01*
X0265862Y0146486D01*
X0265896Y0146458D01*
X026594Y0146431D01*
X0265985Y0146414D01*
X026604Y0146403D01*
X0266101Y0146414D01*
X0266107Y0146419D01*
X0266134Y0146425D01*
X0266173Y0146447D01*
X0266229Y014648D01*
X0266295Y014653D01*
X0266384Y0146597D01*
X0266484Y014668D01*
X0266539Y014673D01*
X02666Y0146786D01*
X0266606Y0146791D01*
X0266617Y0146802D01*
X0266634Y0146819D01*
X0266662Y0146841D01*
X0266695Y0146874D01*
X0266734Y0146908D01*
X0266778Y0146947D01*
X0266834Y0146991D01*
X026695Y0147091D01*
X0267089Y0147202D01*
X0267244Y0147318D01*
X0267416Y0147435D01*
X0267422Y0147441D01*
X0267439Y0147452D01*
X0267466Y0147468D01*
X02675Y0147491D01*
X0267544Y0147518D01*
X0267594Y0147552D01*
X0267655Y0147585D01*
X0267722Y0147629D01*
X0267799Y0147674D01*
X0267877Y0147718D01*
X0268055Y0147824D01*
X0268249Y0147929D01*
X0268454Y0148034D01*
X026846D01*
X0268465Y014804D01*
X0268493Y0148057D01*
X0268537Y0148079D01*
X0268599Y0148107D01*
X0268665Y014814D01*
X0268737Y0148173D01*
X0268887Y0148245D01*
X0268898Y0148251D01*
X026892Y0148262D01*
X0268959Y0148279D01*
X0269009Y0148301D01*
X0269065Y0148323D01*
X0269131Y0148351D01*
X0269265Y0148401D01*
X026927D01*
X0269281Y0148406D01*
X0269298Y0148412D01*
X026932Y0148423D01*
X0269348Y0148428D01*
X0269387Y0148445D01*
X0269464Y0148467D01*
X0269564Y0148501D01*
X026967Y0148528D01*
X0269781Y0148556D01*
X0269892Y0148584D01*
X0269908D01*
X0269925Y014859D01*
X0269947Y0148595D01*
X0269975Y01486D01*
X0270008Y0148606D01*
X0270097Y0148617D01*
X0270202Y0148628D01*
X0270324Y0148645D01*
X0270463Y0148662D01*
X0270613Y0148673D01*
X0270641D01*
X0270674Y0148678D01*
X0270719Y0148684D01*
X0270774Y0148689D01*
X0270841Y0148695D01*
X0270913Y01487D01*
X027099Y0148706D01*
X0271157Y0148728D01*
X0271335Y014875D01*
X0271507Y0148778D01*
X027159Y0148789D01*
X0271668Y0148806D01*
X0271673D01*
X0271684Y0148811D01*
X0271707Y0148817D01*
X0271734Y0148823D01*
X0271773Y0148828D01*
X0271812Y0148839D01*
X0271906Y0148867D01*
X0272017Y0148906D01*
X0272139Y014895D01*
X0272267Y0149D01*
X0272389Y0149061D01*
X0272395Y0149067D01*
X0272417Y0149078D01*
X027245Y01491D01*
X0272495Y0149122D01*
X027255Y0149155D01*
X0272606Y0149194D01*
X0272728Y0149283D01*
X0272733Y0149289D01*
X0272756Y0149305D01*
X0272789Y0149333D01*
X0272833Y0149366D01*
X0272889Y0149411D01*
X0272944Y0149466D01*
X0273011Y0149522D01*
X0273077Y0149583D01*
X0273089Y0149588D01*
X0273111Y0149611D01*
X0273149Y0149644D01*
X0273199Y0149688D01*
X0273255Y0149738D01*
X0273322Y0149794D01*
X0273466Y014991D01*
X0273477Y0149916D01*
X0273499Y0149938D01*
X0273533Y014996D01*
X0273577Y0149994D01*
X0273666Y015006D01*
X027371Y0150088D01*
X0273749Y015011D01*
X0273754D01*
X027376Y0150116D01*
X0273793Y0150132D01*
X0273838Y0150154D01*
X0273888Y0150182D01*
X0273893D01*
X0273899Y0150188D01*
X0273926Y0150199D01*
X027396Y0150205D01*
X0273999D01*
X0274004Y0150199D01*
X0274021Y0150188D01*
X0274038Y0150166D01*
X0274054Y0150132D01*
X0274071Y0150088D01*
X0274087Y0150027D01*
X0274104Y0149944D01*
Y0149933D01*
X027411Y0149916D01*
Y0149894D01*
Y0149866D01*
X0274115Y0149833D01*
X0274121Y0149788D01*
Y0149738D01*
X0274126Y0149677D01*
Y0149611D01*
X0274132Y0149539D01*
X0274137Y014945D01*
Y0149361D01*
Y0149255D01*
X0274143Y0149144D01*
Y0149022D01*
Y0149011D01*
Y0148989D01*
Y014895D01*
Y0148895D01*
Y0148828D01*
Y0148756D01*
Y0148673D01*
Y0148584D01*
Y0148578D01*
Y0148573D01*
Y0148556D01*
Y0148528D01*
Y0148501D01*
Y0148467D01*
Y0148384D01*
Y0148284D01*
Y0148168D01*
Y0148046D01*
Y0147907D01*
Y0147901D01*
Y0147873D01*
Y014784D01*
Y0147785D01*
Y0147724D01*
Y0147646D01*
Y0147552D01*
X0274137Y0147452D01*
Y0147335D01*
Y0147213D01*
Y014708D01*
Y0146935D01*
Y014678D01*
X0274132Y0146619D01*
Y0146453D01*
Y0146275D01*
Y0146264D01*
Y0146231D01*
Y0146181D01*
Y0146114D01*
Y0146031D01*
X0274126Y0145937D01*
Y0145831D01*
Y0145709D01*
Y0145581D01*
Y0145448D01*
X0274121Y0145171D01*
Y0144882D01*
Y0144605D01*
Y0144599D01*
Y0144571D01*
Y0144532D01*
Y0144482D01*
X0274115Y0144421D01*
Y0144349D01*
Y0144266D01*
Y0144177D01*
X027411Y0144083D01*
Y0143983D01*
X0274104Y0143772D01*
X0274098Y0143561D01*
X0274093Y014335D01*
Y0143345D01*
Y0143334D01*
Y0143311D01*
Y0143278D01*
X0274087Y0143245D01*
Y01432D01*
Y0143101D01*
X0274082Y0142984D01*
X0274076Y0142856D01*
X0274065Y0142729D01*
X027406Y0142606D01*
Y0142601D01*
Y014259D01*
Y0142573D01*
X0274054Y0142551D01*
X0274049Y014249D01*
X0274043Y0142412D01*
X0274032Y0142324D01*
X0274021Y0142224D01*
X027401Y0142124D01*
X0273993Y0142024D01*
Y0142018D01*
X0273988Y0142002D01*
Y0141979D01*
X0273976Y0141946D01*
X0273971Y0141907D01*
X027396Y0141863D01*
X0273938Y0141752D01*
X0273904Y0141635D01*
X0273866Y0141508D01*
X0273821Y014138D01*
X0273765Y0141263D01*
Y0141258D01*
X027376Y0141252D01*
X0273749Y0141236D01*
X0273738Y0141214D01*
X0273705Y0141158D01*
X027366Y014108D01*
X0273599Y0140991D01*
X0273527Y0140897D01*
X0273444Y0140792D01*
X0273349Y0140686D01*
X0273344Y0140681D01*
X0273327Y0140664D01*
X0273299Y0140631D01*
X027326Y0140597D01*
X0273216Y0140548D01*
X0273166Y0140498D01*
X0273105Y0140442D01*
X0273044Y0140387D01*
X0273039Y0140381D01*
X0273016Y0140359D01*
X0272983Y0140325D01*
X0272933Y0140281D01*
X0272878Y0140231D01*
X0272816Y014017D01*
X027275Y0140103D01*
X0272672Y0140031D01*
X0272661Y0140026D01*
X0272639Y0139998D01*
X02726Y0139965D01*
X0272556Y013992D01*
X02725Y013987D01*
X0272439Y0139815D01*
X0272323Y0139698D01*
X0272317Y0139693D01*
X0272295Y0139671D01*
X0272267Y0139643D01*
X0272234Y013961D01*
X0272189Y0139565D01*
X0272145Y0139515D01*
X0272045Y0139415D01*
X0272034Y0139404D01*
X0272006Y0139371D01*
X0271962Y0139327D01*
X0271906Y013926D01*
X0271845Y0139188D01*
X0271773Y0139104D01*
X0271634Y0138932D01*
X0271629Y0138921D01*
X0271601Y0138888D01*
X0271568Y0138838D01*
X0271518Y0138771D01*
X0271457Y0138683D01*
X0271385Y0138583D01*
X0271307Y0138472D01*
X0271224Y0138344D01*
Y0138339D01*
X0271213Y0138328D01*
X0271201Y0138311D01*
X0271185Y0138283D01*
X0271163Y013825D01*
X0271135Y0138211D01*
X0271074Y0138122D01*
X0271007Y0138022D01*
X027093Y0137911D01*
X0270846Y01378D01*
X0270769Y0137689D01*
Y0137684D01*
X0270758Y0137678D01*
X0270746Y0137662D01*
X0270735Y0137639D01*
X0270691Y0137584D01*
X0270641Y0137517D01*
X0270574Y0137434D01*
X0270508Y0137345D01*
X0270436Y0137262D01*
X0270358Y0137173D01*
X0270352Y0137168D01*
X0270341Y0137156D01*
X0270319Y0137134D01*
X0270297Y0137101D01*
X0270258Y0137068D01*
X0270219Y0137029D01*
X0270125Y0136934D01*
X0270014Y0136823D01*
X0269886Y0136712D01*
X0269753Y0136607D01*
X0269614Y0136507D01*
X0269609D01*
X0269598Y0136496D01*
X0269575Y0136485D01*
X0269548Y0136468D01*
X0269514Y0136446D01*
X026947Y0136418D01*
X0269426Y0136391D01*
X026937Y0136363D01*
X0269309Y0136329D01*
X0269242Y0136296D01*
X0269098Y0136224D01*
X0268937Y0136152D01*
X0268765Y0136085D01*
X0268754Y013608D01*
X0268726Y0136074D01*
X0268682Y0136057D01*
X0268626Y0136041D01*
X026856Y0136024D01*
X0268493Y0136002D01*
X0268349Y0135969D01*
X0268338D01*
X0268316Y0135963D01*
X0268266Y0135958D01*
X0268204Y0135952D01*
X0268121Y0135941D01*
X0268021Y0135935D01*
X0267899Y0135924D01*
X026776Y0135919D01*
X0267733D01*
X0267694Y0135913D01*
X0267649D01*
X0267588Y0135908D01*
X0267522D01*
X026745Y0135902D01*
X0267278D01*
X0267217Y0135897D01*
X026705D01*
X026695Y0135891D01*
X0266756D01*
X0266706Y0135886D01*
X0266484D01*
X0266384Y013588D01*
X0266279D01*
X0266162Y0135874D01*
X0266029D01*
X026589Y0135869D01*
X0265735Y0135863D01*
X0265574D01*
X0265396Y0135858D01*
X0265391Y0135863D01*
X026538Y0135874D01*
X0265363Y0135891D01*
X0265341Y0135913D01*
X0265307Y0135947D01*
X0265268Y0135985D01*
X0265219Y013603D01*
X0265163Y013608D01*
X0265102Y0136141D01*
X0265035Y0136207D01*
X0264958Y0136279D01*
X0264874Y0136357D01*
X0264786Y0136446D01*
X0264691Y013654D01*
X0264586Y013664D01*
X0264475Y0136751D01*
X0264353Y0136862D01*
X0264225Y0136984D01*
X0264092Y0137112D01*
X0263953Y0137251D01*
X0263803Y0137395D01*
X0263648Y0137539D01*
X0263487Y01377D01*
X0263315Y0137861D01*
X0263143Y0138033D01*
X0262954Y0138211D01*
X0262766Y0138394D01*
X0262566Y0138588D01*
X026236Y0138783D01*
X0262149Y0138988D01*
X0261927Y0139204D01*
X02617Y0139421D01*
X0261694Y0139426D01*
X0261683Y0139437D01*
X0261667Y0139454D01*
X0261644Y0139476D01*
X0261611Y013951D01*
X0261572Y0139549D01*
X0261522Y0139593D01*
X0261467Y0139643D01*
X0261406Y0139704D01*
X0261339Y013977D01*
X0261261Y0139843D01*
X0261178Y013992D01*
X0261089Y0140009D01*
X0260995Y0140103D01*
X026089Y0140203D01*
X0260778Y0140314D01*
X0260656Y0140425D01*
X0260529Y0140548D01*
X0260396Y0140675D01*
X0260257Y0140814D01*
X0260107Y0140958D01*
X0259952Y0141103D01*
X0259791Y0141263D01*
X0259619Y0141424D01*
X0259447Y0141596D01*
X0259258Y0141774D01*
X0259069Y0141957D01*
X0258869Y0142151D01*
X0258664Y0142346D01*
X0258453Y0142551D01*
X0258231Y0142768D01*
X0258003Y0142984D01*
Y014299D01*
Y0143017D01*
Y0143056D01*
Y0143117D01*
Y0143189D01*
Y0143278D01*
Y0143384D01*
Y0143506D01*
Y0143644D01*
Y01438D01*
Y0143972D01*
Y014416D01*
Y0144366D01*
Y0144582D01*
Y0144821D01*
Y0145076D01*
Y0145082D01*
Y014511D01*
Y0145149D01*
Y0145204D01*
Y0145282D01*
Y014537D01*
Y0145476D01*
Y0145598D01*
Y0145737D01*
Y0145892D01*
Y0146064D01*
Y0146247D01*
Y0146453D01*
Y0146675D01*
Y0146908D01*
Y0147163D01*
Y0147169D01*
Y014718D01*
Y0147202D01*
Y014723D01*
Y0147263D01*
Y0147313D01*
Y0147363D01*
Y0147424D01*
Y0147496D01*
Y0147574D01*
Y0147657D01*
Y0147751D01*
Y0147857D01*
Y0147968D01*
Y0148084D01*
Y0148212D01*
Y0148345D01*
Y014849D01*
Y0148639D01*
Y01488D01*
Y0148967D01*
Y0149144D01*
Y0149328D01*
Y0149516D01*
Y0149722D01*
Y0149927D01*
Y0150144D01*
Y0150371D01*
Y0150599D01*
Y0150843D01*
Y0151093D01*
Y0151348D01*
X0265718D01*
X0265951Y0151342D01*
D02*
G37*
G36*
X028738Y0168625D02*
X0287385Y0168619D01*
X0287402Y0168603D01*
X0287424Y016858D01*
X0287452Y0168553D01*
X0287485Y0168519D01*
X0287524Y0168481D01*
X0287568Y0168436D01*
X0287618Y0168386D01*
X0287679Y0168331D01*
X028774Y0168264D01*
X0287813Y0168198D01*
X0287885Y016812D01*
X0287968Y0168037D01*
X0288057Y0167948D01*
X0288151Y0167859D01*
X0288251Y0167759D01*
X0288356Y0167648D01*
X0288468Y0167537D01*
X0288584Y0167421D01*
X0288712Y0167298D01*
X0288839Y0167165D01*
X0288978Y0167032D01*
X0289117Y0166888D01*
X0289267Y0166738D01*
X0289422Y0166588D01*
X0289583Y0166427D01*
X028975Y0166261D01*
X0289922Y0166089D01*
X0290099Y0165911D01*
X0290288Y0165722D01*
X0290477Y0165534D01*
X0290482Y0165528D01*
X0290488Y0165523D01*
X0290504Y0165506D01*
X0290527Y0165484D01*
X0290554Y0165456D01*
X0290588Y0165423D01*
X0290627Y0165384D01*
X0290671Y0165339D01*
X0290721Y0165289D01*
X0290782Y0165234D01*
X0290843Y0165167D01*
X0290915Y0165101D01*
X0290987Y0165023D01*
X029107Y016494D01*
X0291159Y0164851D01*
X0291254Y0164762D01*
X0291354Y0164662D01*
X0291459Y0164551D01*
X029157Y016444D01*
X0291687Y0164324D01*
X0291809Y0164202D01*
X0291942Y0164068D01*
X0292075Y0163935D01*
X0292219Y0163791D01*
X0292369Y0163641D01*
X0292519Y0163491D01*
X029268Y016333D01*
X0292846Y0163164D01*
X0293019Y0162992D01*
X0293196Y0162814D01*
X0293385Y0162625D01*
X0293573Y0162437D01*
Y0162426D01*
Y0162398D01*
Y0162353D01*
Y0162287D01*
Y0162198D01*
Y0162093D01*
Y016197D01*
Y0161826D01*
Y0161665D01*
Y0161482D01*
Y0161282D01*
Y0161066D01*
Y0160827D01*
Y0160572D01*
Y0160294D01*
Y016D01*
Y0159684D01*
Y0159351D01*
Y0159001D01*
Y0158629D01*
Y0158235D01*
Y015783D01*
Y0157403D01*
Y0156953D01*
Y0156487D01*
Y0156004D01*
Y0155499D01*
Y0154972D01*
Y0154434D01*
Y0153873D01*
Y015329D01*
Y0152691D01*
Y015268D01*
Y0152652D01*
Y0152608D01*
Y0152541D01*
Y0152452D01*
Y0152347D01*
Y0152225D01*
Y015208D01*
Y0151919D01*
Y0151736D01*
Y0151537D01*
Y015132D01*
Y0151081D01*
Y0150826D01*
Y0150549D01*
Y0150254D01*
Y0149938D01*
Y0149605D01*
Y014925D01*
Y0148884D01*
Y014849D01*
Y0148079D01*
Y0147652D01*
Y0147207D01*
Y0146741D01*
Y0146253D01*
Y0145748D01*
Y0145226D01*
Y0144682D01*
Y0144122D01*
Y0143539D01*
Y014294D01*
X0293568Y0142934D01*
X0293557Y0142928D01*
X029354Y0142906D01*
X0293518Y0142884D01*
X0293485Y0142856D01*
X0293446Y0142817D01*
X0293396Y0142773D01*
X0293346Y0142718D01*
X0293285Y0142662D01*
X0293218Y0142596D01*
X0293141Y0142523D01*
X0293057Y0142446D01*
X0292969Y0142362D01*
X0292874Y0142268D01*
X0292769Y0142168D01*
X0292658Y0142063D01*
X0292541Y0141946D01*
X0292413Y014183D01*
X0292286Y0141702D01*
X0292142Y0141569D01*
X0291997Y0141424D01*
X0291842Y014128D01*
X0291681Y0141125D01*
X0291514Y0140964D01*
X0291342Y0140797D01*
X0291159Y014062D01*
X0290971Y0140436D01*
X0290771Y0140248D01*
X0290571Y0140053D01*
X029036Y0139854D01*
X0290144Y0139643D01*
X0289916Y0139426D01*
X0289911Y0139421D01*
X0289899Y0139415D01*
X0289883Y0139393D01*
X0289861Y0139371D01*
X0289827Y0139343D01*
X0289788Y0139304D01*
X0289738Y013926D01*
X0289688Y0139204D01*
X0289627Y0139149D01*
X0289561Y0139082D01*
X0289483Y013901D01*
X02894Y0138932D01*
X0289311Y0138844D01*
X0289217Y0138755D01*
X0289111Y0138655D01*
X0289Y0138549D01*
X0288884Y0138433D01*
X0288756Y0138316D01*
X0288629Y0138189D01*
X0288484Y0138056D01*
X028834Y0137911D01*
X0288184Y0137767D01*
X0288023Y0137612D01*
X0287857Y0137451D01*
X0287685Y0137278D01*
X0287502Y0137107D01*
X0287313Y0136923D01*
X0287113Y0136735D01*
X0286913Y0136535D01*
X0286703Y0136335D01*
X0286486Y0136124D01*
X0286259Y0135908D01*
X0285798D01*
X0285698Y0135902D01*
X0285354D01*
X0285221Y0135897D01*
X0284627D01*
X0284516Y0135902D01*
X0284277D01*
X028415Y0135908D01*
X0284077D01*
X0284044Y0135913D01*
X0284005D01*
X0283916Y0135919D01*
X0283817D01*
X0283722Y0135924D01*
X0283639Y0135935D01*
X0283606D01*
X0283578Y0135941D01*
X0283572D01*
X0283561Y0135947D01*
X0283539D01*
X0283506Y0135952D01*
X0283472Y0135963D01*
X0283428Y0135969D01*
X0283378Y013598D01*
X0283323Y0135996D01*
X0283201Y0136024D01*
X0283067Y0136057D01*
X0282917Y0136102D01*
X0282768Y0136146D01*
X0282762D01*
X0282751Y0136152D01*
X0282729Y0136157D01*
X0282696Y0136169D01*
X0282662Y0136185D01*
X0282618Y0136202D01*
X0282562Y0136219D01*
X0282507Y0136241D01*
X0282385Y0136291D01*
X028224Y0136346D01*
X028209Y0136413D01*
X028193Y013649D01*
X0281924D01*
X0281913Y0136496D01*
X0281896Y0136507D01*
X0281874Y0136518D01*
X0281813Y0136551D01*
X028173Y013659D01*
X0281641Y013664D01*
X0281547Y0136701D01*
X0281452Y0136762D01*
X0281358Y0136823D01*
X0281347Y0136829D01*
X0281313Y0136857D01*
X0281264Y0136896D01*
X0281197Y0136957D01*
X0281108Y0137034D01*
X0281003Y0137129D01*
X0280881Y013724D01*
X0280747Y0137373D01*
X0280742Y0137378D01*
X0280736Y0137384D01*
X0280714Y0137401D01*
X0280692Y0137423D01*
X0280631Y0137484D01*
X0280553Y0137556D01*
X0280459Y0137639D01*
X0280353Y0137734D01*
X0280242Y0137828D01*
X0280126Y0137922D01*
X028012Y0137928D01*
X0280115Y0137933D01*
X0280098Y0137945D01*
X028007Y0137967D01*
X0280009Y0138011D01*
X0279932Y0138072D01*
X0279837Y0138139D01*
X0279737Y0138211D01*
X0279626Y0138283D01*
X027951Y0138355D01*
X0279499Y0138361D01*
X0279465Y0138383D01*
X0279415Y0138416D01*
X0279349Y0138455D01*
X0279271Y0138511D01*
X0279177Y0138577D01*
X0279071Y0138649D01*
X027896Y0138738D01*
X0278844Y0138827D01*
X0278727Y0138927D01*
X0278605Y0139032D01*
X0278489Y0139149D01*
X0278372Y0139266D01*
X0278261Y0139388D01*
X0278156Y0139515D01*
X0278061Y0139648D01*
X0278056Y013966D01*
X0278039Y0139682D01*
X0278017Y0139721D01*
X0277984Y0139776D01*
X0277945Y0139848D01*
X0277906Y0139931D01*
X0277856Y0140026D01*
X0277806Y0140142D01*
X0277756Y0140264D01*
X02777Y0140403D01*
X0277651Y0140553D01*
X0277601Y0140714D01*
X0277551Y0140886D01*
X0277506Y0141069D01*
X0277467Y0141258D01*
X0277434Y0141463D01*
Y0141469D01*
Y0141474D01*
Y0141491D01*
X0277429Y0141513D01*
Y0141541D01*
X0277423Y014158D01*
Y0141624D01*
X0277417Y014168D01*
X0277412Y0141741D01*
Y0141818D01*
X0277406Y0141902D01*
X0277401Y0142002D01*
X0277395Y0142113D01*
Y0142235D01*
X027739Y0142368D01*
X0277384Y0142518D01*
Y0142529D01*
Y0142557D01*
Y0142601D01*
Y0142662D01*
X0277379Y014274D01*
Y0142834D01*
Y014294D01*
Y0143056D01*
X0277373Y0143184D01*
Y0143323D01*
Y0143472D01*
Y0143633D01*
X0277367Y01438D01*
Y0143972D01*
Y0144149D01*
Y0144333D01*
Y0144338D01*
Y0144344D01*
Y014436D01*
Y0144383D01*
Y0144438D01*
Y0144516D01*
X0277362Y0144599D01*
Y0144699D01*
Y0144804D01*
Y014491D01*
Y0144915D01*
Y0144932D01*
Y014496D01*
Y0144993D01*
Y0145032D01*
Y0145076D01*
X0277367Y0145171D01*
Y0145176D01*
Y0145187D01*
Y0145215D01*
Y0145243D01*
Y0145282D01*
Y0145326D01*
Y0145376D01*
Y0145431D01*
Y0145554D01*
Y0145692D01*
Y0145837D01*
Y0145981D01*
Y0145986D01*
Y0146014D01*
Y0146048D01*
Y0146098D01*
Y0146159D01*
X0277373Y0146231D01*
Y0146314D01*
Y0146397D01*
Y0146492D01*
Y0146591D01*
X0277379Y0146791D01*
X0277384Y0146997D01*
X027739Y0147191D01*
Y0147196D01*
Y0147213D01*
Y0147241D01*
X0277395Y0147269D01*
Y0147313D01*
Y0147352D01*
X0277401Y0147452D01*
X0277406Y0147552D01*
X0277412Y0147646D01*
X0277417Y0147685D01*
X0277423Y0147718D01*
Y0147746D01*
X0277429Y0147763D01*
X0277434Y0147768D01*
X0277445Y014779D01*
X0277462Y0147818D01*
X027749Y0147851D01*
X0277523Y0147885D01*
X0277567Y0147912D01*
X0277623Y0147929D01*
X02777D01*
X0277723Y0147924D01*
X0277767Y0147912D01*
X0277828Y014789D01*
X02779Y0147857D01*
X0277995Y0147812D01*
X02781Y0147751D01*
X0278222Y0147674D01*
X0278228D01*
X0278239Y0147663D01*
X0278256Y0147652D01*
X0278283Y0147635D01*
X027835Y0147596D01*
X0278428Y0147546D01*
X0278522Y0147491D01*
X0278616Y0147435D01*
X0278711Y0147385D01*
X0278799Y0147346D01*
X0278811Y0147341D01*
X0278838Y0147335D01*
X0278888Y0147318D01*
X027896Y0147302D01*
X0279055Y0147285D01*
X0279166Y0147269D01*
X0279299Y0147252D01*
X0279449Y0147246D01*
X0279543D01*
X0279593Y0147241D01*
X0279843D01*
X0279893Y0147246D01*
X0280309D01*
X0280359Y0147252D01*
X0280609D01*
X0280759Y0147246D01*
X028092D01*
X0281075Y0147241D01*
X0281114D01*
X0281141Y0147235D01*
X0281214D01*
X0281302Y014723D01*
X0281391Y0147224D01*
X028148Y0147213D01*
X0281563Y0147202D01*
X0281597Y0147196D01*
X0281624Y0147191D01*
X028163D01*
X0281641Y0147185D01*
X0281663Y014718D01*
X0281691Y0147174D01*
X028173Y0147163D01*
X028178Y0147146D01*
X028183Y014713D01*
X0281891Y0147113D01*
X0281957Y0147091D01*
X028203Y0147063D01*
X0282113Y014703D01*
X0282196Y0146997D01*
X028229Y0146952D01*
X028239Y0146913D01*
X0282601Y0146808D01*
X0282607Y0146802D01*
X0282629Y0146797D01*
X0282662Y0146775D01*
X0282707Y0146752D01*
X0282762Y0146725D01*
X0282829Y0146686D01*
X0282906Y0146647D01*
X028299Y0146597D01*
X0283084Y0146542D01*
X0283184Y0146486D01*
X0283295Y0146419D01*
X0283406Y0146353D01*
X028365Y0146203D01*
X0283911Y0146036D01*
X0283922Y0146031D01*
X0283944Y0146014D01*
X0283983Y0145992D01*
X0284028Y0145959D01*
X0284088Y014592D01*
X0284161Y0145876D01*
X0284238Y0145826D01*
X0284322Y0145776D01*
X0284505Y0145659D01*
X0284694Y0145543D01*
X0284871Y0145437D01*
X028496Y0145387D01*
X0285038Y0145343D01*
X0285043D01*
X0285054Y0145332D01*
X0285076Y014532D01*
X0285104Y0145309D01*
X0285138Y0145293D01*
X0285176Y0145271D01*
X028526Y0145232D01*
X0285354Y0145193D01*
X0285443Y0145154D01*
X0285526Y0145132D01*
X0285559Y0145121D01*
X0285609D01*
X0285626Y0145126D01*
X0285654Y0145132D01*
X0285709Y0145154D01*
X0285742Y0145171D01*
X0285776Y0145198D01*
X0285809Y0145232D01*
X0285837Y0145271D01*
X0285865Y014532D01*
X0285892Y0145376D01*
X0285909Y0145448D01*
X028592Y0145531D01*
X0285926Y0145626D01*
X028592Y0145731D01*
Y0145737D01*
X0285914Y0145759D01*
Y0145798D01*
X0285903Y0145848D01*
X0285892Y0145914D01*
X0285881Y0145992D01*
X0285859Y0146092D01*
X0285837Y0146203D01*
X0285804Y0146331D01*
X028577Y0146475D01*
X0285726Y014663D01*
X0285676Y0146808D01*
X0285615Y0146997D01*
X0285548Y0147202D01*
X0285471Y014743D01*
X0285387Y0147668D01*
Y0147674D01*
X0285382Y014769D01*
X0285371Y0147718D01*
X028536Y0147746D01*
X0285326Y0147824D01*
X0285298Y0147907D01*
Y0147912D01*
X0285293Y0147924D01*
X0285282Y0147946D01*
X0285276Y0147973D01*
X0285248Y014804D01*
X0285221Y0148107D01*
Y0148112D01*
X0285215Y0148118D01*
X0285204Y0148151D01*
X0285182Y0148195D01*
X0285154Y0148251D01*
X0285121Y0148318D01*
X0285088Y0148384D01*
X0285043Y0148445D01*
X0285004Y0148506D01*
X0284999Y0148512D01*
X0284982Y0148534D01*
X0284954Y0148567D01*
X0284915Y0148612D01*
X028486Y0148667D01*
X0284799Y0148734D01*
X0284721Y0148817D01*
X0284632Y0148906D01*
X0284621Y0148917D01*
X0284599Y0148939D01*
X0284555Y0148978D01*
X0284499Y0149028D01*
X0284433Y0149089D01*
X0284349Y0149161D01*
X0284261Y0149239D01*
X0284161Y0149317D01*
X0284155D01*
X028415Y0149328D01*
X0284116Y014935D01*
X0284066Y0149389D01*
X0284Y0149439D01*
X0283928Y0149494D01*
X028385Y0149544D01*
X0283772Y01496D01*
X0283695Y0149644D01*
X0283689Y014965D01*
X0283667Y0149661D01*
X0283639Y0149677D01*
X02836Y0149705D01*
X028355Y0149738D01*
X0283495Y0149772D01*
X0283378Y014986D01*
X028325Y0149966D01*
X0283128Y0150088D01*
X0283079Y0150149D01*
X0283029Y0150216D01*
X028299Y0150277D01*
X0282962Y0150343D01*
Y0150349D01*
X0282956Y015036D01*
X0282951Y0150376D01*
X0282945Y0150404D01*
X028294Y0150438D01*
Y0150476D01*
Y0150565D01*
X0282956Y0150676D01*
X0282973Y0150737D01*
X0282995Y0150804D01*
X0283023Y0150871D01*
X0283062Y0150943D01*
X0283106Y0151015D01*
X0283162Y0151087D01*
X0283167Y0151093D01*
X0283178Y0151104D01*
X0283195Y0151126D01*
X0283217Y0151154D01*
X0283245Y0151187D01*
X0283273Y0151231D01*
X0283339Y015132D01*
X0283412Y0151426D01*
X0283478Y0151531D01*
X0283534Y0151631D01*
X028355Y0151681D01*
X0283567Y0151725D01*
Y0151736D01*
X0283572Y0151764D01*
X0283578Y0151808D01*
Y0151869D01*
X0283567Y0151942D01*
X0283545Y0152014D01*
X0283506Y0152097D01*
X0283484Y0152141D01*
X028345Y015218D01*
X0283445Y0152186D01*
X0283428Y0152208D01*
X0283395Y0152241D01*
X0283356Y0152275D01*
X0283306Y0152319D01*
X028325Y0152358D01*
X0283184Y0152397D01*
X0283106Y015243D01*
X0283095Y0152436D01*
X0283084Y0152441D01*
X0283062Y0152447D01*
X028304Y0152452D01*
X0283006Y0152463D01*
X0282962Y0152474D01*
X0282917Y0152491D01*
X0282862Y0152508D01*
X0282795Y0152524D01*
X0282723Y0152541D01*
X028264Y0152563D01*
X0282546Y0152585D01*
X028244Y0152608D01*
X0282329Y015263D01*
X0282202Y0152658D01*
X028219D01*
X0282163Y0152663D01*
X0282124Y0152674D01*
X0282063Y0152691D01*
X0281991Y0152708D01*
X0281913Y015273D01*
X0281819Y0152752D01*
X0281724Y015278D01*
X0281619Y0152813D01*
X0281508Y0152846D01*
X0281286Y0152924D01*
X0281069Y0153018D01*
X0280964Y0153068D01*
X0280864Y0153118D01*
X0280858Y0153124D01*
X0280842Y0153129D01*
X0280814Y0153146D01*
X0280781Y0153168D01*
X0280736Y0153196D01*
X0280686Y0153235D01*
X0280631Y0153274D01*
X0280575Y0153318D01*
X0280442Y0153429D01*
X0280309Y0153557D01*
X028017Y0153707D01*
X0280048Y0153873D01*
X0280043Y0153879D01*
X0280037Y015389D01*
X0280026Y0153912D01*
X0280009Y0153945D01*
X0279987Y0153979D01*
X0279965Y0154023D01*
X0279926Y0154117D01*
X0279887Y0154228D01*
X0279859Y015435D01*
X0279854Y0154411D01*
X0279859Y0154472D01*
X0279865Y0154534D01*
X0279882Y0154589D01*
Y0154595D01*
X0279887Y01546D01*
X0279904Y0154639D01*
X0279943Y0154689D01*
X0279993Y0154744D01*
X0280026Y0154778D01*
X0280065Y0154805D01*
X0280115Y0154839D01*
X0280165Y0154867D01*
X0280226Y0154889D01*
X0280287Y0154911D01*
X0280364Y0154933D01*
X0280442Y0154944D01*
X0280448D01*
X028047Y015495D01*
X0280598D01*
X0280653Y0154944D01*
X0280714Y0154939D01*
X0280775Y0154922D01*
X0280781D01*
X0280808Y0154911D01*
X0280847Y01549D01*
X0280903Y0154883D01*
X0280975Y015485D01*
X0281064Y0154817D01*
X0281175Y0154767D01*
X0281302Y0154706D01*
X0281308D01*
X0281325Y0154694D01*
X0281358Y0154683D01*
X0281397Y0154661D01*
X0281447Y0154645D01*
X0281508Y0154617D01*
X0281574Y0154589D01*
X0281646Y0154561D01*
X0281724Y0154528D01*
X0281813Y0154495D01*
X0281996Y0154428D01*
X0282196Y0154367D01*
X0282401Y0154306D01*
X0282407D01*
X0282429Y01543D01*
X0282457Y0154295D01*
X0282496Y0154284D01*
X0282546Y0154273D01*
X0282607Y0154262D01*
X0282673Y0154245D01*
X0282745Y0154234D01*
X0282823Y0154217D01*
X0282912Y0154206D01*
X028309Y0154178D01*
X0283284Y0154156D01*
X0283484Y0154145D01*
X0283728D01*
X0283828Y0154156D01*
X0283911Y0154167D01*
X028395Y0154173D01*
X0283983Y0154184D01*
X0284005Y0154195D01*
X0284022Y0154212D01*
Y0154217D01*
X0284028Y0154234D01*
X0284033Y0154262D01*
Y0154312D01*
Y0154339D01*
X0284028Y0154378D01*
X0284016Y0154422D01*
X0284005Y0154467D01*
X0283989Y0154528D01*
X0283972Y0154589D01*
X0283944Y0154661D01*
X0283916Y0154739D01*
Y0154744D01*
X0283905Y0154767D01*
X0283894Y0154794D01*
X0283872Y0154839D01*
X0283844Y0154889D01*
X0283811Y015495D01*
X0283772Y0155022D01*
X0283728Y0155094D01*
X0283672Y0155172D01*
X0283611Y0155261D01*
X0283545Y0155349D01*
X0283467Y0155438D01*
X0283384Y0155527D01*
X0283289Y0155621D01*
X0283184Y015571D01*
X0283073Y0155799D01*
X0283067Y0155804D01*
X0283045Y0155821D01*
X0283006Y0155843D01*
X0282956Y0155882D01*
X0282884Y0155921D01*
X0282806Y0155976D01*
X0282707Y0156032D01*
X0282596Y0156099D01*
X0282462Y0156171D01*
X0282318Y0156248D01*
X0282157Y0156332D01*
X028198Y0156421D01*
X0281791Y0156509D01*
X028158Y0156609D01*
X0281358Y0156709D01*
X0281114Y0156809D01*
X0281108Y0156815D01*
X0281081Y015682D01*
X0281047Y0156837D01*
X0280997Y0156859D01*
X0280942Y0156887D01*
X0280875Y0156914D01*
X0280803Y0156953D01*
X0280725Y0156987D01*
X0280559Y015707D01*
X0280398Y0157164D01*
X0280326Y0157209D01*
X0280254Y0157258D01*
X0280192Y0157303D01*
X0280137Y0157347D01*
X0280131Y0157353D01*
X0280126Y0157358D01*
X0280093Y0157392D01*
X0280048Y0157442D01*
X0279993Y0157514D01*
X0279937Y0157608D01*
X0279887Y0157714D01*
X0279843Y0157836D01*
X0279815Y0157975D01*
Y015798D01*
Y0157991D01*
X0279809Y0158008D01*
Y015803D01*
X0279804Y0158086D01*
Y0158163D01*
Y0158257D01*
X0279809Y0158357D01*
X0279821Y0158463D01*
X0279843Y0158568D01*
Y0158574D01*
X0279848Y0158579D01*
X0279854Y0158613D01*
X0279871Y0158657D01*
X0279887Y0158713D01*
X0279915Y0158763D01*
X0279943Y0158807D01*
X0279982Y015884D01*
X0279998Y0158846D01*
X028002Y0158851D01*
X0280026D01*
X0280037Y0158846D01*
X0280054Y015884D01*
X0280076Y0158835D01*
X0280104Y0158818D01*
X0280137Y0158801D01*
X0280181Y0158774D01*
X0280187Y0158768D01*
X0280204Y0158763D01*
X0280226Y0158746D01*
X0280254Y0158724D01*
X0280292Y0158696D01*
X0280331Y0158663D01*
X028042Y0158585D01*
X0280426Y0158579D01*
X0280437Y0158568D01*
X0280459Y0158552D01*
X0280487Y0158529D01*
X028052Y0158502D01*
X0280559Y0158474D01*
X0280653Y0158402D01*
X0280759Y015833D01*
X0280881Y0158257D01*
X0281003Y0158191D01*
X0281125Y0158135D01*
X028113D01*
X0281141Y015813D01*
X0281158Y0158124D01*
X0281186Y0158119D01*
X0281219Y0158108D01*
X0281258Y0158097D01*
X0281302Y0158086D01*
X0281358Y0158074D01*
X0281419Y0158063D01*
X0281491Y0158052D01*
X0281563Y0158041D01*
X0281646Y015803D01*
X0281735Y0158019D01*
X0281835Y0158008D01*
X0281935Y0158002D01*
X0282046Y0157997D01*
X0282096D01*
X0282129Y0157991D01*
X0282168D01*
X0282218Y0157986D01*
X0282324Y015798D01*
X0282435Y0157975D01*
X0282546Y0157963D01*
X0282596Y0157958D01*
X0282646Y0157952D01*
X0282684Y0157941D01*
X0282718Y0157936D01*
X0282723D01*
X0282745Y0157924D01*
X0282784Y0157913D01*
X028284Y0157891D01*
X0282906Y0157858D01*
X028299Y0157819D01*
X028309Y0157764D01*
X0283206Y0157697D01*
X0283212Y0157692D01*
X0283228Y0157686D01*
X0283256Y0157669D01*
X0283289Y0157653D01*
X0283328Y015763D01*
X0283373Y0157608D01*
X0283478Y0157558D01*
X0283583Y0157519D01*
X0283633Y0157503D01*
X0283683Y0157492D01*
X0283728Y0157486D01*
X0283767D01*
X02838Y0157497D01*
X0283822Y0157514D01*
X0283828Y0157519D01*
X0283833Y0157542D01*
X0283839Y0157564D01*
X0283844Y0157592D01*
Y0157619D01*
Y0157658D01*
X0283839Y0157708D01*
X0283833Y0157764D01*
X0283828Y0157825D01*
X0283811Y0157902D01*
X0283789Y0157986D01*
X0283767Y015808D01*
X0283733Y0158185D01*
X0283695Y0158302D01*
X0283689Y0158313D01*
X0283678Y0158341D01*
X0283661Y0158391D01*
X0283639Y0158457D01*
X0283606Y0158535D01*
X0283567Y0158629D01*
X0283522Y0158735D01*
X0283467Y0158846D01*
X0283412Y0158968D01*
X0283345Y0159096D01*
X0283273Y0159223D01*
X0283201Y0159356D01*
X0283117Y015949D01*
X0283029Y0159623D01*
X0282934Y015975D01*
X0282834Y0159873D01*
X0282829Y0159878D01*
X0282806Y01599D01*
X0282779Y0159934D01*
X0282734Y0159984D01*
X0282679Y0160039D01*
X0282618Y01601D01*
X028254Y0160172D01*
X0282457Y016025D01*
X0282357Y0160333D01*
X0282252Y0160422D01*
X028214Y0160511D01*
X0282018Y0160605D01*
X0281885Y0160694D01*
X0281747Y0160783D01*
X0281602Y0160872D01*
X0281447Y0160955D01*
X0281436Y016096D01*
X0281414Y0160971D01*
X0281369Y0160994D01*
X0281319Y0161021D01*
X0281253Y0161055D01*
X028118Y0161099D01*
X0281097Y0161144D01*
X0281014Y0161194D01*
X0281003Y0161199D01*
X0280975Y0161216D01*
X0280925Y0161243D01*
X0280864Y0161277D01*
X0280792Y0161321D01*
X0280714Y0161371D01*
X0280625Y0161421D01*
X0280531Y0161477D01*
X0280525Y0161482D01*
X0280509Y0161488D01*
X0280487Y0161504D01*
X0280453Y0161527D01*
X0280414Y0161549D01*
X0280364Y0161582D01*
X0280309Y0161615D01*
X0280254Y0161654D01*
X028012Y0161743D01*
X027997Y0161837D01*
X0279815Y0161943D01*
X027966Y0162048D01*
X0279654Y0162054D01*
X0279643Y0162059D01*
X0279621Y0162076D01*
X0279593Y0162098D01*
X0279554Y016212D01*
X0279515Y0162154D01*
X0279421Y016222D01*
X0279321Y0162292D01*
X0279216Y0162376D01*
X0279121Y0162453D01*
X0279032Y0162525D01*
X0279027Y0162531D01*
X0279021Y0162537D01*
X0278988Y0162564D01*
X0278938Y016262D01*
X0278877Y0162686D01*
X0278799Y016277D01*
X0278722Y0162875D01*
X0278639Y0162992D01*
X0278555Y0163125D01*
Y016313D01*
X0278544Y0163142D01*
X0278533Y0163158D01*
X0278522Y0163186D01*
X0278489Y0163247D01*
X0278455Y0163325D01*
X0278422Y0163408D01*
X0278394Y0163491D01*
X0278383Y0163569D01*
Y0163597D01*
X0278389Y0163624D01*
Y016363D01*
X02784Y0163647D01*
X0278416Y0163663D01*
X0278439Y0163685D01*
X0278472Y0163708D01*
X0278516Y0163724D01*
X0278577Y016373D01*
X0278661D01*
X0278688Y0163724D01*
X0278738Y0163713D01*
X0278811Y0163697D01*
X0278899Y0163674D01*
X027901Y0163641D01*
X0279138Y0163591D01*
X0279288Y0163536D01*
X0279299Y016353D01*
X0279321Y0163524D01*
X0279354Y0163508D01*
X0279399Y0163491D01*
X0279449Y0163475D01*
X0279504Y0163452D01*
X0279621Y0163408D01*
X0279626D01*
X0279643Y0163402D01*
X0279671Y0163391D01*
X027971Y016338D01*
X0279793Y0163347D01*
X0279882Y0163319D01*
X0279887D01*
X0279893Y0163314D01*
X0279909D01*
X0279932Y0163308D01*
X0279987Y0163291D01*
X0280059Y016328D01*
X0280142Y0163264D01*
X0280231Y0163252D01*
X0280326Y0163242D01*
X0280459D01*
X0280509Y0163247D01*
X0280581Y0163252D01*
X0280675Y0163258D01*
X0280781Y0163275D01*
X0280903Y0163286D01*
X0281042Y0163308D01*
X0281047D01*
X0281058Y0163314D01*
X0281081D01*
X0281114Y0163319D01*
X0281147Y0163325D01*
X0281186Y016333D01*
X028128Y0163347D01*
X028138Y0163358D01*
X028148Y0163369D01*
X0281569Y016338D01*
X0281608Y0163386D01*
X0281669D01*
X0281708Y016338D01*
X0281752D01*
X0281813Y0163369D01*
X028188Y0163358D01*
X0281952Y0163347D01*
X028203Y0163325D01*
X0282035D01*
X0282041Y0163319D01*
X0282074Y0163314D01*
X0282124Y0163303D01*
X0282185Y0163286D01*
X0282252Y0163275D01*
X0282318Y0163264D01*
X0282385Y0163258D01*
X0282446D01*
X0282462Y0163264D01*
X0282485Y0163269D01*
X0282512Y016328D01*
X028254Y0163297D01*
X0282573Y0163319D01*
X0282596Y0163347D01*
X0282618Y0163386D01*
Y0163391D01*
X0282623Y0163397D01*
Y0163414D01*
Y0163436D01*
Y0163458D01*
X0282618Y0163491D01*
X0282607Y016353D01*
X028259Y0163575D01*
X0282568Y0163624D01*
X0282535Y016368D01*
X0282496Y0163741D01*
X028244Y0163807D01*
X0282379Y0163885D01*
X0282301Y0163963D01*
X0282207Y0164046D01*
X0282102Y0164135D01*
X0282096Y0164141D01*
X0282074Y0164157D01*
X0282041Y0164185D01*
X0281991Y0164218D01*
X028193Y0164263D01*
X0281852Y0164318D01*
X0281769Y0164379D01*
X0281669Y0164446D01*
X0281558Y0164512D01*
X0281436Y016459D01*
X0281308Y0164668D01*
X0281164Y0164751D01*
X0281008Y016484D01*
X0280847Y0164923D01*
X0280675Y0165012D01*
X0280492Y0165101D01*
X0280487Y0165106D01*
X0280464Y0165117D01*
X0280431Y0165134D01*
X0280381Y0165156D01*
X0280326Y0165184D01*
X0280259Y0165217D01*
X0280192Y0165256D01*
X0280115Y0165301D01*
X0279943Y0165395D01*
X0279771Y01655D01*
X0279604Y0165611D01*
X0279521Y0165672D01*
X0279449Y0165728D01*
X0279443Y0165733D01*
X0279432Y0165744D01*
X0279415Y0165761D01*
X0279388Y0165783D01*
X0279354Y0165811D01*
X0279321Y016585D01*
X0279238Y0165933D01*
X0279144Y0166039D01*
X0279044Y0166161D01*
X0278955Y0166294D01*
X0278871Y0166438D01*
Y0166444D01*
X027886Y016646D01*
X0278849Y0166483D01*
X0278838Y0166516D01*
X0278822Y0166555D01*
X0278805Y0166599D01*
X0278766Y0166705D01*
X0278738Y0166821D01*
X0278716Y0166943D01*
Y0167004D01*
Y016706D01*
X0278722Y0167115D01*
X0278738Y0167165D01*
Y0167171D01*
X0278744Y0167176D01*
X0278761Y0167204D01*
X0278794Y0167249D01*
X0278838Y0167293D01*
X0278905Y0167337D01*
X0278949Y0167359D01*
X0278994Y0167382D01*
X0279049Y0167398D01*
X027911Y016741D01*
X0279177Y0167421D01*
X0279271D01*
X0279304Y0167415D01*
X0279349Y0167404D01*
X0279415Y0167393D01*
X0279499Y0167371D01*
X0279549Y0167359D01*
X0279604Y0167343D01*
X0279665Y0167326D01*
X0279732Y0167304D01*
X0279737D01*
X0279749Y0167298D01*
X0279771Y0167293D01*
X0279798Y0167282D01*
X0279832Y0167271D01*
X0279876Y0167254D01*
X0279926Y0167237D01*
X0279982Y0167221D01*
X0280043Y0167199D01*
X0280109Y0167176D01*
X0280254Y0167126D01*
X0280414Y0167065D01*
X0280587Y0166999D01*
X0280592D01*
X0280609Y0166993D01*
X0280631Y0166982D01*
X0280664Y0166971D01*
X0280703Y0166954D01*
X0280753Y0166932D01*
X0280808Y0166916D01*
X028087Y0166893D01*
X0281003Y0166843D01*
X0281147Y0166788D01*
X0281302Y0166727D01*
X0281463Y0166671D01*
X0281469D01*
X028148Y0166666D01*
X0281502Y0166655D01*
X028153Y0166649D01*
X0281563Y0166638D01*
X0281602Y0166621D01*
X0281691Y0166594D01*
X028178Y016656D01*
X0281874Y0166527D01*
X0281957Y0166505D01*
X0281991Y0166494D01*
X0282018Y0166483D01*
X0282024D01*
X0282046Y0166477D01*
X0282074Y0166466D01*
X0282118Y0166455D01*
X0282168Y0166438D01*
X0282229Y0166416D01*
X0282301Y0166388D01*
X0282385Y0166355D01*
X0282396Y0166349D01*
X0282423Y0166338D01*
X0282468Y0166322D01*
X0282523Y0166299D01*
X0282585Y0166272D01*
X0282657Y0166238D01*
X0282795Y0166172D01*
X0282801D01*
X0282812Y0166161D01*
X0282834Y0166155D01*
X0282868Y0166139D01*
X0282901Y0166122D01*
X0282945Y0166105D01*
X028304Y0166066D01*
X0283151Y0166022D01*
X0283273Y0165989D01*
X0283389Y0165961D01*
X02835Y0165944D01*
X0283545D01*
X0283595Y016595D01*
X0283656Y0165961D01*
X0283717Y0165978D01*
X0283778Y0166005D01*
X0283833Y016605D01*
X0283872Y0166111D01*
Y0166116D01*
X0283878Y0166133D01*
X0283883Y0166166D01*
X0283889Y0166211D01*
Y0166272D01*
Y0166355D01*
X0283883Y0166405D01*
Y0166455D01*
X0283878Y0166516D01*
X0283867Y0166583D01*
Y0166588D01*
Y0166599D01*
X0283861Y0166621D01*
X0283856Y0166649D01*
Y0166682D01*
X0283844Y0166721D01*
X0283839Y0166766D01*
X0283833Y0166816D01*
X0283811Y0166932D01*
X0283783Y0167065D01*
X0283755Y016721D01*
X0283717Y0167365D01*
Y0167376D01*
X0283706Y0167404D01*
X0283695Y0167448D01*
X0283683Y0167504D01*
X0283661Y016757D01*
X0283645Y0167643D01*
X0283595Y0167798D01*
X0283589Y0167809D01*
X0283583Y0167831D01*
X0283572Y0167876D01*
X0283556Y0167926D01*
X0283534Y0167981D01*
X0283511Y0168048D01*
X0283461Y0168175D01*
Y0168181D01*
X028345Y0168203D01*
X0283434Y0168236D01*
X0283417Y0168286D01*
X0283389Y0168353D01*
X0283356Y0168431D01*
X0283317Y0168525D01*
X0283273Y0168631D01*
X0287374D01*
X028738Y0168625D01*
D02*
G37*
G36*
X028269Y0191591D02*
X0286236D01*
X0286242Y0191585D01*
X0286253Y019158D01*
X028627Y0191558D01*
X0286292Y0191535D01*
X0286325Y0191508D01*
X0286364Y0191469D01*
X0286414Y0191424D01*
X0286464Y0191369D01*
X0286525Y0191313D01*
X0286597Y0191247D01*
X0286669Y0191175D01*
X0286753Y0191097D01*
X0286841Y0191008D01*
X0286936Y0190914D01*
X0287041Y0190814D01*
X0287152Y0190708D01*
X0287269Y0190597D01*
X0287396Y0190475D01*
X028753Y0190348D01*
X0287668Y0190215D01*
X0287818Y019007D01*
X0287968Y018992D01*
X0288129Y0189765D01*
X0288301Y0189604D01*
X0288473Y0189437D01*
X0288656Y018926D01*
X0288845Y0189077D01*
X0289045Y0188888D01*
X028925Y0188694D01*
X0289461Y0188488D01*
X0289677Y0188277D01*
X0289905Y0188061D01*
X0289911Y0188056D01*
X0289922Y018805D01*
X0289938Y0188028D01*
X028996Y0188005D01*
X0289994Y0187978D01*
X0290033Y0187939D01*
X0290083Y0187895D01*
X0290132Y0187839D01*
X0290194Y0187784D01*
X0290266Y0187717D01*
X0290338Y0187645D01*
X0290421Y0187567D01*
X029051Y0187478D01*
X0290604Y018739D01*
X029071Y018729D01*
X0290821Y0187184D01*
X0290937Y0187068D01*
X0291065Y0186945D01*
X0291198Y0186818D01*
X0291337Y0186685D01*
X0291487Y0186546D01*
X0291636Y0186396D01*
X0291797Y0186241D01*
X0291969Y018608D01*
X0292142Y0185913D01*
X0292325Y0185736D01*
X0292513Y0185552D01*
X0292713Y0185364D01*
X0292919Y0185169D01*
X0293129Y0184964D01*
X0293346Y0184753D01*
X0293573Y0184537D01*
Y0184531D01*
Y018452D01*
Y0184498D01*
Y0184465D01*
Y018442D01*
Y018437D01*
Y0184309D01*
Y0184243D01*
Y0184159D01*
Y0184076D01*
Y0183976D01*
Y0183871D01*
Y0183754D01*
Y0183627D01*
Y0183493D01*
Y0183349D01*
Y0183199D01*
Y0183038D01*
Y0182866D01*
Y0182683D01*
Y0182494D01*
Y0182295D01*
Y0182089D01*
Y0181873D01*
Y0181645D01*
Y0181407D01*
Y0181162D01*
Y0180907D01*
Y0180646D01*
Y0180369D01*
Y0180091D01*
Y0179797D01*
Y0179792D01*
Y017978D01*
Y0179758D01*
Y0179725D01*
Y0179681D01*
Y0179631D01*
Y017957D01*
Y0179503D01*
Y017942D01*
Y0179336D01*
Y0179237D01*
Y0179131D01*
Y0179015D01*
Y0178887D01*
Y0178754D01*
Y0178609D01*
Y017846D01*
Y0178299D01*
Y0178127D01*
Y0177943D01*
Y0177755D01*
Y0177555D01*
Y0177349D01*
Y0177133D01*
Y0176906D01*
Y0176667D01*
Y0176423D01*
Y0176167D01*
Y0175907D01*
Y0175629D01*
Y0175352D01*
Y0175057D01*
X0281724D01*
X0281719Y0175063D01*
X0281697Y0175074D01*
X0281663Y0175102D01*
X0281619Y0175129D01*
X0281558Y0175174D01*
X0281486Y0175224D01*
X0281402Y0175285D01*
X0281302Y0175352D01*
X0281297Y0175357D01*
X0281286Y0175363D01*
X0281264Y0175379D01*
X0281236Y0175401D01*
X0281197Y0175424D01*
X0281158Y0175451D01*
X0281058Y0175518D01*
X0280947Y017559D01*
X0280825Y0175668D01*
X0280703Y0175746D01*
X0280587Y0175818D01*
X0280581D01*
X0280575Y0175823D01*
X0280559Y0175834D01*
X0280531Y0175851D01*
X0280503Y0175862D01*
X028047Y0175884D01*
X0280387Y0175929D01*
X0280287Y0175979D01*
X028017Y017604D01*
X0280043Y0176101D01*
X0279904Y0176162D01*
X0279893Y0176167D01*
X0279871Y0176179D01*
X0279826Y0176195D01*
X0279771Y0176223D01*
X0279704Y0176251D01*
X0279626Y0176284D01*
X0279538Y0176317D01*
X0279449Y017635D01*
X0279438Y0176356D01*
X0279404Y0176367D01*
X0279354Y0176389D01*
X0279282Y0176412D01*
X0279199Y0176445D01*
X0279105Y0176478D01*
X0278999Y0176517D01*
X0278883Y0176561D01*
X0278877D01*
X0278866Y0176567D01*
X0278849Y0176573D01*
X0278827Y0176584D01*
X0278766Y0176611D01*
X0278694Y0176645D01*
X0278611Y0176689D01*
X0278522Y0176739D01*
X0278439Y0176795D01*
X0278361Y0176856D01*
X0278355Y0176861D01*
X0278333Y0176883D01*
X02783Y0176917D01*
X0278267Y0176961D01*
X0278228Y0177017D01*
X02782Y0177072D01*
X0278178Y0177133D01*
X0278167Y01772D01*
Y0177205D01*
Y0177222D01*
X0278172Y0177239D01*
Y0177266D01*
X0278189Y0177322D01*
X0278205Y0177349D01*
X0278222Y0177372D01*
X0278233Y0177377D01*
X027825Y0177388D01*
X0278272Y01774D01*
X0278306Y0177416D01*
X0278355Y0177433D01*
X0278411Y0177455D01*
X0278483Y0177477D01*
X0278489D01*
X0278494Y0177483D01*
X0278511D01*
X0278533Y0177488D01*
X0278589Y0177505D01*
X0278661Y0177516D01*
X0278755Y0177533D01*
X027886Y0177544D01*
X0278972Y0177555D01*
X0279099Y017756D01*
X0279343D01*
X0279404Y0177555D01*
X0279471D01*
X0279549Y0177549D01*
X0279632Y0177544D01*
X0279721Y0177538D01*
X0279815Y0177533D01*
X0279915Y0177522D01*
X028002Y017751D01*
X0280048D01*
X0280081Y0177505D01*
X028012D01*
X028017Y0177499D01*
X0280231Y0177494D01*
X0280503D01*
X0280642Y017751D01*
X0280709Y0177516D01*
X028077Y0177533D01*
X0280825Y0177549D01*
X0280875Y0177572D01*
X0280886Y0177577D01*
X0280908Y0177594D01*
X0280942Y0177627D01*
X028097Y0177672D01*
X0280992Y0177733D01*
X0281003Y017781D01*
X0280997Y0177849D01*
X0280992Y0177899D01*
X028097Y0177949D01*
X0280947Y0178004D01*
Y017801D01*
X0280942Y0178016D01*
X028092Y0178049D01*
X0280886Y0178099D01*
X0280831Y0178165D01*
X0280792Y0178199D01*
X0280753Y0178243D01*
X0280703Y0178287D01*
X0280653Y0178332D01*
X0280592Y0178376D01*
X0280525Y0178426D01*
X0280453Y0178476D01*
X0280376Y0178526D01*
X028037Y0178532D01*
X0280353Y0178537D01*
X0280331Y0178554D01*
X0280292Y0178576D01*
X0280248Y0178598D01*
X0280187Y0178632D01*
X028012Y0178671D01*
X0280043Y0178709D01*
X0279948Y0178754D01*
X0279848Y0178804D01*
X0279737Y0178859D01*
X0279615Y017892D01*
X0279476Y0178981D01*
X0279332Y0179048D01*
X0279171Y017912D01*
X0279005Y0179192D01*
X0278999D01*
X0278982Y0179203D01*
X027896Y0179209D01*
X0278933Y0179226D01*
X0278894Y0179242D01*
X0278849Y0179264D01*
X0278749Y0179314D01*
X0278639Y017937D01*
X0278527Y0179431D01*
X0278422Y0179497D01*
X0278378Y0179531D01*
X0278333Y0179564D01*
X0278322Y0179575D01*
X02783Y0179597D01*
X0278261Y0179636D01*
X0278211Y0179686D01*
X0278161Y0179747D01*
X0278111Y0179819D01*
X0278067Y0179903D01*
X0278028Y0179991D01*
Y0180002D01*
X0278017Y0180025D01*
X0278011Y0180063D01*
X0278Y0180119D01*
X0277995Y018018D01*
X0277989Y0180247D01*
X0277995Y0180324D01*
X0278Y0180402D01*
Y0180413D01*
X0278006Y0180435D01*
X0278017Y0180474D01*
X0278033Y0180519D01*
X0278056Y0180563D01*
X0278078Y0180607D01*
X0278111Y0180646D01*
X027815Y018068D01*
X0278161Y0180685D01*
X0278172D01*
X0278194Y0180691D01*
X0278228Y0180696D01*
X0278272Y0180702D01*
X0278322Y0180707D01*
X0278727D01*
X0278811Y0180702D01*
X0278855D01*
X0278888Y0180696D01*
X0279166D01*
X027926Y0180707D01*
X0279304Y0180713D01*
X0279338Y0180724D01*
X0279371Y0180735D01*
X0279393Y0180746D01*
X0279399Y0180752D01*
X0279404Y0180763D01*
X0279415Y0180785D01*
X0279421Y0180818D01*
Y0180868D01*
X0279404Y0180929D01*
X0279377Y0181007D01*
X0279354Y0181051D01*
X0279327Y0181101D01*
X0279321Y0181107D01*
X027931Y0181124D01*
X0279288Y0181157D01*
X027926Y0181196D01*
X0279216Y0181246D01*
X027916Y0181312D01*
X0279094Y0181379D01*
X027901Y0181462D01*
Y0181468D01*
X0278999Y0181473D01*
X0278966Y0181501D01*
X0278922Y0181545D01*
X0278855Y0181601D01*
X0278777Y0181667D01*
X0278694Y018174D01*
X02786Y0181817D01*
X02785Y0181895D01*
X0278494Y0181901D01*
X0278478Y0181912D01*
X027845Y0181934D01*
X0278416Y0181962D01*
X0278372Y0181989D01*
X0278328Y0182023D01*
X0278228Y0182089D01*
X0278222Y0182095D01*
X0278205Y0182106D01*
X0278178Y0182123D01*
X027815Y0182139D01*
X0278072Y0182184D01*
X0277995Y0182228D01*
X0277989Y0182234D01*
X0277972Y0182239D01*
X027795Y018225D01*
X0277923Y0182267D01*
X027785Y0182306D01*
X0277773Y0182345D01*
X0277767Y018235D01*
X0277756Y0182356D01*
X0277723Y0182383D01*
X0277684Y0182411D01*
X0277673Y0182422D01*
X0277662Y0182433D01*
Y0182439D01*
X0277651Y018245D01*
X0277645Y0182472D01*
X0277639Y01825D01*
Y0182533D01*
X0277651Y0182572D01*
X0277667Y0182616D01*
X02777Y0182661D01*
X0277706Y0182667D01*
X0277717Y0182683D01*
X0277745Y0182711D01*
X0277778Y0182744D01*
X0277828Y0182783D01*
X0277889Y0182827D01*
X0277961Y0182877D01*
X027805Y0182933D01*
X0278056Y0182938D01*
X0278067Y0182944D01*
X0278089Y0182955D01*
X0278117Y0182977D01*
X0278183Y0183022D01*
X0278256Y0183088D01*
X0278322Y018316D01*
X0278355Y0183199D01*
X0278383Y0183244D01*
X02784Y0183288D01*
X0278411Y0183332D01*
Y0183377D01*
X0278405Y0183421D01*
Y0183427D01*
X02784Y0183432D01*
X0278383Y0183466D01*
X0278372Y0183493D01*
X027835Y0183521D01*
X0278322Y0183554D01*
X0278294Y0183593D01*
X027825Y0183638D01*
X0278205Y0183688D01*
X027815Y0183743D01*
X0278083Y0183804D01*
X0278006Y0183865D01*
X0277923Y0183932D01*
X0277823Y0184004D01*
X0277712Y0184082D01*
X0277706Y0184087D01*
X0277695Y0184093D01*
X0277678Y0184104D01*
X0277656Y0184121D01*
X0277623Y0184143D01*
X027759Y018417D01*
X0277506Y0184237D01*
X0277412Y0184315D01*
X0277312Y0184404D01*
X0277207Y0184509D01*
X0277101Y018462D01*
X0277096Y0184626D01*
X027709Y0184631D01*
X0277079Y0184648D01*
X0277057Y018467D01*
X0277018Y0184725D01*
X0276968Y0184798D01*
X0276918Y018487D01*
X0276873Y0184953D01*
X027684Y0185025D01*
X0276835Y0185058D01*
X0276829Y0185092D01*
Y0185097D01*
Y0185108D01*
X0276835Y0185125D01*
X027684Y0185153D01*
X0276851Y0185186D01*
X0276868Y018522D01*
X027689Y0185264D01*
X0276923Y0185308D01*
X0276929Y0185314D01*
X027694Y018533D01*
X0276968Y0185364D01*
X0277001Y0185403D01*
X027704Y0185447D01*
X0277096Y0185503D01*
X0277162Y0185569D01*
X027724Y0185641D01*
X0277245Y0185647D01*
X0277268Y0185669D01*
X0277301Y0185702D01*
X027734Y0185741D01*
X0277379Y0185785D01*
X0277429Y0185836D01*
X0277517Y0185941D01*
X0277523Y0185947D01*
X0277534Y0185963D01*
X0277551Y0185985D01*
X0277573Y0186013D01*
X027759Y0186046D01*
X0277606Y0186074D01*
X0277617Y0186102D01*
Y0186119D01*
Y0186124D01*
X0277612Y018613D01*
X0277601Y0186141D01*
X027759Y0186157D01*
X0277567Y0186174D01*
X0277534Y0186191D01*
X0277495Y0186213D01*
X0277445Y018623D01*
X027744D01*
X0277417Y0186241D01*
X0277379Y0186252D01*
X0277323Y0186263D01*
X0277251Y0186279D01*
X0277157Y0186302D01*
X0277046Y0186324D01*
X0276912Y0186352D01*
X0276907D01*
X0276885Y0186357D01*
X0276851Y0186368D01*
X0276813Y0186385D01*
X0276768Y0186407D01*
X0276718Y0186441D01*
X0276668Y0186479D01*
X0276618Y0186524D01*
X0276613Y0186529D01*
X0276596Y0186546D01*
X0276579Y0186574D01*
X0276557Y0186612D01*
X0276529Y0186657D01*
X0276513Y0186707D01*
X0276496Y0186757D01*
X0276491Y0186812D01*
Y0186818D01*
Y0186829D01*
X0276496Y0186846D01*
X0276502Y0186868D01*
X0276513Y0186896D01*
X0276524Y0186934D01*
X0276546Y0186968D01*
X0276574Y0187012D01*
X0276579Y0187018D01*
X027659Y0187034D01*
X0276607Y0187057D01*
X0276629Y018709D01*
X0276663Y0187129D01*
X0276701Y0187173D01*
X0276746Y0187223D01*
X0276801Y0187273D01*
X0276807Y0187278D01*
X0276813Y0187284D01*
X027684Y0187312D01*
X0276885Y0187362D01*
X0276935Y0187417D01*
X0276985Y0187478D01*
X0277029Y0187539D01*
X0277057Y01876D01*
X0277068Y0187628D01*
X0277073Y0187656D01*
Y0187661D01*
Y0187678D01*
X0277062Y0187695D01*
X0277046Y0187723D01*
X0277018Y0187745D01*
X0276979Y0187761D01*
X0276918Y0187778D01*
X0276885Y0187784D01*
X0276813D01*
X0276774Y0187789D01*
X0276729Y01878D01*
X0276679Y0187817D01*
X0276618Y0187839D01*
X0276552Y0187872D01*
X027648Y0187917D01*
X0276474Y0187922D01*
X0276452Y0187939D01*
X0276418Y0187967D01*
X0276374Y0188005D01*
X027633Y018805D01*
X0276285Y0188105D01*
X0276235Y0188166D01*
X0276197Y0188239D01*
Y0188244D01*
X0276191Y0188255D01*
X027618Y0188277D01*
X0276169Y0188311D01*
X0276152Y0188355D01*
X0276135Y0188416D01*
X0276113Y0188494D01*
X0276085Y0188588D01*
Y0188594D01*
X027608Y0188599D01*
Y0188616D01*
X0276074Y0188638D01*
X0276058Y0188688D01*
X0276041Y0188766D01*
X0276019Y0188849D01*
X0275997Y0188949D01*
X0275974Y0189055D01*
X0275947Y0189171D01*
Y0189177D01*
X0275941Y0189188D01*
Y0189199D01*
X0275936Y0189221D01*
X0275924Y0189282D01*
X0275908Y0189354D01*
X0275886Y0189437D01*
X0275864Y0189526D01*
X0275841Y0189615D01*
X0275819Y0189698D01*
Y0189709D01*
X0275808Y0189732D01*
X0275797Y0189765D01*
X027578Y0189804D01*
X0275769Y0189843D01*
X0275752Y0189876D01*
X0275736Y0189898D01*
X0275725Y0189904D01*
X0275719Y0189898D01*
X0275714Y0189893D01*
X0275703Y0189881D01*
X0275691Y0189859D01*
X027568Y0189831D01*
X0275664Y0189793D01*
X0275641Y0189743D01*
Y0189737D01*
X027563Y0189715D01*
X0275619Y0189682D01*
X0275608Y0189637D01*
X0275591Y0189587D01*
X0275575Y0189526D01*
X0275553Y0189454D01*
X0275536Y0189382D01*
Y0189376D01*
X0275531Y0189349D01*
X0275519Y018931D01*
X0275508Y018926D01*
X0275492Y0189199D01*
X0275469Y0189127D01*
X0275453Y0189043D01*
X027543Y018896D01*
X0275375Y0188771D01*
X027532Y0188572D01*
X0275264Y0188383D01*
X0275231Y0188289D01*
X0275203Y0188205D01*
Y01882D01*
X0275197Y0188189D01*
X0275186Y0188166D01*
X0275175Y0188139D01*
X0275164Y01881D01*
X0275148Y0188061D01*
X0275109Y0187978D01*
X027507Y0187883D01*
X027502Y0187795D01*
X027497Y0187717D01*
X0274948Y0187684D01*
X0274925Y0187661D01*
X027492Y0187656D01*
X0274914Y018765D01*
X0274898Y0187639D01*
X0274876Y0187623D01*
X0274848Y01876D01*
X0274815Y0187584D01*
X0274776Y0187562D01*
X0274731Y0187539D01*
X0274726D01*
X0274709Y0187528D01*
X0274687Y0187523D01*
X0274654Y0187512D01*
X0274576Y0187484D01*
X0274487Y0187467D01*
X0274476D01*
X0274443Y0187462D01*
X0274398Y0187451D01*
X0274343Y0187434D01*
X0274293Y0187406D01*
X0274248Y0187378D01*
X0274237Y0187362D01*
X0274226Y018734D01*
X0274221Y0187317D01*
Y0187295D01*
Y018729D01*
X0274232Y0187267D01*
X0274248Y018724D01*
X0274282Y0187195D01*
X0274332Y0187134D01*
X0274365Y0187101D01*
X0274404Y0187062D01*
X0274443Y0187023D01*
X0274493Y0186979D01*
X0274554Y0186929D01*
X0274615Y0186879D01*
X027462Y0186873D01*
X0274631Y0186868D01*
X0274648Y0186851D01*
X027467Y0186835D01*
X0274726Y0186785D01*
X0274792Y0186723D01*
X0274864Y0186657D01*
X0274925Y0186585D01*
X0274975Y0186518D01*
X0274992Y0186485D01*
X0275003Y0186451D01*
Y0186446D01*
X0275009Y0186424D01*
Y018639D01*
X0274998Y0186341D01*
X0274981Y0186279D01*
X0274953Y0186213D01*
X0274909Y0186135D01*
X0274876Y0186091D01*
X0274842Y0186046D01*
X0274837Y0186041D01*
X0274826Y018603D01*
X0274809Y0186007D01*
X0274781Y018598D01*
X0274737Y0185941D01*
X0274687Y0185897D01*
X0274626Y0185841D01*
X0274548Y018578D01*
X0274537Y0185775D01*
X0274509Y0185747D01*
X0274465Y0185713D01*
X0274409Y0185669D01*
X0274343Y0185614D01*
X0274265Y0185558D01*
X0274176Y0185491D01*
X0274087Y018543D01*
X0274082Y0185425D01*
X0274065Y0185414D01*
X0274038Y0185397D01*
X0274004Y0185369D01*
X0273965Y0185342D01*
X0273915Y0185308D01*
X027381Y0185231D01*
X0273688Y0185136D01*
X0273566Y0185047D01*
X0273455Y0184959D01*
X0273405Y0184914D01*
X027336Y0184875D01*
X0273349Y0184864D01*
X0273327Y0184842D01*
X0273294Y0184809D01*
X0273255Y0184764D01*
X0273211Y018472D01*
X0273177Y018467D01*
X0273155Y0184626D01*
X0273144Y0184587D01*
Y0184581D01*
X0273149Y018457D01*
X0273155Y0184553D01*
X0273166Y0184537D01*
X0273188Y0184509D01*
X0273222Y0184481D01*
X0273272Y0184459D01*
X0273333Y0184431D01*
X0273344D01*
X0273366Y018442D01*
X0273405Y0184409D01*
X027346Y0184398D01*
X0273527Y0184387D01*
X027361Y0184376D01*
X0273699Y018437D01*
X0273799Y0184365D01*
X027386D01*
X0273904Y0184359D01*
X027396Y0184354D01*
X0274021Y0184348D01*
X0274154Y0184326D01*
X0274293Y0184293D01*
X0274359Y018427D01*
X027442Y0184248D01*
X0274476Y0184215D01*
X0274526Y0184176D01*
X0274565Y0184137D01*
X0274592Y0184087D01*
Y0184082D01*
X0274598Y0184076D01*
X0274604Y0184043D01*
X0274598Y0183993D01*
X0274592Y0183965D01*
X0274576Y0183932D01*
X0274554Y0183899D01*
X0274526Y018386D01*
X0274487Y0183821D01*
X0274443Y0183782D01*
X0274382Y0183743D01*
X0274304Y0183704D01*
X0274221Y0183671D01*
X0274115Y0183632D01*
X027411D01*
X0274098Y0183627D01*
X0274076Y0183621D01*
X0274049Y018361D01*
X0274015Y0183599D01*
X0273976Y0183582D01*
X0273877Y0183543D01*
X0273765Y0183493D01*
X0273638Y0183438D01*
X0273499Y0183371D01*
X027336Y0183294D01*
X0273355D01*
X0273344Y0183282D01*
X0273322Y0183271D01*
X0273299Y0183255D01*
X0273266Y0183232D01*
X0273227Y018321D01*
X0273133Y0183149D01*
X0273027Y0183072D01*
X0272911Y0182988D01*
X0272794Y0182894D01*
X0272678Y0182789D01*
X0272672Y0182783D01*
X0272667Y0182777D01*
X027265Y0182761D01*
X0272628Y0182739D01*
X0272572Y0182683D01*
X02725Y0182616D01*
X0272422Y0182533D01*
X0272345Y0182445D01*
X0272273Y0182361D01*
X0272206Y0182272D01*
X02722Y0182261D01*
X0272184Y0182234D01*
X0272162Y0182195D01*
X0272134Y018215D01*
X0272112Y0182095D01*
X0272101Y0182045D01*
X0272095Y0181995D01*
X0272106Y0181956D01*
X0272112Y018195D01*
X0272123Y0181945D01*
X0272139Y0181939D01*
X0272167Y0181934D01*
X02722Y0181928D01*
X027225Y0181917D01*
X0272317Y0181912D01*
X0272328D01*
X027235Y0181906D01*
X0272395D01*
X0272445Y0181901D01*
X0272511Y0181895D01*
X0272589D01*
X0272672Y0181889D01*
X0272939D01*
X0273011Y0181884D01*
X0273094D01*
X0273172Y0181878D01*
X0273244Y0181873D01*
X0273249D01*
X0273272Y0181867D01*
X0273305Y0181862D01*
X0273338Y0181856D01*
X0273377Y0181851D01*
X0273416Y018184D01*
X0273444Y0181828D01*
X0273466Y0181812D01*
X0273471Y0181806D01*
X0273477Y0181795D01*
X0273494Y0181773D01*
X0273505Y018174D01*
X0273521Y018169D01*
X0273533Y0181629D01*
X0273544Y0181556D01*
Y0181462D01*
Y0181456D01*
Y0181451D01*
Y0181418D01*
X0273538Y0181368D01*
X0273527Y0181307D01*
X0273516Y018124D01*
X0273499Y0181162D01*
X0273477Y018109D01*
X0273444Y0181024D01*
X0273438Y0181013D01*
X0273427Y018099D01*
X0273399Y0180957D01*
X0273366Y0180907D01*
X0273322Y0180857D01*
X0273266Y0180802D01*
X0273199Y0180746D01*
X0273122Y0180691D01*
X0273111Y0180685D01*
X0273099Y0180674D01*
X0273077Y0180663D01*
X027305Y0180646D01*
X0273016Y018063D01*
X0272977Y0180607D01*
X0272927Y018058D01*
X0272872Y0180552D01*
X0272811Y0180519D01*
X0272739Y0180485D01*
X0272656Y0180441D01*
X0272567Y0180396D01*
X0272467Y0180352D01*
X0272356Y0180302D01*
X0272239Y0180247D01*
X0272234D01*
X0272223Y0180241D01*
X02722Y018023D01*
X0272173Y0180213D01*
X0272134Y0180197D01*
X0272095Y018018D01*
X0272001Y0180136D01*
X0271895Y018008D01*
X027179Y0180025D01*
X0271679Y0179969D01*
X0271584Y0179914D01*
X0271573Y0179908D01*
X0271546Y0179886D01*
X0271496Y0179858D01*
X027144Y0179814D01*
X0271374Y0179764D01*
X0271296Y0179703D01*
X0271218Y0179642D01*
X027114Y017957D01*
X0271135Y0179564D01*
X0271118Y0179547D01*
X0271091Y017952D01*
X0271057Y0179481D01*
X0271018Y0179442D01*
X0270979Y0179392D01*
X0270896Y0179298D01*
X0270891Y0179292D01*
X027088Y0179275D01*
X0270868Y0179253D01*
X0270852Y0179231D01*
X0270824Y0179175D01*
X0270813Y0179148D01*
Y0179131D01*
X0270818Y0179125D01*
X027083Y0179109D01*
X0270846Y0179098D01*
X0270868Y0179087D01*
X0270896Y0179076D01*
X027093Y0179059D01*
X0270935D01*
X0270946Y0179053D01*
X0270968Y0179042D01*
X0271002Y0179037D01*
X0271035Y0179026D01*
X0271079Y0179015D01*
X0271174Y0178998D01*
X0271196D01*
X0271218Y0178992D01*
X0271257Y0178987D01*
X0271296D01*
X0271346Y0178981D01*
X0271401Y0178976D01*
X0271457Y017897D01*
X027159Y0178959D01*
X0271729Y0178954D01*
X0271879D01*
X0272017Y0178959D01*
X0272034D01*
X0272056Y0178965D01*
X0272084D01*
X0272117Y017897D01*
X0272156Y0178976D01*
X02722Y0178981D01*
X027225Y0178987D01*
X0272367Y0179009D01*
X02725Y0179037D01*
X0272644Y017907D01*
X0272794Y0179109D01*
X02728D01*
X0272816Y0179114D01*
X0272839Y017912D01*
X0272866Y0179131D01*
X0272905Y0179137D01*
X027295Y0179148D01*
X0273055Y0179175D01*
X0273166Y0179192D01*
X0273288Y0179214D01*
X0273405Y017922D01*
X0273521D01*
X0273555Y0179214D01*
X0273599Y0179203D01*
X027366Y0179187D01*
X0273721Y0179159D01*
X0273782Y0179125D01*
X0273832Y0179076D01*
X0273877Y0179015D01*
Y0179009D01*
X0273882Y0178998D01*
X0273893Y0178981D01*
X0273899Y0178954D01*
X027391Y017892D01*
X0273921Y0178881D01*
X0273932Y0178793D01*
Y0178743D01*
X0273926Y0178687D01*
X0273915Y0178626D01*
X0273899Y0178565D01*
X0273877Y0178504D01*
X0273843Y0178443D01*
X0273799Y0178376D01*
X0273743Y017831D01*
X0273738Y0178304D01*
X0273727Y0178293D01*
X027371Y0178276D01*
X0273677Y0178249D01*
X0273638Y0178215D01*
X0273593Y0178171D01*
X0273533Y0178127D01*
X027346Y0178071D01*
X0273383Y0178016D01*
X0273288Y0177949D01*
X0273183Y0177882D01*
X0273066Y0177805D01*
X0272933Y0177727D01*
X0272789Y0177644D01*
X0272628Y0177555D01*
X0272456Y0177466D01*
X027245D01*
X0272445Y0177461D01*
X0272428Y017745D01*
X0272406Y0177444D01*
X027235Y0177411D01*
X0272273Y0177372D01*
X0272178Y0177322D01*
X0272062Y0177261D01*
X0271934Y0177189D01*
X0271795Y0177117D01*
X0271645Y0177028D01*
X0271484Y0176939D01*
X0271312Y0176845D01*
X027114Y0176745D01*
X027078Y0176534D01*
X0270419Y0176312D01*
X0270408Y0176306D01*
X0270374Y0176284D01*
X0270324Y0176251D01*
X0270258Y0176212D01*
X027018Y0176156D01*
X0270086Y0176095D01*
X0269981Y0176023D01*
X0269864Y0175951D01*
X0269742Y0175868D01*
X0269614Y0175779D01*
X0269348Y017559D01*
X0269081Y0175396D01*
X0268954Y0175296D01*
X0268832Y0175202D01*
X0268826Y0175196D01*
X0268815Y0175191D01*
X0268798Y0175174D01*
X0268776Y0175157D01*
X0268715Y0175102D01*
X0268632Y0175035D01*
X0268543Y0174958D01*
X0268449Y0174874D01*
X0268354Y0174785D01*
X0268266Y0174697D01*
X0268254Y0174686D01*
X0268232Y0174658D01*
X0268193Y0174613D01*
X0268143Y0174558D01*
X0268093Y0174497D01*
X0268043Y017443D01*
X0267999Y0174364D01*
X026796Y0174297D01*
X0267955Y0174286D01*
X0267944Y0174264D01*
X0267927Y0174225D01*
X026791Y0174175D01*
X0267871Y0174075D01*
X0267866Y0174031D01*
X026786Y0173992D01*
Y0173986D01*
Y0173975D01*
X0267866Y0173959D01*
X0267877Y0173936D01*
X0267888Y0173908D01*
X026791Y0173875D01*
X0267944Y0173836D01*
X0267983Y0173792D01*
X0267988Y0173786D01*
X0267999Y0173775D01*
X0268016Y0173764D01*
X0268038Y0173748D01*
X0268093Y0173714D01*
X0268127Y0173703D01*
X0268155Y0173698D01*
X026816D01*
X0268171Y0173703D01*
X0268199Y0173709D01*
X0268238Y0173714D01*
X0268288Y0173731D01*
X0268365Y0173753D01*
X0268404Y017377D01*
X0268454Y0173786D01*
X026851Y0173803D01*
X0268571Y0173825D01*
X0268576D01*
X0268582Y0173831D01*
X0268599Y0173836D01*
X0268621Y0173842D01*
X0268676Y0173864D01*
X0268748Y0173881D01*
X0268826Y0173903D01*
X0268909Y0173925D01*
X0268987Y0173942D01*
X0269065Y0173953D01*
X0269076D01*
X0269104Y0173959D01*
X026922D01*
X0269259Y0173964D01*
X0269309D01*
X0269364Y0173959D01*
X0269564D01*
X0269642Y0173953D01*
X0269725Y0173947D01*
X026977D01*
X0269797Y0173942D01*
X0269881D01*
X0269981Y0173936D01*
X0270314D01*
X0270413Y0173942D01*
X0270424D01*
X0270458Y0173947D01*
X0270513Y0173953D01*
X0270585Y0173964D01*
X027068Y0173975D01*
X0270791Y0173997D01*
X0270918Y017402D01*
X0271057Y0174053D01*
X0271063D01*
X0271074Y0174058D01*
X0271096Y0174064D01*
X0271124Y0174069D01*
X0271157Y0174075D01*
X0271196Y0174086D01*
X0271279Y0174114D01*
X0271374Y0174142D01*
X0271473Y0174169D01*
X0271562Y0174203D01*
X027164Y0174236D01*
X0271651Y0174242D01*
X0271673Y0174253D01*
X0271712Y0174275D01*
X0271767Y0174303D01*
X0271829Y0174347D01*
X0271906Y0174397D01*
X0271995Y0174458D01*
X0272089Y017453D01*
X0272095Y0174536D01*
X0272117Y0174552D01*
X027215Y017458D01*
X0272195Y0174613D01*
X0272239Y0174647D01*
X0272295Y0174686D01*
X0272411Y0174763D01*
X0272417Y0174769D01*
X0272434Y017478D01*
X0272461Y0174791D01*
X0272495Y0174808D01*
X0272556Y0174835D01*
X0272583Y0174846D01*
X0272611D01*
X0272628Y0174841D01*
X027265Y017483D01*
X0272678Y0174808D01*
X0272706Y017478D01*
X0272744Y0174741D01*
X0272772Y0174691D01*
X0272805Y0174625D01*
X0272811Y0174613D01*
X0272816Y0174591D01*
X0272828Y0174552D01*
X0272839Y0174497D01*
X027285Y017443D01*
X0272855Y0174358D01*
X0272861Y0174269D01*
X0272855Y017418D01*
Y0174175D01*
Y0174164D01*
X027285Y0174142D01*
Y0174114D01*
X0272844Y0174081D01*
X0272833Y0174042D01*
X0272811Y0173947D01*
X0272783Y0173836D01*
X0272739Y0173714D01*
X0272689Y0173587D01*
X0272617Y0173453D01*
Y0173448D01*
X0272606Y0173437D01*
X0272594Y017342D01*
X0272578Y0173392D01*
X027255Y0173359D01*
X0272522Y0173315D01*
X0272489Y017327D01*
X0272445Y017322D01*
X02724Y0173159D01*
X027235Y0173093D01*
X0272289Y0173026D01*
X0272228Y0172954D01*
X0272156Y0172876D01*
X0272078Y0172793D01*
X0271995Y0172704D01*
X0271906Y0172615D01*
X0271895Y0172604D01*
X0271867Y0172576D01*
X0271817Y0172527D01*
X0271756Y0172471D01*
X027169Y0172405D01*
X0271612Y0172338D01*
X0271534Y0172266D01*
X0271457Y0172199D01*
X0271446Y0172194D01*
X0271424Y0172171D01*
X0271379Y0172133D01*
X0271323Y0172088D01*
X0271251Y0172033D01*
X0271174Y0171972D01*
X0271079Y0171905D01*
X0270979Y0171838D01*
X0270974Y0171833D01*
X0270952Y0171822D01*
X0270924Y01718D01*
X027088Y0171777D01*
X0270835Y0171744D01*
X0270774Y0171705D01*
X0270713Y0171666D01*
X0270647Y0171627D01*
X0270641Y0171622D01*
X0270613Y0171611D01*
X0270574Y0171583D01*
X0270524Y0171555D01*
X0270463Y0171517D01*
X0270391Y0171478D01*
X0270314Y0171428D01*
X027023Y0171378D01*
X0270219Y0171372D01*
X0270191Y0171355D01*
X0270141Y0171328D01*
X027008Y0171289D01*
X0270008Y0171239D01*
X0269919Y0171184D01*
X0269825Y0171123D01*
X026972Y0171056D01*
X0269498Y0170906D01*
X026927Y0170751D01*
X0269153Y0170667D01*
X0269048Y0170584D01*
X0268948Y0170501D01*
X0268854Y0170423D01*
X0268848Y0170418D01*
X0268832Y0170406D01*
X0268809Y0170384D01*
X0268776Y0170351D01*
X0268737Y0170312D01*
X0268693Y0170268D01*
X0268643Y0170218D01*
X0268593Y0170162D01*
X0268476Y0170035D01*
X0268365Y016989D01*
X026826Y0169735D01*
X026821Y0169652D01*
X0268166Y0169569D01*
Y0169563D01*
X0268155Y0169546D01*
X0268143Y0169524D01*
X0268132Y0169485D01*
X026811Y0169441D01*
X0268088Y0169391D01*
X0268066Y0169324D01*
X0268038Y0169258D01*
X026801Y016918D01*
X0267983Y0169091D01*
X0267949Y0168997D01*
X0267916Y0168897D01*
X0267888Y0168791D01*
X0267855Y016868D01*
X0267822Y0168558D01*
X0267794Y0168436D01*
Y0168431D01*
X0267788Y0168409D01*
X0267783Y016837D01*
X0267772Y016832D01*
X026776Y0168264D01*
X0267744Y0168192D01*
X0267733Y0168114D01*
X0267716Y0168026D01*
X0267705Y0167931D01*
X0267688Y0167837D01*
X0267661Y0167626D01*
X0267644Y016741D01*
X0267633Y0167193D01*
Y0167188D01*
Y0167165D01*
Y0167132D01*
Y0167093D01*
Y0167043D01*
Y0166988D01*
X0267638Y0166866D01*
X0267649Y0166744D01*
X0267655Y0166682D01*
X0267666Y0166627D01*
X0267672Y0166583D01*
X0267688Y0166544D01*
X0267705Y016651D01*
X0267722Y0166494D01*
X0267744D01*
X0267772Y0166499D01*
X0267822Y0166516D01*
X0267849Y0166533D01*
X0267882Y016656D01*
X0267921Y0166588D01*
X0267966Y0166621D01*
X0268016Y0166666D01*
X0268071Y0166721D01*
X0268138Y0166782D01*
X0268204Y0166855D01*
X026821Y016686D01*
X0268215Y0166866D01*
X0268232Y0166882D01*
X0268254Y0166904D01*
X0268304Y016696D01*
X0268376Y0167026D01*
X026846Y0167104D01*
X0268554Y0167188D01*
X0268659Y0167271D01*
X0268765Y0167349D01*
X0268771D01*
X0268776Y0167359D01*
X0268793Y0167365D01*
X0268815Y0167382D01*
X026887Y0167415D01*
X0268943Y0167459D01*
X0269031Y0167504D01*
X0269126Y0167548D01*
X0269231Y0167593D01*
X0269337Y0167631D01*
X0269342D01*
X0269359Y0167637D01*
X0269381Y0167643D01*
X026942Y0167648D01*
X0269475Y0167659D01*
X0269542Y016767D01*
X0269625Y0167681D01*
X0269731Y0167693D01*
X0269747D01*
X0269764Y0167698D01*
X0269786D01*
X0269814Y0167704D01*
X0269847D01*
X0269925Y0167715D01*
X0270025Y0167726D01*
X027013Y0167737D01*
X0270252Y0167743D01*
X0270374Y0167754D01*
X0270402D01*
X0270436Y0167759D01*
X027048Y0167765D01*
X0270535D01*
X0270597Y0167776D01*
X0270669Y0167781D01*
X0270741Y0167787D01*
X0270902Y0167809D01*
X0271063Y0167837D01*
X0271218Y0167865D01*
X027129Y0167887D01*
X0271357Y0167903D01*
X0271362D01*
X0271374Y0167909D01*
X027139Y0167915D01*
X0271418Y0167926D01*
X0271446Y0167937D01*
X0271484Y0167953D01*
X0271529Y016797D01*
X0271579Y0167992D01*
X0271695Y0168048D01*
X0271834Y0168114D01*
X0271984Y0168203D01*
X027215Y0168303D01*
X0272156Y0168309D01*
X0272173Y016832D01*
X02722Y0168331D01*
X0272239Y0168353D01*
X0272278Y0168375D01*
X0272323Y0168397D01*
X0272422Y0168442D01*
X0272428D01*
X0272445Y0168447D01*
X0272467Y0168458D01*
X02725Y0168464D01*
X0272561Y0168481D01*
X0272628D01*
X027265Y0168475D01*
X0272678Y0168458D01*
X0272711Y0168436D01*
X0272744Y0168403D01*
X0272772Y0168353D01*
X0272794Y0168286D01*
X02728Y0168242D01*
X0272805Y0168198D01*
Y0168192D01*
Y0168186D01*
Y016817D01*
Y0168153D01*
X02728Y0168098D01*
X0272789Y016802D01*
X0272767Y0167931D01*
X0272739Y0167831D01*
X02727Y0167715D01*
X0272644Y0167593D01*
Y0167587D01*
X0272633Y0167576D01*
X0272622Y0167554D01*
X0272611Y0167526D01*
X0272589Y0167493D01*
X0272567Y0167454D01*
X0272506Y0167359D01*
X0272422Y0167249D01*
X0272334Y0167132D01*
X0272223Y0167016D01*
X0272095Y0166904D01*
X0272089Y0166899D01*
X0272078Y0166893D01*
X0272056Y0166877D01*
X0272028Y0166855D01*
X027199Y0166827D01*
X0271945Y0166794D01*
X027189Y016676D01*
X0271829Y0166721D01*
X0271756Y0166677D01*
X0271679Y0166627D01*
X027159Y0166577D01*
X0271496Y0166522D01*
X027139Y0166466D01*
X0271274Y0166405D01*
X0271151Y0166344D01*
X0271024Y0166283D01*
X0271018D01*
X0271002Y0166272D01*
X0270979Y0166261D01*
X0270946Y0166244D01*
X0270902Y0166222D01*
X0270857Y01662D01*
X0270752Y0166144D01*
X027063Y0166083D01*
X0270508Y0166016D01*
X0270386Y016595D01*
X027028Y0165889D01*
X0270269Y0165883D01*
X0270236Y0165861D01*
X0270186Y0165828D01*
X0270125Y0165783D01*
X0270047Y0165722D01*
X0269969Y0165661D01*
X0269881Y0165584D01*
X0269792Y0165506D01*
X0269786Y01655D01*
X0269781Y0165495D01*
X0269747Y0165461D01*
X0269697Y0165417D01*
X0269642Y0165356D01*
X0269581Y0165289D01*
X0269525Y0165217D01*
X026947Y0165145D01*
X0269431Y0165078D01*
X0269426Y0165073D01*
X026942Y0165051D01*
X0269409Y0165023D01*
X0269398Y016499D01*
Y0164951D01*
X0269403Y0164918D01*
X0269414Y0164879D01*
X0269448Y0164851D01*
X0269453D01*
X026947Y0164845D01*
X0269486Y016484D01*
X026952Y0164834D01*
X026957Y0164829D01*
X0269631Y0164823D01*
X0269708Y0164818D01*
X026972D01*
X0269753Y0164812D01*
X0269803D01*
X0269869Y0164806D01*
X0269953Y0164795D01*
X0270047Y016479D01*
X0270152Y0164784D01*
X0270269Y0164773D01*
X0270336D01*
X027038Y0164768D01*
X0270652D01*
X0270824Y0164773D01*
X0271007Y0164784D01*
X0271185Y0164806D01*
X0271268Y0164818D01*
X0271351Y0164834D01*
X0271357D01*
X0271368Y016484D01*
X0271396Y0164845D01*
X0271424Y0164857D01*
X0271462Y0164868D01*
X0271512Y0164879D01*
X0271562Y0164901D01*
X0271623Y0164918D01*
X027169Y0164945D01*
X0271756Y0164973D01*
X0271912Y0165045D01*
X0272084Y0165128D01*
X0272267Y0165234D01*
X0272273Y016524D01*
X0272284Y0165245D01*
X0272306Y0165256D01*
X0272334Y0165273D01*
X02724Y0165312D01*
X0272483Y0165362D01*
X0272572Y0165411D01*
X0272661Y0165456D01*
X0272744Y0165489D01*
X0272778Y01655D01*
X0272805Y0165511D01*
X0272894D01*
X0272939Y01655D01*
X0272983Y0165478D01*
X0273033Y016545D01*
X0273083Y0165406D01*
X0273094Y0165395D01*
X0273116Y0165367D01*
X0273127Y0165339D01*
X0273144Y0165312D01*
X0273161Y0165278D01*
X0273172Y016524D01*
X0273183Y016519D01*
X0273194Y016514D01*
X0273199Y0165084D01*
X0273205Y0165017D01*
X0273199Y0164945D01*
X0273188Y0164868D01*
X0273172Y0164784D01*
X0273149Y0164696D01*
Y016469D01*
X0273144Y0164673D01*
X0273133Y0164646D01*
X0273122Y0164612D01*
X0273105Y0164568D01*
X0273083Y0164518D01*
X0273055Y0164457D01*
X0273027Y0164396D01*
X027295Y0164257D01*
X0272855Y0164107D01*
X02728Y016403D01*
X0272739Y0163952D01*
X0272672Y016388D01*
X02726Y0163802D01*
X0272594Y0163796D01*
X0272583Y0163785D01*
X0272567Y0163769D01*
X0272539Y0163741D01*
X02725Y0163708D01*
X0272456Y0163669D01*
X0272406Y016363D01*
X0272345Y016358D01*
X0272339Y0163575D01*
X0272317Y0163558D01*
X0272278Y016353D01*
X0272234Y0163497D01*
X0272173Y0163452D01*
X0272106Y0163402D01*
X0272034Y0163347D01*
X0271951Y0163291D01*
X0271945Y0163286D01*
X0271934Y016328D01*
X0271912Y0163264D01*
X0271879Y0163242D01*
X027184Y0163214D01*
X0271795Y0163186D01*
X027174Y0163147D01*
X0271684Y0163108D01*
X0271618Y0163064D01*
X0271546Y016302D01*
X027139Y0162914D01*
X0271218Y0162803D01*
X0271035Y0162686D01*
X0271029Y0162681D01*
X0271013Y0162675D01*
X0270985Y0162659D01*
X0270952Y0162636D01*
X0270907Y0162609D01*
X0270852Y0162575D01*
X0270796Y0162542D01*
X027073Y0162503D01*
X0270591Y016242D01*
X0270436Y0162331D01*
X027028Y0162242D01*
X0270125Y0162159D01*
X0270119D01*
X0270114Y0162154D01*
X027008Y0162137D01*
X027003Y0162104D01*
X0269964Y016207D01*
X0269886Y0162021D01*
X0269797Y0161965D01*
X0269708Y0161909D01*
X0269614Y0161843D01*
X0269603Y0161837D01*
X026957Y0161815D01*
X0269525Y0161776D01*
X0269464Y0161732D01*
X0269392Y0161682D01*
X0269314Y0161621D01*
X0269148Y0161482D01*
X0269142Y0161477D01*
X0269131Y0161466D01*
X0269109Y0161449D01*
X0269081Y0161421D01*
X0269042Y0161388D01*
X0269004Y0161349D01*
X0268904Y0161255D01*
X0268798Y0161144D01*
X0268682Y0161021D01*
X0268565Y0160894D01*
X026846Y0160755D01*
X0268454Y0160749D01*
X0268449Y0160738D01*
X0268438Y0160722D01*
X0268415Y0160694D01*
X0268399Y0160661D01*
X0268376Y0160627D01*
X0268326Y0160539D01*
X0268277Y0160439D01*
X0268232Y0160339D01*
X0268199Y0160233D01*
X0268193Y0160189D01*
X0268188Y0160139D01*
Y0160133D01*
Y0160117D01*
X0268193Y0160095D01*
X0268199Y0160072D01*
X0268204Y0160045D01*
X0268221Y0160022D01*
X0268238Y0160006D01*
X0268266Y016D01*
X0268282D01*
X0268304Y0160006D01*
X0268343Y0160017D01*
X0268399Y0160028D01*
X0268465Y016005D01*
X026851Y0160067D01*
X026856Y0160083D01*
X026861Y0160106D01*
X0268671Y0160128D01*
X0268676D01*
X0268687Y0160133D01*
X0268704Y0160139D01*
X0268726Y0160145D01*
X0268754Y0160156D01*
X0268793Y0160167D01*
X0268832Y0160178D01*
X0268882Y0160189D01*
X0268992Y0160211D01*
X026912Y0160228D01*
X0269276Y0160239D01*
X0269442Y0160245D01*
X0269492D01*
X0269525Y0160239D01*
X026957D01*
X0269625Y0160233D01*
X0269692Y0160228D01*
X0269764Y0160222D01*
X0269847Y0160217D01*
X0269936Y0160206D01*
X027003Y0160195D01*
X0270136Y0160178D01*
X0270247Y0160161D01*
X0270363Y0160145D01*
X0270491Y0160122D01*
X0270619Y01601D01*
X027063D01*
X0270669Y0160089D01*
X0270719Y0160083D01*
X0270785Y0160072D01*
X0270857Y0160061D01*
X0270935Y016005D01*
X0271007Y0160045D01*
X0271079Y0160039D01*
X0271185D01*
X0271229Y0160045D01*
X0271279Y016005D01*
X0271379Y0160067D01*
X0271385D01*
X027139Y0160072D01*
X0271418Y0160078D01*
X0271462Y0160083D01*
X0271512Y0160089D01*
X0271568D01*
X0271618Y0160083D01*
X0271662Y0160067D01*
X0271695Y0160034D01*
Y0160028D01*
X0271707Y0160011D01*
X0271712Y0159973D01*
X0271718Y015995D01*
Y0159917D01*
X0271723Y0159884D01*
X0271729Y0159839D01*
Y0159795D01*
Y0159734D01*
Y0159673D01*
Y0159601D01*
Y0159523D01*
X0271723Y0159434D01*
Y0159429D01*
Y0159412D01*
X0271718Y0159384D01*
Y0159345D01*
X0271712Y0159301D01*
X0271707Y0159251D01*
X027169Y0159129D01*
X0271668Y0159001D01*
X0271634Y0158874D01*
X027159Y0158757D01*
X0271568Y0158702D01*
X027154Y0158657D01*
X0271534Y0158646D01*
X0271507Y0158618D01*
X0271468Y0158574D01*
X0271434Y0158546D01*
X0271401Y0158513D01*
X0271357Y0158479D01*
X0271312Y0158441D01*
X0271257Y0158402D01*
X0271196Y0158363D01*
X0271129Y0158319D01*
X0271052Y0158274D01*
X0270968Y015823D01*
X0270874Y0158185D01*
X0270868Y015818D01*
X0270841Y0158169D01*
X0270802Y0158152D01*
X0270746Y0158124D01*
X0270674Y0158091D01*
X0270585Y0158052D01*
X027048Y0158002D01*
X0270363Y0157947D01*
X0269936D01*
X0269858Y0157941D01*
X0269176D01*
X0269054Y0157936D01*
X0268354D01*
X0268193Y015793D01*
X0267688D01*
X0267505Y0157924D01*
X0266811D01*
X0266734Y0157919D01*
X0265879D01*
X026574Y0157913D01*
X0264813D01*
X0264641Y0157908D01*
X0264269D01*
X0264264Y0157913D01*
X0264258Y0157919D01*
X0264242Y0157936D01*
X0264219Y0157958D01*
X0264192Y0157986D01*
X0264159Y0158019D01*
X026412Y0158058D01*
X0264075Y0158102D01*
X026402Y0158158D01*
X0263964Y0158213D01*
X0263898Y015828D01*
X0263831Y0158346D01*
X0263753Y0158424D01*
X026367Y0158507D01*
X0263581Y0158596D01*
X0263487Y0158691D01*
X0263387Y015879D01*
X0263282Y0158901D01*
X0263165Y0159012D01*
X0263049Y0159134D01*
X0262921Y0159256D01*
X0262788Y015939D01*
X0262654Y0159529D01*
X026251Y0159673D01*
X026236Y0159823D01*
X0262205Y0159978D01*
X0262044Y0160139D01*
X0261872Y0160311D01*
X02617Y0160483D01*
X0261517Y0160666D01*
X0261334Y0160849D01*
X0261139Y0161044D01*
X0261134Y0161049D01*
X0261128Y0161055D01*
X0261111Y0161071D01*
X0261089Y0161094D01*
X0261062Y0161121D01*
X0261028Y0161155D01*
X0260989Y0161194D01*
X0260945Y0161238D01*
X026089Y0161293D01*
X0260834Y0161349D01*
X0260768Y0161416D01*
X0260701Y0161482D01*
X0260623Y016156D01*
X026054Y0161643D01*
X0260451Y0161732D01*
X0260357Y0161826D01*
X0260257Y0161926D01*
X0260146Y0162031D01*
X0260035Y0162148D01*
X0259913Y0162265D01*
X0259791Y0162392D01*
X0259658Y0162525D01*
X0259519Y0162659D01*
X0259374Y0162803D01*
X0259225Y0162953D01*
X0259069Y0163108D01*
X0258908Y0163275D01*
X0258742Y0163441D01*
X0258564Y0163613D01*
X0258386Y0163796D01*
X0258198Y016398D01*
X0258003Y0164174D01*
Y0164185D01*
Y0164213D01*
Y0164263D01*
Y0164335D01*
Y0164424D01*
Y0164535D01*
Y0164662D01*
Y0164812D01*
Y0164979D01*
Y0165167D01*
Y0165378D01*
Y0165606D01*
Y0165856D01*
Y0166122D01*
Y0166411D01*
X0258009Y0166721D01*
Y0167049D01*
Y0167398D01*
Y0167765D01*
Y0168153D01*
Y0168558D01*
Y0168991D01*
Y0169435D01*
Y0169901D01*
Y017039D01*
Y01709D01*
Y0171428D01*
Y0171972D01*
Y0172538D01*
Y0173126D01*
Y0173731D01*
Y0174358D01*
Y0174369D01*
Y0174397D01*
Y0174447D01*
Y0174519D01*
Y0174608D01*
Y0174713D01*
Y0174846D01*
Y0174996D01*
Y0175163D01*
Y0175352D01*
Y0175562D01*
Y017579D01*
Y017604D01*
Y0176306D01*
Y0176595D01*
Y01769D01*
Y0177233D01*
Y0177577D01*
Y0177943D01*
Y0178332D01*
Y0178743D01*
Y017917D01*
Y0179614D01*
Y0180086D01*
Y0180569D01*
Y0181079D01*
Y0181606D01*
Y018215D01*
Y0182716D01*
Y0183305D01*
Y018391D01*
Y0184537D01*
X0258015Y0184542D01*
X0258026Y0184553D01*
X0258042Y018457D01*
X0258065Y0184592D01*
X0258098Y0184626D01*
X0258137Y0184659D01*
X0258187Y0184703D01*
X0258237Y0184759D01*
X0258298Y0184814D01*
X025837Y0184881D01*
X0258442Y0184953D01*
X0258525Y0185031D01*
X0258614Y018512D01*
X0258714Y0185214D01*
X0258819Y0185314D01*
X025893Y0185419D01*
X0259047Y018553D01*
X0259175Y0185652D01*
X0259308Y018578D01*
X0259447Y0185913D01*
X0259596Y0186057D01*
X0259746Y0186202D01*
X0259913Y0186357D01*
X0260079Y0186518D01*
X0260257Y018669D01*
X026044Y0186862D01*
X0260629Y0187045D01*
X0260828Y0187234D01*
X0261034Y0187434D01*
X0261245Y0187634D01*
X0261461Y0187845D01*
X0261689Y0188061D01*
X0261694Y0188067D01*
X0261705Y0188078D01*
X0261722Y0188094D01*
X0261744Y0188117D01*
X0261778Y018815D01*
X0261816Y0188183D01*
X0261866Y0188233D01*
X0261916Y0188283D01*
X0261977Y0188344D01*
X026205Y0188405D01*
X0262122Y0188477D01*
X0262205Y018856D01*
X0262294Y0188644D01*
X0262394Y0188738D01*
X0262499Y0188838D01*
X026261Y0188949D01*
X0262727Y018906D01*
X0262854Y0189182D01*
X0262987Y018931D01*
X0263126Y0189443D01*
X0263276Y0189587D01*
X0263426Y0189732D01*
X0263592Y0189887D01*
X0263759Y0190053D01*
X0263936Y019022D01*
X026412Y0190398D01*
X0264308Y0190581D01*
X0264508Y019077D01*
X0264714Y0190964D01*
X0264924Y0191169D01*
X0265141Y019138D01*
X0265368Y0191596D01*
X0282174D01*
X028269Y0191591D01*
D02*
G37*
D21*
X0149Y0165D02*
G03*
X0149Y0165I-0002J0D01*
G01*
Y0209D02*
G03*
X0149Y0209I-0002J0D01*
G01*
Y0229D02*
G03*
X0149Y0229I-0002J0D01*
G01*
X0142866Y0187527D02*
G03*
X0141685Y0188709I-0001182J0D01*
G01*
Y019422D02*
G03*
X0142866Y0195401I-0000197J0001378D01*
G01*
Y0199339D02*
G03*
X0141685Y020052I-0001181J0D01*
G01*
Y0206031D02*
G03*
X0142866Y0207213I-0J0001182D01*
G01*
Y0143527D02*
G03*
X0141685Y0144709I-0001182J0D01*
G01*
Y015022D02*
G03*
X0142866Y0151401I-0000197J0001378D01*
G01*
Y0155339D02*
G03*
X0141685Y015652I-0001181J0D01*
G01*
Y0162031D02*
G03*
X0142866Y0163213I-0J0001182D01*
G01*
Y0266599D02*
G03*
X0141685Y026778I-0001181J0D01*
G01*
Y0273291D02*
G03*
X0142866Y0274473I-0J0001182D01*
G01*
Y0254788D02*
G03*
X0141685Y0255969I-0001181J0D01*
G01*
Y026148D02*
G03*
X0142866Y0262662I-0J0001182D01*
G01*
Y0231165D02*
G03*
X0141685Y0232347I-0001182J0D01*
G01*
Y0237858D02*
G03*
X0142866Y0239039I-0000197J0001378D01*
G01*
Y0242976D02*
G03*
X0141685Y0244158I-0001182J0D01*
G01*
Y0249669D02*
G03*
X0142866Y025085I0J0001181D01*
G01*
X0173Y0222D02*
X0251D01*
Y0134D02*
Y0222D01*
X0173Y0134D02*
X0251D01*
X0173D02*
Y0222D01*
X0136567Y0188709D02*
X0141685D01*
X0136567D02*
Y019422D01*
X0141685D01*
X0136567Y0206031D02*
X0141685D01*
X0136567Y020052D02*
X0141685D01*
X0136567D02*
Y0206031D01*
X013578Y018359D02*
X0142866D01*
X013578Y0181622D02*
Y018359D01*
Y0181622D02*
X0142866D01*
X013578Y021115D02*
X0142866D01*
X013578D02*
Y0213118D01*
X0142866D01*
X0110189Y0193433D02*
Y0201307D01*
X0112551D01*
X0106252D02*
X0110189D01*
X0106252Y0193433D02*
Y0201307D01*
Y0193433D02*
X0110189D01*
X0112551D01*
Y0201307D01*
X010389Y018359D02*
X010822Y0178394D01*
X010389Y021115D02*
X010822Y0216346D01*
X0142866Y0178394D02*
Y0181622D01*
Y018359D02*
Y0187527D01*
Y0195401D02*
Y0199339D01*
Y0207213D02*
Y021115D01*
Y0213118D02*
Y0216346D01*
X010822D02*
X0142866D01*
X010389Y018359D02*
Y021115D01*
X010822Y0178394D02*
X0142866D01*
X0136567Y0144709D02*
X0141685D01*
X0136567D02*
Y015022D01*
X0141685D01*
X0136567Y0162031D02*
X0141685D01*
X0136567Y015652D02*
X0141685D01*
X0136567D02*
Y0162031D01*
X013578Y013959D02*
X0142866D01*
X013578Y0137622D02*
Y013959D01*
Y0137622D02*
X0142866D01*
X013578Y016715D02*
X0142866D01*
X013578D02*
Y0169118D01*
X0142866D01*
X0110189Y0149433D02*
Y0157307D01*
X0112551D01*
X0106252D02*
X0110189D01*
X0106252Y0149433D02*
Y0157307D01*
Y0149433D02*
X0110189D01*
X0112551D01*
Y0157307D01*
X010389Y013959D02*
X010822Y0134394D01*
X010389Y016715D02*
X010822Y0172346D01*
X0142866Y0134394D02*
Y0137622D01*
Y013959D02*
Y0143527D01*
Y0151401D02*
Y0155339D01*
Y0163213D02*
Y016715D01*
Y0169118D02*
Y0172346D01*
X010822D02*
X0142866D01*
X010389Y013959D02*
Y016715D01*
X010822Y0134394D02*
X0142866D01*
Y0274473D02*
Y027841D01*
X0136567Y0273291D02*
X0141685D01*
X0136567Y026778D02*
X0141685D01*
X0136567D02*
Y0273291D01*
X0142866Y0262662D02*
Y0266599D01*
X0136567Y026148D02*
X0141685D01*
X0136567Y0255969D02*
X0141685D01*
X0136567D02*
Y026148D01*
X0142866Y025085D02*
Y0254788D01*
X0136567Y0232347D02*
X0141685D01*
X0136567D02*
Y0237858D01*
X0141685D01*
X0136567Y0249669D02*
X0141685D01*
X0136567Y0244158D02*
X0141685D01*
X0136567D02*
Y0249669D01*
X013578Y0227228D02*
X0142866D01*
X013578Y022526D02*
Y0227228D01*
Y022526D02*
X0142866D01*
X013578Y027841D02*
X0142866D01*
X013578D02*
Y0280378D01*
X0142866D01*
X0110189Y0248882D02*
Y0256756D01*
X0112551D01*
X0106252D02*
X0110189D01*
X0106252Y0248882D02*
Y0256756D01*
Y0248882D02*
X0110189D01*
X0112551D01*
Y0256756D01*
X010389Y0227228D02*
X010822Y0222032D01*
X010389Y027841D02*
X010822Y0283606D01*
X0142866Y0222032D02*
Y022526D01*
Y0227228D02*
Y0231165D01*
Y0239039D02*
Y0242976D01*
Y0280378D02*
Y0283606D01*
X010822D02*
X0142866D01*
X010389Y0227228D02*
Y027841D01*
X010822Y0222032D02*
X0142866D01*
X026605Y0204998D02*
X026505Y0205998D01*
X0263051D01*
X0262051Y0204998D01*
Y0201D01*
X0263051Y02D01*
X026505D01*
X026605Y0201D01*
X0268049Y0204998D02*
X0269049Y0205998D01*
X0271048D01*
X0272048Y0204998D01*
Y0203999D01*
X0271048Y0202999D01*
X0270049D01*
X0271048D01*
X0272048Y0201999D01*
Y0201D01*
X0271048Y02D01*
X0269049D01*
X0268049Y0201D01*
X0151575Y0166276D02*
X0157573D01*
Y0163277D01*
X0156573Y0162277D01*
X0154574D01*
X0153574Y0163277D01*
Y0166276D01*
Y0164277D02*
X0151575Y0162277D01*
X0157573Y0156279D02*
Y0160278D01*
X0151575D01*
Y0156279D01*
X0154574Y0160278D02*
Y0158279D01*
X0157573Y015428D02*
X0151575D01*
Y0150281D01*
Y0148282D02*
X0155574D01*
X0157573Y0146282D01*
X0155574Y0144283D01*
X0151575D01*
X0154574D01*
Y0148282D01*
X0157573Y0142284D02*
X0156573D01*
X0154574Y0140284D01*
X0156573Y0138285D01*
X0157573D01*
X0154574Y0140284D02*
X0151575D01*
X0157998Y0263819D02*
X0152D01*
Y025982D01*
X0157998Y0253822D02*
Y0257821D01*
X0152D01*
Y0253822D01*
X0154999Y0257821D02*
Y0255822D01*
X0157998Y0251823D02*
X0152D01*
Y0248824D01*
X0153Y0247824D01*
X0156998D01*
X0157998Y0248824D01*
Y0251823D01*
X0156998Y0241826D02*
X0157998Y0242826D01*
Y0244825D01*
X0156998Y0245825D01*
X0155999D01*
X0154999Y0244825D01*
Y0242826D01*
X0153999Y0241826D01*
X0153D01*
X0152Y0242826D01*
Y0244825D01*
X0153Y0245825D01*
X0156998Y020737D02*
X0151D01*
Y0204371D01*
X0152Y0203371D01*
X0155998D01*
X0156998Y0204371D01*
Y020737D01*
Y0198373D02*
Y0200372D01*
X0155998Y0201372D01*
X0152D01*
X0151Y0200372D01*
Y0198373D01*
X0152Y0197373D01*
X0155998D01*
X0156998Y0198373D01*
Y0192375D02*
Y0194374D01*
X0155998Y0195374D01*
X0152D01*
X0151Y0194374D01*
Y0192375D01*
X0152Y0191375D01*
X0155998D01*
X0156998Y0192375D01*
X0151Y0189376D02*
X0156998D01*
Y0186377D01*
X0155998Y0185377D01*
X0153999D01*
X0152999Y0186377D01*
Y0189376D01*
Y0187376D02*
X0151Y0185377D01*
X0197999Y0240998D02*
X0196999Y0241998D01*
X0195D01*
X0194Y0240998D01*
Y0239999D01*
X0195Y0238999D01*
X0196999D01*
X0197999Y0237999D01*
Y0237D01*
X0196999Y0236D01*
X0195D01*
X0194Y0237D01*
X0199998Y0240998D02*
X0200998Y0241998D01*
X0202997D01*
X0203997Y0240998D01*
Y0239999D01*
X0202997Y0238999D01*
X0203997Y0237999D01*
Y0237D01*
X0202997Y0236D01*
X0200998D01*
X0199998Y0237D01*
Y0237999D01*
X0200998Y0238999D01*
X0199998Y0239999D01*
Y0240998D01*
X0200998Y0238999D02*
X0202997D01*
X0215993Y0240998D02*
X0214993Y0241998D01*
X0212994D01*
X0211994Y0240998D01*
Y0237D01*
X0212994Y0236D01*
X0214993D01*
X0215993Y0237D01*
X0220991Y0241998D02*
X0218992D01*
X0217992Y0240998D01*
Y0237D01*
X0218992Y0236D01*
X0220991D01*
X0221991Y0237D01*
Y0240998D01*
X0220991Y0241998D01*
X0227989Y0236D02*
X022399D01*
X0227989Y0239999D01*
Y0240998D01*
X0226989Y0241998D01*
X022499D01*
X022399Y0240998D01*
X0165Y0321D02*
Y0319001D01*
Y032D01*
X0170998D01*
X0169998Y0321D01*
X0165Y0312003D02*
Y0316002D01*
X0168999Y0312003D01*
X0169998D01*
X0170998Y0313003D01*
Y0315002D01*
X0169998Y0316002D01*
X0170998Y0310004D02*
X0166999D01*
X0165Y0308004D01*
X0166999Y0306005D01*
X0170998D01*
X0167999Y0304006D02*
Y0300007D01*
X0169998Y0302006D02*
X0166D01*
X0291Y0332D02*
X0296998D01*
Y0329001D01*
X0295998Y0328001D01*
X0293999D01*
X0292999Y0329001D01*
Y0332D01*
Y0330001D02*
X0291Y0328001D01*
Y0326002D02*
X0296998D01*
Y0323003D01*
X0295998Y0322003D01*
X0293999D01*
X0292999Y0323003D01*
Y0326002D01*
X0296998Y0320004D02*
Y0318004D01*
Y0319004D01*
X0291D01*
Y0320004D01*
Y0318004D01*
X0295998Y0315005D02*
X0296998Y0314006D01*
Y0312006D01*
X0295998Y0311007D01*
X0294999D01*
X0293999Y0312006D01*
Y0313006D01*
Y0312006D01*
X0292999Y0311007D01*
X0292D01*
X0291Y0312006D01*
Y0314006D01*
X0292Y0315005D01*
X0295998Y0299011D02*
X0296998Y030001D01*
Y030201D01*
X0295998Y0303009D01*
X0292D01*
X0291Y030201D01*
Y030001D01*
X0292Y0299011D01*
X0293999D01*
Y030101D01*
X0291Y0297011D02*
X0296998D01*
Y0294012D01*
X0295998Y0293013D01*
X0293999D01*
X0292999Y0294012D01*
Y0297011D01*
X0296998Y0291013D02*
Y0289014D01*
Y0290014D01*
X0291D01*
Y0291013D01*
Y0289014D01*
X0296998Y0283016D02*
Y0285015D01*
X0295998Y0286015D01*
X0292D01*
X0291Y0285015D01*
Y0283016D01*
X0292Y0282016D01*
X0295998D01*
X0296998Y0283016D01*
X02Y0277D02*
Y0282998D01*
X0202999D01*
X0203999Y0281998D01*
Y0279999D01*
X0202999Y0278999D01*
X02D01*
X0209997Y0281998D02*
X0208997Y0282998D01*
X0206998D01*
X0205998Y0281998D01*
Y0278D01*
X0206998Y0277D01*
X0208997D01*
X0209997Y0278D01*
X0211996Y0277D02*
Y0280999D01*
X0213996Y0282998D01*
X0215995Y0280999D01*
Y0277D01*
Y0279999D01*
X0211996D01*
X0217994Y0278D02*
X0218994Y0277D01*
X0220993D01*
X0221993Y0278D01*
Y0281998D01*
X0220993Y0282998D01*
X0218994D01*
X0217994Y0281998D01*
Y0280999D01*
X0218994Y0279999D01*
X0221993D01*
X0227991Y0282998D02*
X0225992Y0281998D01*
X0223992Y0279999D01*
Y0278D01*
X0224992Y0277D01*
X0226991D01*
X0227991Y0278D01*
Y0278999D01*
X0226991Y0279999D01*
X0223992D01*
X022999Y0281998D02*
X023099Y0282998D01*
X0232989D01*
X0233989Y0281998D01*
Y0280999D01*
X0232989Y0279999D01*
X0233989Y0278999D01*
Y0278D01*
X0232989Y0277D01*
X023099D01*
X022999Y0278D01*
Y0278999D01*
X023099Y0279999D01*
X022999Y0280999D01*
Y0281998D01*
X023099Y0279999D02*
X0232989D01*
X0239987Y0282998D02*
X0235988D01*
Y0279999D01*
X0237988Y0280999D01*
X0238987D01*
X0239987Y0279999D01*
Y0278D01*
X0238987Y0277D01*
X0236988D01*
X0235988Y0278D01*
X0265999Y0224998D02*
X0264999Y0225998D01*
X0263D01*
X0262Y0224998D01*
Y0221D01*
X0263Y022D01*
X0264999D01*
X0265999Y0221D01*
X0267998Y022D02*
X0269997D01*
X0268998D01*
Y0225998D01*
X0267998Y0224998D01*
X0265896Y0214998D02*
X0264897Y0215998D01*
X0262897D01*
X0261898Y0214998D01*
Y0211D01*
X0262897Y021D01*
X0264897D01*
X0265896Y0211D01*
X0271894Y021D02*
X0267896D01*
X0271894Y0213999D01*
Y0214998D01*
X0270895Y0215998D01*
X0268895D01*
X0267896Y0214998D01*
X0248Y0261998D02*
Y0256D01*
Y0258999D01*
X0251999D01*
Y0261998D01*
Y0256D01*
X0253998Y0261998D02*
X0255997D01*
X0254998D01*
Y0256D01*
X0253998D01*
X0255997D01*
X0258996Y0261998D02*
Y0256D01*
Y0258999D01*
X0262995D01*
Y0261998D01*
Y0256D01*
X0268993Y0261998D02*
X0266994Y0260998D01*
X0264995Y0258999D01*
Y0257D01*
X0265994Y0256D01*
X0267993D01*
X0268993Y0257D01*
Y0257999D01*
X0267993Y0258999D01*
X0264995D01*
X0270993Y0256D02*
X0272992D01*
X0271992D01*
Y0261998D01*
X0270993Y0260998D01*
X0275991D02*
X0276991Y0261998D01*
X027899D01*
X027999Y0260998D01*
Y0259999D01*
X027899Y0258999D01*
X027799D01*
X027899D01*
X027999Y0257999D01*
Y0257D01*
X027899Y0256D01*
X0276991D01*
X0275991Y0257D01*
X0281989Y0260998D02*
X0282989Y0261998D01*
X0284988D01*
X0285988Y0260998D01*
Y0257D01*
X0284988Y0256D01*
X0282989D01*
X0281989Y0257D01*
Y0260998D01*
X0186114Y0303933D02*
Y0309931D01*
X0189113D01*
X0190113Y0308931D01*
Y0306932D01*
X0189113Y0305932D01*
X0186114D01*
X0192112Y0309931D02*
Y0303933D01*
X0194112Y0305932D01*
X0196111Y0303933D01*
Y0309931D01*
X019811Y0303933D02*
Y0309931D01*
X0201109D01*
X0202109Y0308931D01*
Y0306932D01*
X0201109Y0305932D01*
X019811D01*
X020011D02*
X0202109Y0303933D01*
X0228Y0304D02*
Y0309998D01*
X0230999D01*
X0231999Y0308998D01*
Y0306999D01*
X0230999Y0305999D01*
X0228D01*
X0229999D02*
X0231999Y0304D01*
X0233998D02*
X0235997D01*
X0234998D01*
Y0309998D01*
X0233998Y0308998D01*
X0186603Y0276608D02*
Y0280607D01*
X0185603Y0281606D01*
X0183604D01*
X0182604Y0280607D01*
Y0276608D01*
X0183604Y0275608D01*
X0185603D01*
X0184604Y0277608D02*
X0186603Y0275608D01*
X0185603D02*
X0186603Y0276608D01*
X0188602Y0275608D02*
X0190602D01*
X0189602D01*
Y0281606D01*
X0188602Y0280607D01*
X0186999Y0263D02*
Y0266998D01*
X0185999Y0267998D01*
X0184D01*
X0183Y0266998D01*
Y0263D01*
X0184Y0262D01*
X0185999D01*
X0184999Y0263999D02*
X0186999Y0262D01*
X0185999D02*
X0186999Y0263D01*
X0192997Y0262D02*
X0188998D01*
X0192997Y0265999D01*
Y0266998D01*
X0191997Y0267998D01*
X0189998D01*
X0188998Y0266998D01*
X0186999Y0249D02*
Y0252998D01*
X0185999Y0253998D01*
X0184D01*
X0183Y0252998D01*
Y0249D01*
X0184Y0248D01*
X0185999D01*
X0184999Y0249999D02*
X0186999Y0248D01*
X0185999D02*
X0186999Y0249D01*
X0188998Y0252998D02*
X0189998Y0253998D01*
X0191997D01*
X0192997Y0252998D01*
Y0251999D01*
X0191997Y0250999D01*
X0190997D01*
X0191997D01*
X0192997Y0249999D01*
Y0249D01*
X0191997Y0248D01*
X0189998D01*
X0188998Y0249D01*
X0186146Y0298325D02*
Y0292327D01*
X0190144D01*
X0196142Y0298325D02*
X0192144D01*
Y0292327D01*
X0196142D01*
X0192144Y0295326D02*
X0194143D01*
X0198142Y0298325D02*
Y0292327D01*
X0201141D01*
X020214Y0293326D01*
Y0297325D01*
X0201141Y0298325D01*
X0198142D01*
X0228Y0291D02*
Y0296998D01*
X0230999D01*
X0231999Y0295998D01*
Y0293999D01*
X0230999Y0292999D01*
X0228D01*
X0229999D02*
X0231999Y0291D01*
X0237997D02*
X0233998D01*
X0237997Y0294999D01*
Y0295998D01*
X0236997Y0296998D01*
X0234998D01*
X0233998Y0295998D01*
X026048Y0326D02*
Y0331998D01*
X0263479D01*
X0264479Y0330998D01*
Y0328999D01*
X0263479Y0327999D01*
X026048D01*
X026248D02*
X0264479Y0326D01*
X0266478Y0330998D02*
X0267478Y0331998D01*
X0269477D01*
X0270477Y0330998D01*
Y0329999D01*
X0269477Y0328999D01*
X0268478D01*
X0269477D01*
X0270477Y0327999D01*
Y0327D01*
X0269477Y0326D01*
X0267478D01*
X0266478Y0327D01*
X026048Y0316D02*
Y0321998D01*
X0263479D01*
X0264479Y0320998D01*
Y0318999D01*
X0263479Y0317999D01*
X026048D01*
X026248D02*
X0264479Y0316D01*
X0269477D02*
Y0321998D01*
X0266478Y0318999D01*
X0270477D01*
X026048Y0306D02*
Y0311998D01*
X0263479D01*
X0264479Y0310998D01*
Y0308999D01*
X0263479Y0307999D01*
X026048D01*
X026248D02*
X0264479Y0306D01*
X0270477Y0311998D02*
X0266478D01*
Y0308999D01*
X0268478Y0309999D01*
X0269477D01*
X0270477Y0308999D01*
Y0307D01*
X0269477Y0306D01*
X0267478D01*
X0266478Y0307D01*
X026048Y0296D02*
Y0301998D01*
X0263479D01*
X0264479Y0300998D01*
Y0298999D01*
X0263479Y0297999D01*
X026048D01*
X026248D02*
X0264479Y0296D01*
X0270477Y0301998D02*
X0268478Y0300998D01*
X0266478Y0298999D01*
Y0297D01*
X0267478Y0296D01*
X0269477D01*
X0270477Y0297D01*
Y0297999D01*
X0269477Y0298999D01*
X0266478D01*
X026048Y0286D02*
Y0291998D01*
X0263479D01*
X0264479Y0290998D01*
Y0288999D01*
X0263479Y0287999D01*
X026048D01*
X026248D02*
X0264479Y0286D01*
X0266478Y0291998D02*
X0270477D01*
Y0290998D01*
X0266478Y0287D01*
Y0286D01*
X026048Y0276D02*
Y0281998D01*
X0263479D01*
X0264479Y0280998D01*
Y0278999D01*
X0263479Y0277999D01*
X026048D01*
X026248D02*
X0264479Y0276D01*
X0266478Y0280998D02*
X0267478Y0281998D01*
X0269477D01*
X0270477Y0280998D01*
Y0279999D01*
X0269477Y0278999D01*
X0270477Y0277999D01*
Y0277D01*
X0269477Y0276D01*
X0267478D01*
X0266478Y0277D01*
Y0277999D01*
X0267478Y0278999D01*
X0266478Y0279999D01*
Y0280998D01*
X0267478Y0278999D02*
X0269477D01*
X026048Y0266D02*
Y0271998D01*
X0263479D01*
X0264479Y0270998D01*
Y0268999D01*
X0263479Y0267999D01*
X026048D01*
X026248D02*
X0264479Y0266D01*
X0266478Y0267D02*
X0267478Y0266D01*
X0269477D01*
X0270477Y0267D01*
Y0270998D01*
X0269477Y0271998D01*
X0267478D01*
X0266478Y0270998D01*
Y0269999D01*
X0267478Y0268999D01*
X0270477D01*
X0212544Y0287913D02*
Y0290537D01*
X0211232Y0289225D02*
X0213856D01*
D30*
X0235535Y026515D02*
G03*
X0235535Y026515I-0001181J0D01*
G01*
X0267181Y0247905D02*
G03*
X0267181Y0247905I-0001181J0D01*
G01*
D31*
X023898Y0273122D02*
G03*
X023898Y0273122I-0000492J0D01*
G01*
X025724Y0252847D02*
G03*
X025724Y0252847I-0000492J0D01*
G01*
D32*
X0153685Y0293528D02*
X0160378D01*
Y0306126D01*
Y0321874D02*
Y0330535D01*
X0103685D02*
X0160378D01*
X0103685Y0293528D02*
Y0330535D01*
Y0293528D02*
X0137937D01*
D33*
X0199709Y0254913D02*
Y0269087D01*
X0238291Y0254913D02*
Y0269087D01*
X0199709Y0254913D02*
X0238291D01*
X0199709Y0269087D02*
X0238291D01*
X0220669Y0309067D02*
X022185D01*
X0220669Y0304933D02*
X022185D01*
X0262063Y0232157D02*
X0269937D01*
X0262063Y0251842D02*
X0269937D01*
Y0232157D02*
Y0251842D01*
X0262063Y0232157D02*
Y0251842D01*
X0220669Y0296067D02*
X022185D01*
X0220669Y0291933D02*
X022185D01*
X027615Y0326933D02*
X0277331D01*
X027615Y0331067D02*
X0277331D01*
X027615Y0276933D02*
X0277331D01*
X027615Y0281067D02*
X0277331D01*
X027615Y0286933D02*
X0277331D01*
X027615Y0291067D02*
X0277331D01*
X027615Y0296933D02*
X0277331D01*
X027615Y0301067D02*
X0277331D01*
X027615Y0306933D02*
X0277331D01*
X027615Y0311067D02*
X0277331D01*
X027615Y0316933D02*
X0277331D01*
X027615Y0321067D02*
X0277331D01*
X027615Y0266933D02*
X0277331D01*
X027615Y0271067D02*
X0277331D01*
D34*
X0208032Y030385D02*
Y031015D01*
X0203882Y0298543D02*
X0214118D01*
Y0291457D02*
Y0298543D01*
X0203882Y0291457D02*
X0214118D01*
X0203882D02*
Y0298543D01*
D35*
X0312499Y0126D02*
Y0130998D01*
X031Y0128499D01*
X0313332D01*
X0314998Y0130165D02*
X0315831Y0130998D01*
X0317498D01*
X0318331Y0130165D01*
Y0126833D01*
X0317498Y0126D01*
X0315831D01*
X0314998Y0126833D01*
Y0130165D01*
X0299D02*
X0299833Y0130998D01*
X0301499D01*
X0302332Y0130165D01*
Y0129332D01*
X0301499Y0128499D01*
X0300666D01*
X0301499D01*
X0302332Y0127666D01*
Y0126833D01*
X0301499Y0126D01*
X0299833D01*
X0299Y0126833D01*
X0303998D02*
X0304831Y0126D01*
X0306498D01*
X0307331Y0126833D01*
Y0130165D01*
X0306498Y0130998D01*
X0304831D01*
X0303998Y0130165D01*
Y0129332D01*
X0304831Y0128499D01*
X0307331D01*
X0303Y0335D02*
X0304666D01*
X0303833D01*
Y0339998D01*
X0303Y0339165D01*
X0315332Y0335D02*
X0312D01*
X0315332Y0338332D01*
Y0339165D01*
X0314499Y0339998D01*
X0312833D01*
X0312Y0339165D01*
M02*
